<ttFont>
    <TTGlyph name=".notdef" xMin="40" yMin="0" xMax="597" yMax="660">
      <contour>
        <pt x="170" y="660" on="1"/>
        <pt x="597" y="660" on="1"/>
        <pt x="467" y="0" on="1"/>
        <pt x="40" y="0" on="1"/>
      </contour>
      <contour>
        <pt x="205" y="601" on="1"/>
        <pt x="103" y="81" on="1"/>
        <pt x="293" y="340" on="1"/>
      </contour>
      <contour>
        <pt x="438" y="81" on="1"/>
        <pt x="545" y="601" on="1"/>
        <pt x="351" y="340" on="1"/>
      </contour>
      <contour>
        <pt x="111" y="39" on="1"/>
        <pt x="410" y="39" on="1"/>
        <pt x="354" y="204" on="1"/>
        <pt x="317" y="307" on="1"/>
        <pt x="313" y="307" on="1"/>
        <pt x="234" y="204" on="1"/>
      </contour>
      <contour>
        <pt x="400" y="462" on="1"/>
        <pt x="516" y="621" on="1"/>
        <pt x="241" y="621" on="1"/>
        <pt x="292" y="462" on="1"/>
        <pt x="325" y="369" on="1"/>
        <pt x="329" y="369" on="1"/>
      </contour>
    </TTGlyph>
    <TTGlyph name="A" xMin="-48" yMin="0" xMax="443" yMax="659">
      <contour>
        <pt x="370" y="264" on="1"/>
        <pt x="355" y="391" on="1"/>
        <pt x="350" y="446" on="0"/>
        <pt x="337" y="557" on="0"/>
        <pt x="332" y="616" on="1"/>
        <pt x="328" y="616" on="1"/>
        <pt x="299" y="556" on="0"/>
        <pt x="241" y="448" on="0"/>
        <pt x="210" y="391" on="1"/>
        <pt x="142" y="264" on="1"/>
      </contour>
      <contour>
        <pt x="374" y="229" on="1"/>
        <pt x="123" y="229" on="1"/>
        <pt x="0" y="0" on="1"/>
        <pt x="-48" y="0" on="1"/>
        <pt x="315" y="659" on="1"/>
        <pt x="362" y="659" on="1"/>
        <pt x="443" y="0" on="1"/>
        <pt x="400" y="0" on="1"/>
      </contour>
    </TTGlyph>
    <TTGlyph name="AE" xMin="-32" yMin="0" xMax="810" yMax="659">
      <contour>
        <pt x="469" y="622" on="1"/>
        <pt x="465" y="622" on="1"/>
        <pt x="423" y="563" on="0"/>
        <pt x="340" y="448" on="0"/>
        <pt x="298" y="389" on="1"/>
        <pt x="200" y="253" on="1"/>
        <pt x="395" y="253" on="1"/>
      </contour>
      <contour>
        <pt x="511" y="622" on="1"/>
        <pt x="460" y="368" on="1"/>
        <pt x="705" y="368" on="1"/>
        <pt x="697" y="331" on="1"/>
        <pt x="454" y="331" on="1"/>
        <pt x="394" y="37" on="1"/>
        <pt x="695" y="37" on="1"/>
        <pt x="687" y="0" on="1"/>
        <pt x="345" y="0" on="1"/>
        <pt x="388" y="217" on="1"/>
        <pt x="174" y="217" on="1"/>
        <pt x="18" y="0" on="1"/>
        <pt x="-32" y="0" on="1"/>
        <pt x="449" y="659" on="1"/>
        <pt x="810" y="659" on="1"/>
        <pt x="802" y="622" on="1"/>
      </contour>
    </TTGlyph>
    <TTGlyph name="Aacute" xMin="-48" yMin="0" xMax="460" yMax="813">
      <component glyphName="A" x="0" y="0" flags="0x204"/>
      <component glyphName="uni0301.cap" x="211" y="0" flags="0x4"/>
    </TTGlyph>
    <TTGlyph name="Abreve" xMin="-48" yMin="0" xMax="462" yMax="813">
      <component glyphName="A" x="0" y="0" flags="0x204"/>
      <component glyphName="uni0306.cap" x="211" y="0" flags="0x4"/>
    </TTGlyph>
    <TTGlyph name="Acircumflex" xMin="-48" yMin="0" xMax="445" yMax="813">
      <component glyphName="A" x="0" y="0" flags="0x204"/>
      <component glyphName="uni0302.cap" x="211" y="0" flags="0x4"/>
    </TTGlyph>
    <TTGlyph name="Adieresis" xMin="-48" yMin="0" xMax="454" yMax="795">
      <component glyphName="A" x="0" y="0" flags="0x204"/>
      <component glyphName="uni0308.cap" x="211" y="0" flags="0x4"/>
    </TTGlyph>
    <TTGlyph name="Agrave" xMin="-48" yMin="0" xMax="443" yMax="813">
      <component glyphName="A" x="0" y="0" flags="0x204"/>
      <component glyphName="uni0300.cap" x="211" y="0" flags="0x4"/>
    </TTGlyph>
    <TTGlyph name="Amacron" xMin="-48" yMin="0" xMax="455" yMax="768">
      <component glyphName="A" x="0" y="0" flags="0x204"/>
      <component glyphName="uni0304.cap" x="211" y="0" flags="0x4"/>
    </TTGlyph>
    <TTGlyph name="Aogonek" xMin="-48" yMin="-204" xMax="443" yMax="659">
      <contour>
        <pt x="370" y="264" on="1"/>
        <pt x="355" y="391" on="1"/>
        <pt x="350" y="446" on="0"/>
        <pt x="337" y="557" on="0"/>
        <pt x="332" y="616" on="1"/>
        <pt x="328" y="616" on="1"/>
        <pt x="299" y="556" on="0"/>
        <pt x="241" y="448" on="0"/>
        <pt x="210" y="391" on="1"/>
        <pt x="142" y="264" on="1"/>
      </contour>
      <contour>
        <pt x="443" y="0" on="1"/>
        <pt x="401" y="-29" on="0"/>
        <pt x="350" y="-97" on="0"/>
        <pt x="350" y="-130" on="1"/>
        <pt x="350" y="-149" on="0"/>
        <pt x="371" y="-171" on="0"/>
        <pt x="387" y="-171" on="1"/>
        <pt x="399" y="-171" on="0"/>
        <pt x="417" y="-165" on="0"/>
        <pt x="428" y="-159" on="1"/>
        <pt x="440" y="-187" on="1"/>
        <pt x="409" y="-204" on="0"/>
        <pt x="380" y="-204" on="1"/>
        <pt x="350" y="-204" on="0"/>
        <pt x="310" y="-173" on="0"/>
        <pt x="310" y="-141" on="1"/>
        <pt x="310" y="-121" on="0"/>
        <pt x="326" y="-81" on="0"/>
        <pt x="353" y="-45" on="0"/>
        <pt x="387" y="-12" on="0"/>
        <pt x="405" y="0" on="1"/>
        <pt x="400" y="0" on="1"/>
        <pt x="374" y="229" on="1"/>
        <pt x="123" y="229" on="1"/>
        <pt x="0" y="0" on="1"/>
        <pt x="-48" y="0" on="1"/>
        <pt x="315" y="659" on="1"/>
        <pt x="362" y="659" on="1"/>
      </contour>
    </TTGlyph>
    <TTGlyph name="Aring" xMin="-48" yMin="0" xMax="443" yMax="866">
      <component glyphName="A" x="0" y="0" flags="0x204"/>
      <component glyphName="uni030A.cap" x="211" y="0" flags="0x4"/>
    </TTGlyph>
    <TTGlyph name="Atilde" xMin="-48" yMin="0" xMax="476" yMax="806">
      <component glyphName="A" x="0" y="0" flags="0x204"/>
      <component glyphName="uni0303.cap" x="211" y="0" flags="0x4"/>
    </TTGlyph>
    <TTGlyph name="B" xMin="39" yMin="0" xMax="525" yMax="659">
      <contour>
        <pt x="170" y="659" on="1"/>
        <pt x="332" y="659" on="1"/>
        <pt x="425" y="659" on="0"/>
        <pt x="525" y="584" on="0"/>
        <pt x="525" y="516" on="1"/>
        <pt x="525" y="480" on="0"/>
        <pt x="497" y="422" on="0"/>
        <pt x="453" y="380" on="0"/>
        <pt x="400" y="355" on="0"/>
        <pt x="376" y="351" on="1"/>
        <pt x="376" y="347" on="1"/>
        <pt x="400" y="341" on="0"/>
        <pt x="445" y="319" on="0"/>
        <pt x="480" y="285" on="0"/>
        <pt x="500" y="238" on="0"/>
        <pt x="500" y="207" on="1"/>
        <pt x="500" y="154" on="0"/>
        <pt x="461" y="76" on="0"/>
        <pt x="391" y="25" on="0"/>
        <pt x="293" y="0" on="0"/>
        <pt x="234" y="0" on="1"/>
        <pt x="39" y="0" on="1"/>
      </contour>
      <contour>
        <pt x="266" y="367" on="1"/>
        <pt x="375" y="367" on="0"/>
        <pt x="482" y="448" on="0"/>
        <pt x="482" y="512" on="1"/>
        <pt x="482" y="565" on="0"/>
        <pt x="402" y="623" on="0"/>
        <pt x="315" y="623" on="1"/>
        <pt x="206" y="623" on="1"/>
        <pt x="154" y="367" on="1"/>
      </contour>
      <contour>
        <pt x="219" y="36" on="1"/>
        <pt x="273" y="36" on="0"/>
        <pt x="361" y="54" on="0"/>
        <pt x="424" y="94" on="0"/>
        <pt x="458" y="158" on="0"/>
        <pt x="458" y="204" on="1"/>
        <pt x="458" y="260" on="0"/>
        <pt x="367" y="332" on="0"/>
        <pt x="282" y="332" on="1"/>
        <pt x="148" y="332" on="1"/>
        <pt x="88" y="36" on="1"/>
      </contour>
    </TTGlyph>
    <TTGlyph name="C" xMin="58" yMin="-12" xMax="546" yMax="671">
      <contour>
        <pt x="58" y="248" on="1"/>
        <pt x="58" y="321" on="0"/>
        <pt x="104" y="472" on="0"/>
        <pt x="190" y="594" on="0"/>
        <pt x="314" y="671" on="0"/>
        <pt x="392" y="671" on="1"/>
        <pt x="448" y="671" on="0"/>
        <pt x="523" y="616" on="0"/>
        <pt x="546" y="578" on="1"/>
        <pt x="514" y="555" on="1"/>
        <pt x="494" y="589" on="0"/>
        <pt x="434" y="634" on="0"/>
        <pt x="389" y="634" on="1"/>
        <pt x="321" y="634" on="0"/>
        <pt x="214" y="562" on="0"/>
        <pt x="140" y="451" on="0"/>
        <pt x="101" y="317" on="0"/>
        <pt x="101" y="254" on="1"/>
        <pt x="101" y="205" on="0"/>
        <pt x="123" y="121" on="0"/>
        <pt x="168" y="60" on="0"/>
        <pt x="238" y="25" on="0"/>
        <pt x="286" y="25" on="1"/>
        <pt x="332" y="25" on="0"/>
        <pt x="406" y="59" on="0"/>
        <pt x="442" y="89" on="1"/>
        <pt x="465" y="61" on="1"/>
        <pt x="424" y="27" on="0"/>
        <pt x="337" y="-12" on="0"/>
        <pt x="281" y="-12" on="1"/>
        <pt x="225" y="-12" on="0"/>
        <pt x="142" y="27" on="0"/>
        <pt x="86" y="97" on="0"/>
        <pt x="58" y="192" on="0"/>
      </contour>
    </TTGlyph>
    <TTGlyph name="Cacute" xMin="58" yMin="-12" xMax="546" yMax="813">
      <component glyphName="C" x="0" y="0" flags="0x204"/>
      <component glyphName="uni0301.cap" x="275" y="0" flags="0x4"/>
    </TTGlyph>
    <TTGlyph name="Ccaron" xMin="58" yMin="-12" xMax="546" yMax="813">
      <component glyphName="C" x="0" y="0" flags="0x204"/>
      <component glyphName="uni030C.cap" x="275" y="0" flags="0x4"/>
    </TTGlyph>
    <TTGlyph name="Ccedilla" xMin="58" yMin="-209" xMax="546" yMax="671">
      <component glyphName="C" x="0" y="0" flags="0x204"/>
      <component glyphName="uni0327.cap" x="276" y="0" flags="0x4"/>
    </TTGlyph>
    <TTGlyph name="Ccircumflex" xMin="58" yMin="-12" xMax="546" yMax="813">
      <component glyphName="C" x="0" y="0" flags="0x204"/>
      <component glyphName="uni0302.cap" x="275" y="0" flags="0x4"/>
    </TTGlyph>
    <TTGlyph name="Cdotaccent" xMin="58" yMin="-12" xMax="546" yMax="801">
      <component glyphName="C" x="0" y="0" flags="0x204"/>
      <component glyphName="uni0307.cap" x="275" y="0" flags="0x4"/>
    </TTGlyph>
    <TTGlyph name="D" xMin="39" yMin="0" xMax="551" yMax="659">
      <contour>
        <pt x="170" y="659" on="1"/>
        <pt x="279" y="659" on="1"/>
        <pt x="347" y="659" on="0"/>
        <pt x="449" y="622" on="0"/>
        <pt x="517" y="555" on="0"/>
        <pt x="551" y="461" on="0"/>
        <pt x="551" y="403" on="1"/>
        <pt x="551" y="317" on="0"/>
        <pt x="505" y="170" on="0"/>
        <pt x="416" y="62" on="0"/>
        <pt x="285" y="0" on="0"/>
        <pt x="199" y="0" on="1"/>
        <pt x="39" y="0" on="1"/>
      </contour>
      <contour>
        <pt x="200" y="36" on="1"/>
        <pt x="273" y="36" on="0"/>
        <pt x="388" y="94" on="0"/>
        <pt x="467" y="193" on="0"/>
        <pt x="508" y="325" on="0"/>
        <pt x="508" y="400" on="1"/>
        <pt x="508" y="450" on="0"/>
        <pt x="479" y="532" on="0"/>
        <pt x="422" y="591" on="0"/>
        <pt x="335" y="623" on="0"/>
        <pt x="277" y="623" on="1"/>
        <pt x="205" y="623" on="1"/>
        <pt x="88" y="36" on="1"/>
      </contour>
    </TTGlyph>
    <TTGlyph name="Dcaron" xMin="39" yMin="0" xMax="551" yMax="813">
      <component glyphName="D" x="0" y="0" flags="0x204"/>
      <component glyphName="uni030C.cap" x="237" y="0" flags="0x4"/>
    </TTGlyph>
    <TTGlyph name="Dcroat" xMin="52" yMin="0" xMax="569" yMax="659">
      <component glyphName="Eth" x="0" y="0" flags="0x204"/>
    </TTGlyph>
    <TTGlyph name="E" xMin="39" yMin="0" xMax="518" yMax="659">
      <contour>
        <pt x="170" y="659" on="1"/>
        <pt x="518" y="659" on="1"/>
        <pt x="510" y="622" on="1"/>
        <pt x="205" y="622" on="1"/>
        <pt x="154" y="368" on="1"/>
        <pt x="412" y="368" on="1"/>
        <pt x="404" y="331" on="1"/>
        <pt x="148" y="331" on="1"/>
        <pt x="88" y="37" on="1"/>
        <pt x="402" y="37" on="1"/>
        <pt x="394" y="0" on="1"/>
        <pt x="39" y="0" on="1"/>
      </contour>
    </TTGlyph>
    <TTGlyph name="Eacute" xMin="39" yMin="0" xMax="518" yMax="813">
      <component glyphName="E" x="0" y="0" flags="0x204"/>
      <component glyphName="uni0301.cap" x="227" y="0" flags="0x4"/>
    </TTGlyph>
    <TTGlyph name="Ebreve" xMin="39" yMin="0" xMax="518" yMax="813">
      <component glyphName="E" x="0" y="0" flags="0x204"/>
      <component glyphName="uni0306.cap" x="227" y="0" flags="0x4"/>
    </TTGlyph>
    <TTGlyph name="Ecaron" xMin="39" yMin="0" xMax="518" yMax="813">
      <component glyphName="E" x="0" y="0" flags="0x204"/>
      <component glyphName="uni030C.cap" x="227" y="0" flags="0x4"/>
    </TTGlyph>
    <TTGlyph name="Ecircumflex" xMin="39" yMin="0" xMax="518" yMax="813">
      <component glyphName="E" x="0" y="0" flags="0x204"/>
      <component glyphName="uni0302.cap" x="227" y="0" flags="0x4"/>
    </TTGlyph>
    <TTGlyph name="Edieresis" xMin="39" yMin="0" xMax="518" yMax="795">
      <component glyphName="E" x="0" y="0" flags="0x204"/>
      <component glyphName="uni0308.cap" x="227" y="0" flags="0x4"/>
    </TTGlyph>
    <TTGlyph name="Edotaccent" xMin="39" yMin="0" xMax="518" yMax="801">
      <component glyphName="E" x="0" y="0" flags="0x204"/>
      <component glyphName="uni0307.cap" x="227" y="0" flags="0x4"/>
    </TTGlyph>
    <TTGlyph name="Egrave" xMin="39" yMin="0" xMax="518" yMax="813">
      <component glyphName="E" x="0" y="0" flags="0x204"/>
      <component glyphName="uni0300.cap" x="227" y="0" flags="0x4"/>
    </TTGlyph>
    <TTGlyph name="Emacron" xMin="39" yMin="0" xMax="518" yMax="768">
      <component glyphName="E" x="0" y="0" flags="0x204"/>
      <component glyphName="uni0304.cap" x="227" y="0" flags="0x4"/>
    </TTGlyph>
    <TTGlyph name="Eogonek" xMin="39" yMin="-204" xMax="518" yMax="659">
      <contour>
        <pt x="170" y="659" on="1"/>
        <pt x="518" y="659" on="1"/>
        <pt x="510" y="622" on="1"/>
        <pt x="205" y="622" on="1"/>
        <pt x="154" y="368" on="1"/>
        <pt x="412" y="368" on="1"/>
        <pt x="404" y="331" on="1"/>
        <pt x="148" y="331" on="1"/>
        <pt x="88" y="37" on="1"/>
        <pt x="402" y="37" on="1"/>
        <pt x="394" y="0" on="1"/>
        <pt x="371" y="-2" on="0"/>
        <pt x="328" y="-30" on="0"/>
        <pt x="295" y="-69" on="0"/>
        <pt x="275" y="-112" on="0"/>
        <pt x="275" y="-130" on="1"/>
        <pt x="275" y="-149" on="0"/>
        <pt x="296" y="-171" on="0"/>
        <pt x="312" y="-171" on="1"/>
        <pt x="324" y="-171" on="0"/>
        <pt x="342" y="-165" on="0"/>
        <pt x="353" y="-159" on="1"/>
        <pt x="365" y="-187" on="1"/>
        <pt x="334" y="-204" on="0"/>
        <pt x="305" y="-204" on="1"/>
        <pt x="275" y="-204" on="0"/>
        <pt x="235" y="-173" on="0"/>
        <pt x="235" y="-141" on="1"/>
        <pt x="235" y="-121" on="0"/>
        <pt x="252" y="-80" on="0"/>
        <pt x="279" y="-42" on="0"/>
        <pt x="312" y="-11" on="0"/>
        <pt x="328" y="0" on="1"/>
        <pt x="39" y="0" on="1"/>
      </contour>
    </TTGlyph>
    <TTGlyph name="Eth" xMin="52" yMin="0" xMax="569" yMax="659">
      <contour>
        <pt x="218" y="36" on="1"/>
        <pt x="291" y="36" on="0"/>
        <pt x="406" y="94" on="0"/>
        <pt x="485" y="193" on="0"/>
        <pt x="526" y="325" on="0"/>
        <pt x="526" y="400" on="1"/>
        <pt x="526" y="450" on="0"/>
        <pt x="497" y="532" on="0"/>
        <pt x="440" y="591" on="0"/>
        <pt x="353" y="623" on="0"/>
        <pt x="295" y="623" on="1"/>
        <pt x="223" y="623" on="1"/>
        <pt x="172" y="365" on="1"/>
        <pt x="336" y="365" on="1"/>
        <pt x="329" y="334" on="1"/>
        <pt x="165" y="334" on="1"/>
        <pt x="106" y="36" on="1"/>
      </contour>
      <contour>
        <pt x="297" y="659" on="1"/>
        <pt x="365" y="659" on="0"/>
        <pt x="467" y="622" on="0"/>
        <pt x="535" y="555" on="0"/>
        <pt x="569" y="461" on="0"/>
        <pt x="569" y="403" on="1"/>
        <pt x="569" y="317" on="0"/>
        <pt x="523" y="170" on="0"/>
        <pt x="434" y="62" on="0"/>
        <pt x="303" y="0" on="0"/>
        <pt x="217" y="0" on="1"/>
        <pt x="57" y="0" on="1"/>
        <pt x="123" y="334" on="1"/>
        <pt x="52" y="334" on="1"/>
        <pt x="59" y="363" on="1"/>
        <pt x="130" y="365" on="1"/>
        <pt x="188" y="659" on="1"/>
      </contour>
    </TTGlyph>
    <TTGlyph name="Euro" xMin="23" yMin="-12" xMax="502" yMax="652">
      <contour>
        <pt x="105" y="387" on="1"/>
        <pt x="121" y="445" on="0"/>
        <pt x="174" y="543" on="0"/>
        <pt x="242" y="613" on="0"/>
        <pt x="322" y="652" on="0"/>
        <pt x="365" y="652" on="1"/>
        <pt x="392" y="652" on="0"/>
        <pt x="435" y="636" on="0"/>
        <pt x="468" y="610" on="0"/>
        <pt x="493" y="575" on="0"/>
        <pt x="502" y="556" on="1"/>
        <pt x="469" y="536" on="1"/>
        <pt x="452" y="571" on="0"/>
        <pt x="404" y="616" on="0"/>
        <pt x="361" y="616" on="1"/>
        <pt x="326" y="616" on="0"/>
        <pt x="261" y="582" on="0"/>
        <pt x="205" y="522" on="0"/>
        <pt x="160" y="438" on="0"/>
        <pt x="146" y="388" on="1"/>
        <pt x="420" y="388" on="1"/>
        <pt x="413" y="359" on="1"/>
        <pt x="139" y="359" on="1"/>
        <pt x="130" y="320" on="0"/>
        <pt x="127" y="279" on="1"/>
        <pt x="360" y="279" on="1"/>
        <pt x="353" y="249" on="1"/>
        <pt x="126" y="249" on="1"/>
        <pt x="124" y="140" on="0"/>
        <pt x="201" y="24" on="0"/>
        <pt x="267" y="24" on="1"/>
        <pt x="309" y="24" on="0"/>
        <pt x="374" y="62" on="0"/>
        <pt x="401" y="88" on="1"/>
        <pt x="425" y="61" on="1"/>
        <pt x="393" y="30" on="0"/>
        <pt x="316" y="-12" on="0"/>
        <pt x="262" y="-12" on="1"/>
        <pt x="179" y="-12" on="0"/>
        <pt x="82" y="122" on="0"/>
        <pt x="85" y="249" on="1"/>
        <pt x="23" y="249" on="1"/>
        <pt x="30" y="275" on="1"/>
        <pt x="86" y="279" on="1"/>
        <pt x="89" y="320" on="0"/>
        <pt x="98" y="359" on="1"/>
        <pt x="44" y="359" on="1"/>
        <pt x="51" y="384" on="1"/>
      </contour>
    </TTGlyph>
    <TTGlyph name="F" xMin="39" yMin="0" xMax="518" yMax="659">
      <contour>
        <pt x="170" y="659" on="1"/>
        <pt x="518" y="659" on="1"/>
        <pt x="510" y="622" on="1"/>
        <pt x="205" y="622" on="1"/>
        <pt x="152" y="355" on="1"/>
        <pt x="410" y="355" on="1"/>
        <pt x="402" y="318" on="1"/>
        <pt x="146" y="318" on="1"/>
        <pt x="82" y="0" on="1"/>
        <pt x="39" y="0" on="1"/>
      </contour>
    </TTGlyph>
    <TTGlyph name="G" xMin="58" yMin="-12" xMax="557" yMax="671">
      <contour>
        <pt x="58" y="248" on="1"/>
        <pt x="58" y="323" on="0"/>
        <pt x="104" y="473" on="0"/>
        <pt x="191" y="595" on="0"/>
        <pt x="319" y="671" on="0"/>
        <pt x="402" y="671" on="1"/>
        <pt x="430" y="671" on="0"/>
        <pt x="477" y="656" on="0"/>
        <pt x="515" y="630" on="0"/>
        <pt x="545" y="597" on="0"/>
        <pt x="557" y="578" on="1"/>
        <pt x="525" y="555" on="1"/>
        <pt x="505" y="589" on="0"/>
        <pt x="444" y="634" on="0"/>
        <pt x="399" y="634" on="1"/>
        <pt x="328" y="634" on="0"/>
        <pt x="217" y="562" on="0"/>
        <pt x="141" y="451" on="0"/>
        <pt x="101" y="317" on="0"/>
        <pt x="101" y="254" on="1"/>
        <pt x="101" y="207" on="0"/>
        <pt x="122" y="123" on="0"/>
        <pt x="169" y="61" on="0"/>
        <pt x="243" y="25" on="0"/>
        <pt x="296" y="25" on="1"/>
        <pt x="341" y="25" on="0"/>
        <pt x="408" y="54" on="0"/>
        <pt x="431" y="75" on="1"/>
        <pt x="473" y="286" on="1"/>
        <pt x="321" y="286" on="1"/>
        <pt x="329" y="322" on="1"/>
        <pt x="522" y="322" on="1"/>
        <pt x="467" y="54" on="1"/>
        <pt x="432" y="24" on="0"/>
        <pt x="345" y="-12" on="0"/>
        <pt x="291" y="-12" on="1"/>
        <pt x="232" y="-12" on="0"/>
        <pt x="145" y="26" on="0"/>
        <pt x="87" y="95" on="0"/>
        <pt x="58" y="191" on="0"/>
      </contour>
    </TTGlyph>
    <TTGlyph name="Gbreve" xMin="58" yMin="-12" xMax="557" yMax="813">
      <component glyphName="G" x="0" y="0" flags="0x204"/>
      <component glyphName="uni0306.cap" x="273" y="0" flags="0x4"/>
    </TTGlyph>
    <TTGlyph name="Gcaron" xMin="58" yMin="-12" xMax="557" yMax="813">
      <component glyphName="G" x="0" y="0" flags="0x204"/>
      <component glyphName="uni030C.cap" x="273" y="0" flags="0x4"/>
    </TTGlyph>
    <TTGlyph name="Gcircumflex" xMin="58" yMin="-12" xMax="557" yMax="813">
      <component glyphName="G" x="0" y="0" flags="0x204"/>
      <component glyphName="uni0302.cap" x="273" y="0" flags="0x4"/>
    </TTGlyph>
    <TTGlyph name="Gdotaccent" xMin="58" yMin="-12" xMax="557" yMax="801">
      <component glyphName="G" x="0" y="0" flags="0x204"/>
      <component glyphName="uni0307.cap" x="273" y="0" flags="0x4"/>
    </TTGlyph>
    <TTGlyph name="H" xMin="39" yMin="0" xMax="596" yMax="659">
      <contour>
        <pt x="170" y="659" on="1"/>
        <pt x="213" y="659" on="1"/>
        <pt x="154" y="368" on="1"/>
        <pt x="494" y="368" on="1"/>
        <pt x="553" y="659" on="1"/>
        <pt x="596" y="659" on="1"/>
        <pt x="464" y="0" on="1"/>
        <pt x="421" y="0" on="1"/>
        <pt x="488" y="331" on="1"/>
        <pt x="148" y="331" on="1"/>
        <pt x="82" y="0" on="1"/>
        <pt x="39" y="0" on="1"/>
      </contour>
    </TTGlyph>
    <TTGlyph name="Hbar" xMin="51" yMin="0" xMax="658" yMax="659">
      <contour>
        <pt x="533" y="495" on="1"/>
        <pt x="193" y="495" on="1"/>
        <pt x="167" y="368" on="1"/>
        <pt x="507" y="368" on="1"/>
      </contour>
      <contour>
        <pt x="651" y="495" on="1"/>
        <pt x="576" y="495" on="1"/>
        <pt x="477" y="0" on="1"/>
        <pt x="434" y="0" on="1"/>
        <pt x="500" y="331" on="1"/>
        <pt x="161" y="331" on="1"/>
        <pt x="94" y="0" on="1"/>
        <pt x="51" y="0" on="1"/>
        <pt x="150" y="495" on="1"/>
        <pt x="79" y="495" on="1"/>
        <pt x="86" y="524" on="1"/>
        <pt x="156" y="526" on="1"/>
        <pt x="183" y="659" on="1"/>
        <pt x="226" y="659" on="1"/>
        <pt x="199" y="526" on="1"/>
        <pt x="539" y="526" on="1"/>
        <pt x="566" y="659" on="1"/>
        <pt x="609" y="659" on="1"/>
        <pt x="582" y="526" on="1"/>
        <pt x="658" y="526" on="1"/>
      </contour>
    </TTGlyph>
    <TTGlyph name="Hcircumflex" xMin="39" yMin="0" xMax="596" yMax="813">
      <component glyphName="H" x="0" y="0" flags="0x204"/>
      <component glyphName="uni0302.cap" x="255" y="0" flags="0x4"/>
    </TTGlyph>
    <TTGlyph name="I" xMin="39" yMin="0" xMax="213" yMax="659">
      <contour>
        <pt x="170" y="659" on="1"/>
        <pt x="213" y="659" on="1"/>
        <pt x="82" y="0" on="1"/>
        <pt x="39" y="0" on="1"/>
      </contour>
    </TTGlyph>
    <TTGlyph name="I.a" xMin="-8" yMin="0" xMax="340" yMax="659">
      <contour>
        <pt x="0" y="37" on="1"/>
        <pt x="84" y="37" on="1"/>
        <pt x="202" y="622" on="1"/>
        <pt x="116" y="622" on="1"/>
        <pt x="124" y="659" on="1"/>
        <pt x="340" y="659" on="1"/>
        <pt x="332" y="622" on="1"/>
        <pt x="245" y="622" on="1"/>
        <pt x="127" y="37" on="1"/>
        <pt x="215" y="37" on="1"/>
        <pt x="207" y="0" on="1"/>
        <pt x="-8" y="0" on="1"/>
      </contour>
    </TTGlyph>
    <TTGlyph name="Iacute" xMin="39" yMin="0" xMax="319" yMax="813">
      <component glyphName="I" x="0" y="0" flags="0x204"/>
      <component glyphName="uni0301.cap" x="70" y="0" flags="0x4"/>
    </TTGlyph>
    <TTGlyph name="Iacute.a" xMin="-8" yMin="0" xMax="353" yMax="813">
      <component glyphName="I.a" x="0" y="0" flags="0x204"/>
      <component glyphName="uni0301.cap" x="104" y="0" flags="0x4"/>
    </TTGlyph>
    <TTGlyph name="Icircumflex" xMin="39" yMin="0" xMax="304" yMax="813">
      <component glyphName="I" x="0" y="0" flags="0x204"/>
      <component glyphName="uni0302.cap" x="70" y="0" flags="0x4"/>
    </TTGlyph>
    <TTGlyph name="Icircumflex.a" xMin="-8" yMin="0" xMax="340" yMax="813">
      <component glyphName="I.a" x="0" y="0" flags="0x204"/>
      <component glyphName="uni0302.cap" x="104" y="0" flags="0x4"/>
    </TTGlyph>
    <TTGlyph name="Idieresis" xMin="39" yMin="0" xMax="313" yMax="795">
      <component glyphName="I" x="0" y="0" flags="0x204"/>
      <component glyphName="uni0308.cap" x="70" y="0" flags="0x4"/>
    </TTGlyph>
    <TTGlyph name="Idieresis.a" xMin="-8" yMin="0" xMax="347" yMax="795">
      <component glyphName="I.a" x="0" y="0" flags="0x204"/>
      <component glyphName="uni0308.cap" x="104" y="0" flags="0x4"/>
    </TTGlyph>
    <TTGlyph name="Idotaccent" xMin="39" yMin="0" xMax="242" yMax="801">
      <component glyphName="I" x="0" y="0" flags="0x204"/>
      <component glyphName="uni0307.cap" x="70" y="0" flags="0x4"/>
    </TTGlyph>
    <TTGlyph name="Idotaccent.a" xMin="-8" yMin="0" xMax="340" yMax="801">
      <component glyphName="I.a" x="0" y="0" flags="0x204"/>
      <component glyphName="uni0307.cap" x="104" y="0" flags="0x4"/>
    </TTGlyph>
    <TTGlyph name="Igrave" xMin="39" yMin="0" xMax="230" yMax="813">
      <component glyphName="I" x="0" y="0" flags="0x204"/>
      <component glyphName="uni0300.cap" x="70" y="0" flags="0x4"/>
    </TTGlyph>
    <TTGlyph name="Igrave.a" xMin="-8" yMin="0" xMax="340" yMax="813">
      <component glyphName="I.a" x="0" y="0" flags="0x204"/>
      <component glyphName="uni0300.cap" x="104" y="0" flags="0x4"/>
    </TTGlyph>
    <TTGlyph name="Imacron" xMin="39" yMin="0" xMax="314" yMax="768">
      <component glyphName="I" x="0" y="0" flags="0x204"/>
      <component glyphName="uni0304.cap" x="70" y="0" flags="0x4"/>
    </TTGlyph>
    <TTGlyph name="Imacron.a" xMin="-8" yMin="0" xMax="348" yMax="768">
      <component glyphName="I.a" x="0" y="0" flags="0x204"/>
      <component glyphName="uni0304.cap" x="104" y="0" flags="0x4"/>
    </TTGlyph>
    <TTGlyph name="Iogonek" xMin="-41" yMin="-204" xMax="213" yMax="659">
      <contour>
        <pt x="-2" y="-130" on="1"/>
        <pt x="-2" y="-149" on="0"/>
        <pt x="19" y="-171" on="0"/>
        <pt x="36" y="-171" on="1"/>
        <pt x="47" y="-171" on="0"/>
        <pt x="65" y="-165" on="0"/>
        <pt x="76" y="-159" on="1"/>
        <pt x="88" y="-183" on="1"/>
        <pt x="75" y="-193" on="0"/>
        <pt x="38" y="-204" on="0"/>
        <pt x="26" y="-204" on="1"/>
        <pt x="-3" y="-204" on="0"/>
        <pt x="-41" y="-173" on="0"/>
        <pt x="-41" y="-141" on="1"/>
        <pt x="-41" y="-121" on="0"/>
        <pt x="-24" y="-80" on="0"/>
        <pt x="1" y="-42" on="0"/>
        <pt x="31" y="-11" on="0"/>
        <pt x="44" y="0" on="1"/>
        <pt x="39" y="0" on="1"/>
        <pt x="170" y="659" on="1"/>
        <pt x="213" y="659" on="1"/>
        <pt x="82" y="0" on="1"/>
        <pt x="66" y="-13" on="0"/>
        <pt x="36" y="-45" on="0"/>
        <pt x="12" y="-79" on="0"/>
        <pt x="-2" y="-114" on="0"/>
      </contour>
    </TTGlyph>
    <TTGlyph name="Iogonek.a" xMin="-8" yMin="-204" xMax="340" yMax="659">
      <contour>
        <pt x="0" y="37" on="1"/>
        <pt x="84" y="37" on="1"/>
        <pt x="202" y="622" on="1"/>
        <pt x="116" y="622" on="1"/>
        <pt x="124" y="659" on="1"/>
        <pt x="340" y="659" on="1"/>
        <pt x="332" y="622" on="1"/>
        <pt x="245" y="622" on="1"/>
        <pt x="127" y="37" on="1"/>
        <pt x="215" y="37" on="1"/>
        <pt x="207" y="0" on="1"/>
        <pt x="121" y="0" on="1"/>
        <pt x="105" y="-13" on="0"/>
        <pt x="75" y="-45" on="0"/>
        <pt x="52" y="-79" on="0"/>
        <pt x="38" y="-114" on="0"/>
        <pt x="38" y="-130" on="1"/>
        <pt x="38" y="-149" on="0"/>
        <pt x="59" y="-171" on="0"/>
        <pt x="75" y="-171" on="1"/>
        <pt x="95" y="-171" on="0"/>
        <pt x="115" y="-159" on="1"/>
        <pt x="127" y="-183" on="1"/>
        <pt x="114" y="-193" on="0"/>
        <pt x="78" y="-204" on="0"/>
        <pt x="66" y="-204" on="1"/>
        <pt x="37" y="-204" on="0"/>
        <pt x="-2" y="-173" on="0"/>
        <pt x="-2" y="-141" on="1"/>
        <pt x="-2" y="-121" on="0"/>
        <pt x="15" y="-80" on="0"/>
        <pt x="40" y="-42" on="0"/>
        <pt x="70" y="-11" on="0"/>
        <pt x="84" y="0" on="1"/>
        <pt x="-8" y="0" on="1"/>
      </contour>
    </TTGlyph>
    <TTGlyph name="Itilde" xMin="39" yMin="0" xMax="335" yMax="806">
      <component glyphName="I" x="0" y="0" flags="0x204"/>
      <component glyphName="uni0303.cap" x="70" y="0" flags="0x4"/>
    </TTGlyph>
    <TTGlyph name="Itilde.a" xMin="-8" yMin="0" xMax="369" yMax="806">
      <component glyphName="I.a" x="0" y="0" flags="0x204"/>
      <component glyphName="uni0303.cap" x="104" y="0" flags="0x4"/>
    </TTGlyph>
    <TTGlyph name="J" xMin="1" yMin="-12" xMax="431" yMax="659">
      <contour>
        <pt x="334" y="172" on="1"/>
        <pt x="319" y="88" on="0"/>
        <pt x="225" y="-12" on="0"/>
        <pt x="150" y="-12" on="1"/>
        <pt x="90" y="-12" on="0"/>
        <pt x="18" y="45" on="0"/>
        <pt x="1" y="90" on="1"/>
        <pt x="34" y="110" on="1"/>
        <pt x="61" y="25" on="0"/>
        <pt x="151" y="25" on="1"/>
        <pt x="208" y="25" on="0"/>
        <pt x="278" y="108" on="0"/>
        <pt x="292" y="177" on="1"/>
        <pt x="388" y="659" on="1"/>
        <pt x="431" y="659" on="1"/>
        <pt x="334" y="172" on="1"/>
      </contour>
    </TTGlyph>
    <TTGlyph name="Jcircumflex" xMin="1" yMin="-12" xMax="522" yMax="813">
      <component glyphName="J" x="0" y="0" flags="0x204"/>
      <component glyphName="uni0302.cap" x="288" y="0" flags="0x4"/>
    </TTGlyph>
    <TTGlyph name="K" xMin="39" yMin="0" xMax="573" yMax="659">
      <contour>
        <pt x="170" y="659" on="1"/>
        <pt x="213" y="659" on="1"/>
        <pt x="142" y="301" on="1"/>
        <pt x="144" y="301" on="1"/>
        <pt x="522" y="659" on="1"/>
        <pt x="573" y="659" on="1"/>
        <pt x="323" y="416" on="1"/>
        <pt x="474" y="0" on="1"/>
        <pt x="429" y="0" on="1"/>
        <pt x="290" y="388" on="1"/>
        <pt x="130" y="238" on="1"/>
        <pt x="82" y="0" on="1"/>
        <pt x="39" y="0" on="1"/>
      </contour>
    </TTGlyph>
    <TTGlyph name="L" xMin="39" yMin="0" xMax="383" yMax="659">
      <contour>
        <pt x="170" y="659" on="1"/>
        <pt x="213" y="659" on="1"/>
        <pt x="90" y="37" on="1"/>
        <pt x="383" y="37" on="1"/>
        <pt x="375" y="0" on="1"/>
        <pt x="39" y="0" on="1"/>
      </contour>
    </TTGlyph>
    <TTGlyph name="Lacute" xMin="39" yMin="0" xMax="383" yMax="813">
      <component glyphName="L" x="0" y="0" flags="0x204"/>
      <component glyphName="uni0301.cap" x="72" y="0" flags="0x4"/>
    </TTGlyph>
    <TTGlyph name="Lcaron" xMin="39" yMin="0" xMax="433" yMax="722">
      <component glyphName="L" x="0" y="0" flags="0x204"/>
      <component glyphName="uni030C.a" x="331" y="-32" flags="0x4"/>
    </TTGlyph>
    <TTGlyph name="Ldot" xMin="39" yMin="0" xMax="392" yMax="659">
      <component glyphName="L" x="0" y="0" flags="0x204"/>
      <component glyphName="period" x="290" y="298" flags="0x4"/>
    </TTGlyph>
    <TTGlyph name="Lslash" xMin="-3" yMin="0" xMax="383" yMax="659">
      <contour>
        <pt x="383" y="37" on="1"/>
        <pt x="375" y="0" on="1"/>
        <pt x="39" y="0" on="1"/>
        <pt x="89" y="253" on="1"/>
        <pt x="-3" y="210" on="1"/>
        <pt x="5" y="252" on="1"/>
        <pt x="98" y="296" on="1"/>
        <pt x="170" y="659" on="1"/>
        <pt x="213" y="659" on="1"/>
        <pt x="145" y="318" on="1"/>
        <pt x="353" y="417" on="1"/>
        <pt x="345" y="375" on="1"/>
        <pt x="137" y="275" on="1"/>
        <pt x="90" y="37" on="1"/>
      </contour>
    </TTGlyph>
    <TTGlyph name="M" xMin="39" yMin="0" xMax="675" yMax="659">
      <contour>
        <pt x="170" y="659" on="1"/>
        <pt x="232" y="659" on="1"/>
        <pt x="296" y="273" on="1"/>
        <pt x="321" y="127" on="1"/>
        <pt x="325" y="127" on="1"/>
        <pt x="400" y="273" on="1"/>
        <pt x="614" y="659" on="1"/>
        <pt x="675" y="659" on="1"/>
        <pt x="543" y="0" on="1"/>
        <pt x="501" y="0" on="1"/>
        <pt x="589" y="436" on="1"/>
        <pt x="598" y="478" on="0"/>
        <pt x="619" y="573" on="0"/>
        <pt x="629" y="613" on="1"/>
        <pt x="625" y="613" on="1"/>
        <pt x="547" y="470" on="1"/>
        <pt x="330" y="74" on="1"/>
        <pt x="293" y="74" on="1"/>
        <pt x="224" y="470" on="1"/>
        <pt x="201" y="613" on="1"/>
        <pt x="197" y="613" on="1"/>
        <pt x="189" y="571" on="0"/>
        <pt x="175" y="478" on="0"/>
        <pt x="167" y="436" on="1"/>
        <pt x="80" y="0" on="1"/>
        <pt x="39" y="0" on="1"/>
      </contour>
    </TTGlyph>
    <TTGlyph name="N" xMin="39" yMin="0" xMax="597" yMax="659">
      <contour>
        <pt x="170" y="659" on="1"/>
        <pt x="216" y="659" on="1"/>
        <pt x="391" y="191" on="1"/>
        <pt x="437" y="57" on="1"/>
        <pt x="441" y="57" on="1"/>
        <pt x="449" y="105" on="0"/>
        <pt x="463" y="203" on="0"/>
        <pt x="473" y="251" on="1"/>
        <pt x="554" y="659" on="1"/>
        <pt x="597" y="659" on="1"/>
        <pt x="465" y="0" on="1"/>
        <pt x="421" y="0" on="1"/>
        <pt x="248" y="466" on="1"/>
        <pt x="200" y="605" on="1"/>
        <pt x="196" y="605" on="1"/>
        <pt x="188" y="556" on="0"/>
        <pt x="172" y="460" on="0"/>
        <pt x="162" y="413" on="1"/>
        <pt x="81" y="0" on="1"/>
        <pt x="39" y="0" on="1"/>
      </contour>
    </TTGlyph>
    <TTGlyph name="Nacute" xMin="39" yMin="0" xMax="597" yMax="813">
      <component glyphName="N" x="0" y="0" flags="0x204"/>
      <component glyphName="uni0301.cap" x="263" y="0" flags="0x4"/>
    </TTGlyph>
    <TTGlyph name="Ncaron" xMin="39" yMin="0" xMax="597" yMax="813">
      <component glyphName="N" x="0" y="0" flags="0x204"/>
      <component glyphName="uni030C.cap" x="263" y="0" flags="0x4"/>
    </TTGlyph>
    <TTGlyph name="Ntilde" xMin="39" yMin="0" xMax="597" yMax="806">
      <component glyphName="N" x="0" y="0" flags="0x204"/>
      <component glyphName="uni0303.cap" x="263" y="0" flags="0x4"/>
    </TTGlyph>
    <TTGlyph name="O" xMin="61" yMin="-12" xMax="590" yMax="671">
      <contour>
        <pt x="277" y="-12" on="1"/>
        <pt x="223" y="-12" on="0"/>
        <pt x="142" y="28" on="0"/>
        <pt x="88" y="101" on="0"/>
        <pt x="61" y="202" on="0"/>
        <pt x="61" y="262" on="1"/>
        <pt x="61" y="308" on="0"/>
        <pt x="80" y="404" on="0"/>
        <pt x="117" y="495" on="0"/>
        <pt x="171" y="575" on="0"/>
        <pt x="241" y="636" on="0"/>
        <pt x="325" y="671" on="0"/>
        <pt x="374" y="671" on="1"/>
        <pt x="428" y="671" on="0"/>
        <pt x="509" y="631" on="0"/>
        <pt x="563" y="558" on="0"/>
        <pt x="590" y="457" on="0"/>
        <pt x="590" y="397" on="1"/>
        <pt x="590" y="351" on="0"/>
        <pt x="571" y="255" on="0"/>
        <pt x="534" y="164" on="0"/>
        <pt x="480" y="84" on="0"/>
        <pt x="410" y="23" on="0"/>
        <pt x="326" y="-12" on="0"/>
      </contour>
      <contour>
        <pt x="371" y="634" on="1"/>
        <pt x="308" y="634" on="0"/>
        <pt x="209" y="563" on="0"/>
        <pt x="141" y="454" on="0"/>
        <pt x="105" y="325" on="0"/>
        <pt x="105" y="267" on="1"/>
        <pt x="105" y="213" on="0"/>
        <pt x="125" y="124" on="0"/>
        <pt x="168" y="60" on="0"/>
        <pt x="234" y="25" on="0"/>
        <pt x="280" y="25" on="1"/>
        <pt x="343" y="25" on="0"/>
        <pt x="443" y="96" on="0"/>
        <pt x="511" y="205" on="0"/>
        <pt x="547" y="334" on="0"/>
        <pt x="547" y="392" on="1"/>
        <pt x="547" y="446" on="0"/>
        <pt x="527" y="535" on="0"/>
        <pt x="484" y="599" on="0"/>
        <pt x="417" y="634" on="0"/>
      </contour>
    </TTGlyph>
    <TTGlyph name="OE" xMin="61" yMin="0" xMax="834" yMax="659">
      <contour>
        <pt x="61" y="256" on="1"/>
        <pt x="61" y="341" on="0"/>
        <pt x="107" y="489" on="0"/>
        <pt x="196" y="597" on="0"/>
        <pt x="328" y="659" on="0"/>
        <pt x="414" y="659" on="1"/>
        <pt x="834" y="659" on="1"/>
        <pt x="826" y="622" on="1"/>
        <pt x="544" y="622" on="1"/>
        <pt x="494" y="368" on="1"/>
        <pt x="729" y="368" on="1"/>
        <pt x="721" y="331" on="1"/>
        <pt x="487" y="331" on="1"/>
        <pt x="427" y="37" on="1"/>
        <pt x="719" y="37" on="1"/>
        <pt x="711" y="0" on="1"/>
        <pt x="334" y="0" on="1"/>
        <pt x="266" y="0" on="0"/>
        <pt x="163" y="37" on="0"/>
        <pt x="95" y="104" on="0"/>
        <pt x="61" y="198" on="0"/>
      </contour>
      <contour>
        <pt x="413" y="623" on="1"/>
        <pt x="339" y="623" on="0"/>
        <pt x="225" y="565" on="0"/>
        <pt x="146" y="466" on="0"/>
        <pt x="105" y="334" on="0"/>
        <pt x="105" y="259" on="1"/>
        <pt x="105" y="209" on="0"/>
        <pt x="134" y="127" on="0"/>
        <pt x="191" y="68" on="0"/>
        <pt x="278" y="36" on="0"/>
        <pt x="336" y="36" on="1"/>
        <pt x="386" y="36" on="1"/>
        <pt x="503" y="623" on="1"/>
      </contour>
    </TTGlyph>
    <TTGlyph name="Oacute" xMin="61" yMin="-12" xMax="590" yMax="813">
      <component glyphName="O" x="0" y="0" flags="0x204"/>
      <component glyphName="uni0301.cap" x="273" y="0" flags="0x4"/>
    </TTGlyph>
    <TTGlyph name="Ocircumflex" xMin="61" yMin="-12" xMax="590" yMax="813">
      <component glyphName="O" x="0" y="0" flags="0x204"/>
      <component glyphName="uni0302.cap" x="273" y="0" flags="0x4"/>
    </TTGlyph>
    <TTGlyph name="Odieresis" xMin="61" yMin="-12" xMax="590" yMax="795">
      <component glyphName="O" x="0" y="0" flags="0x204"/>
      <component glyphName="uni0308.cap" x="273" y="0" flags="0x4"/>
    </TTGlyph>
    <TTGlyph name="Ograve" xMin="61" yMin="-12" xMax="590" yMax="813">
      <component glyphName="O" x="0" y="0" flags="0x204"/>
      <component glyphName="uni0300.cap" x="273" y="0" flags="0x4"/>
    </TTGlyph>
    <TTGlyph name="Ohorn" xMin="61" yMin="-12" xMax="637" yMax="760">
      <contour>
        <pt x="280" y="25" on="1"/>
        <pt x="343" y="25" on="0"/>
        <pt x="443" y="96" on="0"/>
        <pt x="511" y="205" on="0"/>
        <pt x="547" y="334" on="0"/>
        <pt x="547" y="392" on="1"/>
        <pt x="547" y="446" on="0"/>
        <pt x="527" y="535" on="0"/>
        <pt x="484" y="599" on="0"/>
        <pt x="417" y="634" on="0"/>
        <pt x="371" y="634" on="1"/>
        <pt x="308" y="634" on="0"/>
        <pt x="209" y="563" on="0"/>
        <pt x="141" y="454" on="0"/>
        <pt x="105" y="325" on="0"/>
        <pt x="105" y="267" on="1"/>
        <pt x="105" y="213" on="0"/>
        <pt x="125" y="124" on="0"/>
        <pt x="168" y="60" on="0"/>
        <pt x="234" y="25" on="0"/>
      </contour>
      <contour>
        <pt x="628" y="760" on="1"/>
        <pt x="633" y="749" on="0"/>
        <pt x="637" y="731" on="0"/>
        <pt x="637" y="721" on="1"/>
        <pt x="637" y="680" on="0"/>
        <pt x="574" y="621" on="0"/>
        <pt x="522" y="612" on="1"/>
        <pt x="556" y="575" on="0"/>
        <pt x="590" y="466" on="0"/>
        <pt x="590" y="397" on="1"/>
        <pt x="590" y="351" on="0"/>
        <pt x="571" y="255" on="0"/>
        <pt x="534" y="164" on="0"/>
        <pt x="480" y="84" on="0"/>
        <pt x="410" y="23" on="0"/>
        <pt x="326" y="-12" on="0"/>
        <pt x="277" y="-12" on="1"/>
        <pt x="223" y="-12" on="0"/>
        <pt x="142" y="28" on="0"/>
        <pt x="88" y="101" on="0"/>
        <pt x="61" y="202" on="0"/>
        <pt x="61" y="262" on="1"/>
        <pt x="61" y="308" on="0"/>
        <pt x="80" y="404" on="0"/>
        <pt x="117" y="495" on="0"/>
        <pt x="171" y="575" on="0"/>
        <pt x="241" y="636" on="0"/>
        <pt x="325" y="671" on="0"/>
        <pt x="374" y="671" on="1"/>
        <pt x="441" y="671" on="0"/>
        <pt x="490" y="639" on="1"/>
        <pt x="535" y="641" on="0"/>
        <pt x="597" y="680" on="0"/>
        <pt x="597" y="715" on="1"/>
        <pt x="597" y="723" on="0"/>
        <pt x="596" y="735" on="0"/>
        <pt x="593" y="746" on="1"/>
      </contour>
    </TTGlyph>
    <TTGlyph name="Ohungarumlaut" xMin="61" yMin="-12" xMax="590" yMax="815">
      <component glyphName="O" x="0" y="0" flags="0x204"/>
      <component glyphName="uni030B.cap" x="273" y="0" flags="0x4"/>
    </TTGlyph>
    <TTGlyph name="Omacron" xMin="61" yMin="-12" xMax="590" yMax="768">
      <component glyphName="O" x="0" y="0" flags="0x204"/>
      <component glyphName="uni0304.cap" x="273" y="0" flags="0x4"/>
    </TTGlyph>
    <TTGlyph name="Oslash" xMin="1" yMin="-24" xMax="650" yMax="680">
      <contour>
        <pt x="141" y="101" on="1"/>
        <pt x="162" y="65" on="0"/>
        <pt x="231" y="25" on="0"/>
        <pt x="280" y="25" on="1"/>
        <pt x="343" y="25" on="0"/>
        <pt x="443" y="96" on="0"/>
        <pt x="511" y="205" on="0"/>
        <pt x="547" y="334" on="0"/>
        <pt x="547" y="392" on="1"/>
        <pt x="547" y="430" on="0"/>
        <pt x="538" y="495" on="0"/>
        <pt x="527" y="523" on="1"/>
      </contour>
      <contour>
        <pt x="513" y="554" on="1"/>
        <pt x="492" y="592" on="0"/>
        <pt x="422" y="634" on="0"/>
        <pt x="371" y="634" on="1"/>
        <pt x="308" y="634" on="0"/>
        <pt x="209" y="563" on="0"/>
        <pt x="141" y="454" on="0"/>
        <pt x="105" y="325" on="0"/>
        <pt x="105" y="267" on="1"/>
        <pt x="105" y="190" on="0"/>
        <pt x="126" y="133" on="1"/>
      </contour>
      <contour>
        <pt x="558" y="558" on="1"/>
        <pt x="575" y="525" on="0"/>
        <pt x="590" y="444" on="0"/>
        <pt x="590" y="397" on="1"/>
        <pt x="590" y="351" on="0"/>
        <pt x="571" y="255" on="0"/>
        <pt x="534" y="164" on="0"/>
        <pt x="480" y="84" on="0"/>
        <pt x="410" y="23" on="0"/>
        <pt x="326" y="-12" on="0"/>
        <pt x="277" y="-12" on="1"/>
        <pt x="221" y="-12" on="0"/>
        <pt x="139" y="31" on="0"/>
        <pt x="112" y="69" on="1"/>
        <pt x="27" y="-24" on="1"/>
        <pt x="1" y="-2" on="1"/>
        <pt x="94" y="99" on="1"/>
        <pt x="61" y="165" on="0"/>
        <pt x="61" y="262" on="1"/>
        <pt x="61" y="308" on="0"/>
        <pt x="80" y="404" on="0"/>
        <pt x="117" y="495" on="0"/>
        <pt x="171" y="575" on="0"/>
        <pt x="241" y="636" on="0"/>
        <pt x="325" y="671" on="0"/>
        <pt x="374" y="671" on="1"/>
        <pt x="432" y="671" on="0"/>
        <pt x="516" y="626" on="0"/>
        <pt x="542" y="586" on="1"/>
        <pt x="629" y="680" on="1"/>
        <pt x="650" y="658" on="1"/>
      </contour>
    </TTGlyph>
    <TTGlyph name="Otilde" xMin="61" yMin="-12" xMax="590" yMax="806">
      <component glyphName="O" x="0" y="0" flags="0x204"/>
      <component glyphName="uni0303.cap" x="273" y="0" flags="0x4"/>
    </TTGlyph>
    <TTGlyph name="P" xMin="39" yMin="0" xMax="539" yMax="659">
      <contour>
        <pt x="170" y="659" on="1"/>
        <pt x="343" y="659" on="1"/>
        <pt x="434" y="659" on="0"/>
        <pt x="539" y="586" on="0"/>
        <pt x="539" y="506" on="1"/>
        <pt x="539" y="450" on="0"/>
        <pt x="499" y="368" on="0"/>
        <pt x="426" y="313" on="0"/>
        <pt x="323" y="286" on="0"/>
        <pt x="260" y="286" on="1"/>
        <pt x="138" y="286" on="1"/>
        <pt x="82" y="0" on="1"/>
        <pt x="39" y="0" on="1"/>
      </contour>
      <contour>
        <pt x="256" y="322" on="1"/>
        <pt x="375" y="322" on="0"/>
        <pt x="496" y="412" on="0"/>
        <pt x="496" y="502" on="1"/>
        <pt x="496" y="567" on="0"/>
        <pt x="410" y="623" on="0"/>
        <pt x="325" y="623" on="1"/>
        <pt x="205" y="623" on="1"/>
        <pt x="146" y="322" on="1"/>
      </contour>
    </TTGlyph>
    <TTGlyph name="Q" xMin="61" yMin="-153" xMax="590" yMax="671">
      <contour>
        <pt x="105" y="267" on="1"/>
        <pt x="105" y="213" on="0"/>
        <pt x="125" y="124" on="0"/>
        <pt x="168" y="60" on="0"/>
        <pt x="234" y="25" on="0"/>
        <pt x="280" y="25" on="1"/>
        <pt x="343" y="25" on="0"/>
        <pt x="443" y="96" on="0"/>
        <pt x="511" y="205" on="0"/>
        <pt x="547" y="334" on="0"/>
        <pt x="547" y="392" on="1"/>
        <pt x="547" y="446" on="0"/>
        <pt x="527" y="535" on="0"/>
        <pt x="484" y="599" on="0"/>
        <pt x="417" y="634" on="0"/>
        <pt x="371" y="634" on="1"/>
        <pt x="308" y="634" on="0"/>
        <pt x="209" y="563" on="0"/>
        <pt x="141" y="454" on="0"/>
        <pt x="105" y="325" on="0"/>
      </contour>
      <contour>
        <pt x="501" y="-146" on="1"/>
        <pt x="474" y="-153" on="0"/>
        <pt x="445" y="-153" on="1"/>
        <pt x="372" y="-153" on="0"/>
        <pt x="260" y="-84" on="0"/>
        <pt x="241" y="-9" on="1"/>
        <pt x="196" y="-3" on="0"/>
        <pt x="128" y="42" on="0"/>
        <pt x="83" y="113" on="0"/>
        <pt x="61" y="207" on="0"/>
        <pt x="61" y="262" on="1"/>
        <pt x="61" y="308" on="0"/>
        <pt x="80" y="404" on="0"/>
        <pt x="117" y="495" on="0"/>
        <pt x="171" y="575" on="0"/>
        <pt x="241" y="636" on="0"/>
        <pt x="325" y="671" on="0"/>
        <pt x="374" y="671" on="1"/>
        <pt x="428" y="671" on="0"/>
        <pt x="509" y="631" on="0"/>
        <pt x="563" y="558" on="0"/>
        <pt x="590" y="457" on="0"/>
        <pt x="590" y="397" on="1"/>
        <pt x="590" y="329" on="0"/>
        <pt x="548" y="186" on="0"/>
        <pt x="470" y="67" on="0"/>
        <pt x="356" y="-10" on="0"/>
        <pt x="284" y="-12" on="1"/>
        <pt x="299" y="-65" on="0"/>
        <pt x="388" y="-115" on="0"/>
        <pt x="448" y="-115" on="1"/>
        <pt x="472" y="-115" on="0"/>
        <pt x="496" y="-109" on="1"/>
      </contour>
    </TTGlyph>
    <TTGlyph name="R" xMin="39" yMin="0" xMax="530" yMax="659">
      <contour>
        <pt x="265" y="337" on="1"/>
        <pt x="372" y="337" on="0"/>
        <pt x="487" y="429" on="0"/>
        <pt x="487" y="510" on="1"/>
        <pt x="487" y="572" on="0"/>
        <pt x="402" y="623" on="0"/>
        <pt x="317" y="623" on="1"/>
        <pt x="205" y="623" on="1"/>
        <pt x="150" y="337" on="1"/>
      </contour>
      <contour>
        <pt x="336" y="659" on="1"/>
        <pt x="425" y="659" on="0"/>
        <pt x="530" y="591" on="0"/>
        <pt x="530" y="514" on="1"/>
        <pt x="530" y="469" on="0"/>
        <pt x="499" y="397" on="0"/>
        <pt x="443" y="343" on="0"/>
        <pt x="366" y="309" on="0"/>
        <pt x="320" y="304" on="1"/>
        <pt x="445" y="0" on="1"/>
        <pt x="397" y="0" on="1"/>
        <pt x="275" y="301" on="1"/>
        <pt x="142" y="301" on="1"/>
        <pt x="82" y="0" on="1"/>
        <pt x="39" y="0" on="1"/>
        <pt x="170" y="659" on="1"/>
      </contour>
    </TTGlyph>
    <TTGlyph name="Racute" xMin="39" yMin="0" xMax="530" yMax="813">
      <component glyphName="R" x="0" y="0" flags="0x204"/>
      <component glyphName="uni0301.cap" x="229" y="0" flags="0x4"/>
    </TTGlyph>
    <TTGlyph name="Rcaron" xMin="39" yMin="0" xMax="530" yMax="813">
      <component glyphName="R" x="0" y="0" flags="0x204"/>
      <component glyphName="uni030C.cap" x="229" y="0" flags="0x4"/>
    </TTGlyph>
    <TTGlyph name="S" xMin="16" yMin="-12" xMax="495" yMax="671">
      <contour>
        <pt x="49" y="123" on="1"/>
        <pt x="81" y="76" on="0"/>
        <pt x="170" y="25" on="0"/>
        <pt x="232" y="25" on="1"/>
        <pt x="268" y="25" on="0"/>
        <pt x="329" y="47" on="0"/>
        <pt x="374" y="86" on="0"/>
        <pt x="400" y="142" on="0"/>
        <pt x="400" y="177" on="1"/>
        <pt x="400" y="219" on="0"/>
        <pt x="353" y="278" on="0"/>
        <pt x="315" y="300" on="1"/>
        <pt x="230" y="351" on="1"/>
        <pt x="210" y="363" on="0"/>
        <pt x="172" y="393" on="0"/>
        <pt x="144" y="429" on="0"/>
        <pt x="127" y="474" on="0"/>
        <pt x="127" y="501" on="1"/>
        <pt x="127" y="535" on="0"/>
        <pt x="155" y="596" on="0"/>
        <pt x="205" y="643" on="0"/>
        <pt x="275" y="671" on="0"/>
        <pt x="317" y="671" on="1"/>
        <pt x="377" y="671" on="0"/>
        <pt x="468" y="619" on="0"/>
        <pt x="495" y="582" on="1"/>
        <pt x="465" y="556" on="1"/>
        <pt x="440" y="588" on="0"/>
        <pt x="363" y="634" on="0"/>
        <pt x="311" y="634" on="1"/>
        <pt x="279" y="634" on="0"/>
        <pt x="227" y="611" on="0"/>
        <pt x="191" y="575" on="0"/>
        <pt x="171" y="529" on="0"/>
        <pt x="171" y="506" on="1"/>
        <pt x="171" y="460" on="0"/>
        <pt x="223" y="405" on="0"/>
        <pt x="258" y="385" on="1"/>
        <pt x="341" y="337" on="1"/>
        <pt x="388" y="309" on="0"/>
        <pt x="444" y="237" on="0"/>
        <pt x="444" y="182" on="1"/>
        <pt x="444" y="138" on="0"/>
        <pt x="411" y="67" on="0"/>
        <pt x="353" y="16" on="0"/>
        <pt x="273" y="-12" on="0"/>
        <pt x="227" y="-12" on="1"/>
        <pt x="158" y="-12" on="0"/>
        <pt x="51" y="45" on="0"/>
        <pt x="16" y="100" on="1"/>
      </contour>
    </TTGlyph>
    <TTGlyph name="Sacute" xMin="16" yMin="-12" xMax="495" yMax="813">
      <component glyphName="S" x="0" y="0" flags="0x204"/>
      <component glyphName="uni0301.cap" x="216" y="0" flags="0x4"/>
    </TTGlyph>
    <TTGlyph name="Scaron" xMin="16" yMin="-12" xMax="495" yMax="813">
      <component glyphName="S" x="0" y="0" flags="0x204"/>
      <component glyphName="uni030C.cap" x="216" y="0" flags="0x4"/>
    </TTGlyph>
    <TTGlyph name="Scircumflex" xMin="16" yMin="-12" xMax="495" yMax="813">
      <component glyphName="S" x="0" y="0" flags="0x204"/>
      <component glyphName="uni0302.cap" x="216" y="0" flags="0x4"/>
    </TTGlyph>
    <TTGlyph name="T" xMin="98" yMin="0" xMax="553" yMax="659">
      <contour>
        <pt x="300" y="620" on="1"/>
        <pt x="98" y="620" on="1"/>
        <pt x="106" y="659" on="1"/>
        <pt x="553" y="659" on="1"/>
        <pt x="545" y="620" on="1"/>
        <pt x="343" y="620" on="1"/>
        <pt x="219" y="0" on="1"/>
        <pt x="176" y="0" on="1"/>
      </contour>
    </TTGlyph>
    <TTGlyph name="Tcaron" xMin="98" yMin="0" xMax="553" yMax="813">
      <component glyphName="T" x="0" y="0" flags="0x204"/>
      <component glyphName="uni030C.cap" x="203" y="0" flags="0x4"/>
    </TTGlyph>
    <TTGlyph name="Thorn" xMin="39" yMin="0" xMax="514" yMax="660">
      <contour>
        <pt x="170" y="660" on="1"/>
        <pt x="213" y="660" on="1"/>
        <pt x="190" y="538" on="1"/>
        <pt x="320" y="538" on="1"/>
        <pt x="411" y="538" on="0"/>
        <pt x="514" y="466" on="0"/>
        <pt x="514" y="386" on="1"/>
        <pt x="514" y="330" on="0"/>
        <pt x="474" y="247" on="0"/>
        <pt x="401" y="192" on="0"/>
        <pt x="298" y="165" on="0"/>
        <pt x="235" y="165" on="1"/>
        <pt x="114" y="165" on="1"/>
        <pt x="81" y="0" on="1"/>
        <pt x="39" y="0" on="1"/>
      </contour>
      <contour>
        <pt x="231" y="201" on="1"/>
        <pt x="350" y="201" on="0"/>
        <pt x="471" y="292" on="0"/>
        <pt x="471" y="381" on="1"/>
        <pt x="471" y="447" on="0"/>
        <pt x="385" y="502" on="0"/>
        <pt x="301" y="502" on="1"/>
        <pt x="182" y="502" on="1"/>
        <pt x="122" y="201" on="1"/>
      </contour>
    </TTGlyph>
    <TTGlyph name="U" xMin="81" yMin="-12" xMax="594" yMax="659">
      <contour>
        <pt x="168" y="659" on="1"/>
        <pt x="211" y="659" on="1"/>
        <pt x="134" y="273" on="1"/>
        <pt x="128" y="250" on="0"/>
        <pt x="124" y="210" on="0"/>
        <pt x="124" y="192" on="1"/>
        <pt x="124" y="112" on="0"/>
        <pt x="200" y="25" on="0"/>
        <pt x="277" y="25" on="1"/>
        <pt x="308" y="25" on="0"/>
        <pt x="367" y="49" on="0"/>
        <pt x="417" y="101" on="0"/>
        <pt x="456" y="183" on="0"/>
        <pt x="468" y="242" on="1"/>
        <pt x="551" y="659" on="1"/>
        <pt x="594" y="659" on="1"/>
        <pt x="509" y="236" on="1"/>
        <pt x="495" y="167" on="0"/>
        <pt x="447" y="73" on="0"/>
        <pt x="386" y="14" on="0"/>
        <pt x="312" y="-12" on="0"/>
        <pt x="273" y="-12" on="1"/>
        <pt x="182" y="-12" on="0"/>
        <pt x="81" y="89" on="0"/>
        <pt x="81" y="184" on="1"/>
        <pt x="81" y="204" on="0"/>
        <pt x="85" y="245" on="0"/>
        <pt x="90" y="269" on="1"/>
      </contour>
    </TTGlyph>
    <TTGlyph name="Uacute" xMin="81" yMin="-12" xMax="594" yMax="813">
      <component glyphName="U" x="0" y="0" flags="0x204"/>
      <component glyphName="uni0301.cap" x="261" y="0" flags="0x4"/>
    </TTGlyph>
    <TTGlyph name="Ubreve" xMin="81" yMin="-12" xMax="594" yMax="813">
      <component glyphName="U" x="0" y="0" flags="0x204"/>
      <component glyphName="uni0306.cap" x="261" y="0" flags="0x4"/>
    </TTGlyph>
    <TTGlyph name="Ucircumflex" xMin="81" yMin="-12" xMax="594" yMax="813">
      <component glyphName="U" x="0" y="0" flags="0x204"/>
      <component glyphName="uni0302.cap" x="261" y="0" flags="0x4"/>
    </TTGlyph>
    <TTGlyph name="Udieresis" xMin="81" yMin="-12" xMax="594" yMax="795">
      <component glyphName="U" x="0" y="0" flags="0x204"/>
      <component glyphName="uni0308.cap" x="261" y="0" flags="0x4"/>
    </TTGlyph>
    <TTGlyph name="Ugrave" xMin="81" yMin="-12" xMax="594" yMax="813">
      <component glyphName="U" x="0" y="0" flags="0x204"/>
      <component glyphName="uni0300.cap" x="261" y="0" flags="0x4"/>
    </TTGlyph>
    <TTGlyph name="Uhorn" xMin="81" yMin="-12" xMax="708" yMax="780">
      <contour>
        <pt x="699" y="780" on="1"/>
        <pt x="704" y="769" on="0"/>
        <pt x="708" y="751" on="0"/>
        <pt x="708" y="741" on="1"/>
        <pt x="708" y="703" on="0"/>
        <pt x="648" y="640" on="0"/>
        <pt x="589" y="632" on="1"/>
        <pt x="509" y="236" on="1"/>
        <pt x="495" y="167" on="0"/>
        <pt x="447" y="73" on="0"/>
        <pt x="386" y="14" on="0"/>
        <pt x="312" y="-12" on="0"/>
        <pt x="273" y="-12" on="1"/>
        <pt x="182" y="-12" on="0"/>
        <pt x="81" y="89" on="0"/>
        <pt x="81" y="184" on="1"/>
        <pt x="81" y="204" on="0"/>
        <pt x="85" y="245" on="0"/>
        <pt x="90" y="269" on="1"/>
        <pt x="168" y="659" on="1"/>
        <pt x="211" y="659" on="1"/>
        <pt x="134" y="273" on="1"/>
        <pt x="128" y="250" on="0"/>
        <pt x="124" y="210" on="0"/>
        <pt x="124" y="192" on="1"/>
        <pt x="124" y="112" on="0"/>
        <pt x="200" y="25" on="0"/>
        <pt x="277" y="25" on="1"/>
        <pt x="308" y="25" on="0"/>
        <pt x="367" y="49" on="0"/>
        <pt x="417" y="101" on="0"/>
        <pt x="456" y="183" on="0"/>
        <pt x="468" y="242" on="1"/>
        <pt x="551" y="659" on="1"/>
        <pt x="562" y="659" on="1"/>
        <pt x="583" y="659" on="0"/>
        <pt x="622" y="671" on="0"/>
        <pt x="652" y="690" on="0"/>
        <pt x="669" y="717" on="0"/>
        <pt x="669" y="734" on="1"/>
        <pt x="669" y="742" on="0"/>
        <pt x="667" y="754" on="0"/>
        <pt x="664" y="765" on="1"/>
      </contour>
    </TTGlyph>
    <TTGlyph name="Uhungarumlaut" xMin="81" yMin="-12" xMax="594" yMax="815">
      <component glyphName="U" x="0" y="0" flags="0x204"/>
      <component glyphName="uni030B.cap" x="261" y="0" flags="0x4"/>
    </TTGlyph>
    <TTGlyph name="Umacron" xMin="81" yMin="-12" xMax="594" yMax="768">
      <component glyphName="U" x="0" y="0" flags="0x204"/>
      <component glyphName="uni0304.cap" x="261" y="0" flags="0x4"/>
    </TTGlyph>
    <TTGlyph name="Uogonek" xMin="81" yMin="-204" xMax="594" yMax="659">
      <contour>
        <pt x="509" y="236" on="1"/>
        <pt x="498" y="179" on="0"/>
        <pt x="463" y="98" on="0"/>
        <pt x="417" y="41" on="0"/>
        <pt x="358" y="4" on="0"/>
        <pt x="322" y="-8" on="1"/>
        <pt x="292" y="-18" on="0"/>
        <pt x="249" y="-47" on="0"/>
        <pt x="220" y="-81" on="0"/>
        <pt x="207" y="-115" on="0"/>
        <pt x="207" y="-130" on="1"/>
        <pt x="207" y="-149" on="0"/>
        <pt x="228" y="-171" on="0"/>
        <pt x="244" y="-171" on="1"/>
        <pt x="264" y="-171" on="0"/>
        <pt x="284" y="-159" on="1"/>
        <pt x="296" y="-187" on="1"/>
        <pt x="282" y="-195" on="0"/>
        <pt x="250" y="-204" on="0"/>
        <pt x="236" y="-204" on="1"/>
        <pt x="206" y="-204" on="0"/>
        <pt x="167" y="-173" on="0"/>
        <pt x="167" y="-141" on="1"/>
        <pt x="167" y="-125" on="0"/>
        <pt x="180" y="-89" on="0"/>
        <pt x="203" y="-55" on="0"/>
        <pt x="233" y="-23" on="0"/>
        <pt x="250" y="-11" on="1"/>
        <pt x="168" y="-3" on="0"/>
        <pt x="81" y="96" on="0"/>
        <pt x="81" y="184" on="1"/>
        <pt x="81" y="204" on="0"/>
        <pt x="85" y="245" on="0"/>
        <pt x="90" y="269" on="1"/>
        <pt x="168" y="659" on="1"/>
        <pt x="211" y="659" on="1"/>
        <pt x="134" y="273" on="1"/>
        <pt x="128" y="250" on="0"/>
        <pt x="124" y="210" on="0"/>
        <pt x="124" y="192" on="1"/>
        <pt x="124" y="112" on="0"/>
        <pt x="200" y="25" on="0"/>
        <pt x="277" y="25" on="1"/>
        <pt x="308" y="25" on="0"/>
        <pt x="367" y="49" on="0"/>
        <pt x="417" y="101" on="0"/>
        <pt x="456" y="183" on="0"/>
        <pt x="468" y="242" on="1"/>
        <pt x="551" y="659" on="1"/>
        <pt x="594" y="659" on="1"/>
      </contour>
    </TTGlyph>
    <TTGlyph name="Uring" xMin="81" yMin="-12" xMax="594" yMax="866">
      <component glyphName="U" x="0" y="0" flags="0x204"/>
      <component glyphName="uni030A.cap" x="261" y="0" flags="0x4"/>
    </TTGlyph>
    <TTGlyph name="Utilde" xMin="81" yMin="-12" xMax="594" yMax="806">
      <component glyphName="U" x="0" y="0" flags="0x204"/>
      <component glyphName="uni0303.cap" x="261" y="0" flags="0x4"/>
    </TTGlyph>
    <TTGlyph name="V" xMin="83" yMin="0" xMax="541" yMax="659">
      <contour>
        <pt x="83" y="659" on="1"/>
        <pt x="125" y="659" on="1"/>
        <pt x="159" y="269" on="1"/>
        <pt x="164" y="215" on="0"/>
        <pt x="175" y="104" on="0"/>
        <pt x="179" y="48" on="1"/>
        <pt x="183" y="48" on="1"/>
        <pt x="210" y="102" on="0"/>
        <pt x="266" y="216" on="0"/>
        <pt x="294" y="269" on="1"/>
        <pt x="497" y="659" on="1"/>
        <pt x="541" y="659" on="1"/>
        <pt x="195" y="0" on="1"/>
        <pt x="145" y="0" on="1"/>
      </contour>
    </TTGlyph>
    <TTGlyph name="W" xMin="106" yMin="0" xMax="789" yMax="659">
      <contour>
        <pt x="107" y="659" on="1"/>
        <pt x="150" y="659" on="1"/>
        <pt x="148" y="270" on="1"/>
        <pt x="146" y="216" on="0"/>
        <pt x="146" y="108" on="0"/>
        <pt x="144" y="54" on="1"/>
        <pt x="148" y="54" on="1"/>
        <pt x="173" y="108" on="0"/>
        <pt x="223" y="216" on="0"/>
        <pt x="246" y="270" on="1"/>
        <pt x="427" y="659" on="1"/>
        <pt x="471" y="659" on="1"/>
        <pt x="484" y="270" on="1"/>
        <pt x="488" y="162" on="0"/>
        <pt x="490" y="54" on="1"/>
        <pt x="494" y="54" on="1"/>
        <pt x="537" y="162" on="0"/>
        <pt x="584" y="270" on="1"/>
        <pt x="745" y="659" on="1"/>
        <pt x="789" y="659" on="1"/>
        <pt x="508" y="0" on="1"/>
        <pt x="454" y="0" on="1"/>
        <pt x="440" y="453" on="1"/>
        <pt x="440" y="492" on="0"/>
        <pt x="439" y="568" on="0"/>
        <pt x="440" y="608" on="1"/>
        <pt x="436" y="608" on="1"/>
        <pt x="421" y="568" on="0"/>
        <pt x="386" y="493" on="0"/>
        <pt x="369" y="453" on="1"/>
        <pt x="160" y="0" on="1"/>
        <pt x="106" y="0" on="1"/>
      </contour>
    </TTGlyph>
    <TTGlyph name="Wacute" xMin="106" yMin="0" xMax="789" yMax="813">
      <component glyphName="W" x="0" y="0" flags="0x204"/>
      <component glyphName="uni0301.cap" x="324" y="0" flags="0x4"/>
    </TTGlyph>
    <TTGlyph name="Wcircumflex" xMin="106" yMin="0" xMax="789" yMax="813">
      <component glyphName="W" x="0" y="0" flags="0x204"/>
      <component glyphName="uni0302.cap" x="324" y="0" flags="0x4"/>
    </TTGlyph>
    <TTGlyph name="Wdieresis" xMin="106" yMin="0" xMax="789" yMax="795">
      <component glyphName="W" x="0" y="0" flags="0x204"/>
      <component glyphName="uni0308.cap" x="324" y="0" flags="0x4"/>
    </TTGlyph>
    <TTGlyph name="Wgrave" xMin="106" yMin="0" xMax="789" yMax="813">
      <component glyphName="W" x="0" y="0" flags="0x204"/>
      <component glyphName="uni0300.cap" x="324" y="0" flags="0x4"/>
    </TTGlyph>
    <TTGlyph name="X" xMin="-36" yMin="0" xMax="513" yMax="659">
      <contour>
        <pt x="222" y="343" on="1"/>
        <pt x="109" y="659" on="1"/>
        <pt x="154" y="659" on="1"/>
        <pt x="223" y="459" on="1"/>
        <pt x="231" y="436" on="0"/>
        <pt x="244" y="396" on="0"/>
        <pt x="252" y="372" on="1"/>
        <pt x="255" y="372" on="1"/>
        <pt x="290" y="418" on="0"/>
        <pt x="324" y="464" on="1"/>
        <pt x="467" y="659" on="1"/>
        <pt x="513" y="659" on="1"/>
        <pt x="270" y="337" on="1"/>
        <pt x="393" y="0" on="1"/>
        <pt x="348" y="0" on="1"/>
        <pt x="275" y="209" on="1"/>
        <pt x="266" y="233" on="0"/>
        <pt x="249" y="283" on="0"/>
        <pt x="240" y="309" on="1"/>
        <pt x="238" y="309" on="1"/>
        <pt x="217" y="283" on="0"/>
        <pt x="177" y="228" on="0"/>
        <pt x="160" y="203" on="1"/>
        <pt x="10" y="0" on="1"/>
        <pt x="-36" y="0" on="1"/>
      </contour>
    </TTGlyph>
    <TTGlyph name="Y" xMin="85" yMin="0" xMax="510" yMax="659">
      <contour>
        <pt x="194" y="268" on="1"/>
        <pt x="85" y="659" on="1"/>
        <pt x="129" y="659" on="1"/>
        <pt x="184" y="451" on="1"/>
        <pt x="194" y="415" on="0"/>
        <pt x="211" y="346" on="0"/>
        <pt x="221" y="309" on="1"/>
        <pt x="225" y="309" on="1"/>
        <pt x="249" y="344" on="0"/>
        <pt x="296" y="416" on="0"/>
        <pt x="320" y="451" on="1"/>
        <pt x="464" y="659" on="1"/>
        <pt x="510" y="659" on="1"/>
        <pt x="237" y="268" on="1"/>
        <pt x="183" y="0" on="1"/>
        <pt x="140" y="0" on="1"/>
      </contour>
    </TTGlyph>
    <TTGlyph name="Yacute" xMin="85" yMin="0" xMax="510" yMax="813">
      <component glyphName="Y" x="0" y="0" flags="0x204"/>
      <component glyphName="uni0301.cap" x="169" y="0" flags="0x4"/>
    </TTGlyph>
    <TTGlyph name="Ycircumflex" xMin="85" yMin="0" xMax="510" yMax="813">
      <component glyphName="Y" x="0" y="0" flags="0x204"/>
      <component glyphName="uni0302.cap" x="169" y="0" flags="0x4"/>
    </TTGlyph>
    <TTGlyph name="Ydieresis" xMin="85" yMin="0" xMax="510" yMax="795">
      <component glyphName="Y" x="0" y="0" flags="0x204"/>
      <component glyphName="uni0308.cap" x="169" y="0" flags="0x4"/>
    </TTGlyph>
    <TTGlyph name="Ygrave" xMin="85" yMin="0" xMax="510" yMax="813">
      <component glyphName="Y" x="0" y="0" flags="0x204"/>
      <component glyphName="uni0300.cap" x="169" y="0" flags="0x4"/>
    </TTGlyph>
    <TTGlyph name="Z" xMin="1" yMin="0" xMax="531" yMax="659">
      <contour>
        <pt x="7" y="26" on="1"/>
        <pt x="472" y="622" on="1"/>
        <pt x="147" y="622" on="1"/>
        <pt x="155" y="659" on="1"/>
        <pt x="531" y="659" on="1"/>
        <pt x="526" y="633" on="1"/>
        <pt x="63" y="37" on="1"/>
        <pt x="422" y="37" on="1"/>
        <pt x="414" y="0" on="1"/>
        <pt x="1" y="0" on="1"/>
      </contour>
    </TTGlyph>
    <TTGlyph name="Zacute" xMin="1" yMin="0" xMax="531" yMax="813">
      <component glyphName="Z" x="0" y="0" flags="0x204"/>
      <component glyphName="uni0301.cap" x="217" y="0" flags="0x4"/>
    </TTGlyph>
    <TTGlyph name="Zcaron" xMin="1" yMin="0" xMax="531" yMax="813">
      <component glyphName="Z" x="0" y="0" flags="0x204"/>
      <component glyphName="uni030C.cap" x="217" y="0" flags="0x4"/>
    </TTGlyph>
    <TTGlyph name="Zdotaccent" xMin="1" yMin="0" xMax="531" yMax="801">
      <component glyphName="Z" x="0" y="0" flags="0x204"/>
      <component glyphName="uni0307.cap" x="217" y="0" flags="0x4"/>
    </TTGlyph>
    <TTGlyph name="a" xMin="44" yMin="-12" xMax="485" yMax="492">
      <contour>
        <pt x="44" y="161" on="1"/>
        <pt x="44" y="230" on="0"/>
        <pt x="88" y="351" on="0"/>
        <pt x="161" y="441" on="0"/>
        <pt x="255" y="492" on="0"/>
        <pt x="305" y="492" on="1"/>
        <pt x="347" y="492" on="0"/>
        <pt x="409" y="449" on="0"/>
        <pt x="429" y="414" on="1"/>
        <pt x="432" y="414" on="1"/>
        <pt x="451" y="480" on="1"/>
        <pt x="485" y="480" on="1"/>
        <pt x="389" y="0" on="1"/>
        <pt x="354" y="0" on="1"/>
        <pt x="365" y="76" on="1"/>
        <pt x="361" y="76" on="1"/>
        <pt x="324" y="38" on="0"/>
        <pt x="234" y="-12" on="0"/>
        <pt x="184" y="-12" on="1"/>
        <pt x="121" y="-12" on="0"/>
        <pt x="44" y="76" on="0"/>
      </contour>
      <contour>
        <pt x="193" y="24" on="1"/>
        <pt x="240" y="24" on="0"/>
        <pt x="330" y="78" on="0"/>
        <pt x="373" y="128" on="1"/>
        <pt x="423" y="369" on="1"/>
        <pt x="397" y="416" on="0"/>
        <pt x="338" y="456" on="0"/>
        <pt x="304" y="456" on="1"/>
        <pt x="261" y="456" on="0"/>
        <pt x="182" y="407" on="0"/>
        <pt x="122" y="326" on="0"/>
        <pt x="86" y="223" on="0"/>
        <pt x="86" y="169" on="1"/>
        <pt x="86" y="96" on="0"/>
        <pt x="143" y="24" on="0"/>
      </contour>
    </TTGlyph>
    <TTGlyph name="a.a" xMin="38" yMin="-12" xMax="420" yMax="492">
      <contour>
        <pt x="38" y="103" on="1"/>
        <pt x="38" y="153" on="0"/>
        <pt x="85" y="224" on="0"/>
        <pt x="172" y="271" on="0"/>
        <pt x="295" y="294" on="0"/>
        <pt x="372" y="296" on="1"/>
        <pt x="376" y="314" on="0"/>
        <pt x="379" y="339" on="0"/>
        <pt x="379" y="353" on="1"/>
        <pt x="379" y="411" on="0"/>
        <pt x="331" y="456" on="0"/>
        <pt x="278" y="456" on="1"/>
        <pt x="244" y="456" on="0"/>
        <pt x="172" y="430" on="0"/>
        <pt x="137" y="410" on="1"/>
        <pt x="121" y="442" on="1"/>
        <pt x="156" y="462" on="0"/>
        <pt x="241" y="492" on="0"/>
        <pt x="283" y="492" on="1"/>
        <pt x="347" y="492" on="0"/>
        <pt x="420" y="431" on="0"/>
        <pt x="420" y="357" on="1"/>
        <pt x="420" y="343" on="0"/>
        <pt x="415" y="307" on="0"/>
        <pt x="412" y="293" on="1"/>
        <pt x="355" y="0" on="1"/>
        <pt x="320" y="0" on="1"/>
        <pt x="327" y="61" on="1"/>
        <pt x="325" y="61" on="1"/>
        <pt x="290" y="30" on="0"/>
        <pt x="200" y="-12" on="0"/>
        <pt x="157" y="-12" on="1"/>
        <pt x="133" y="-12" on="0"/>
        <pt x="90" y="3" on="0"/>
        <pt x="57" y="31" on="0"/>
        <pt x="38" y="74" on="0"/>
      </contour>
      <contour>
        <pt x="366" y="263" on="1"/>
        <pt x="300" y="261" on="0"/>
        <pt x="194" y="242" on="0"/>
        <pt x="119" y="204" on="0"/>
        <pt x="79" y="149" on="0"/>
        <pt x="79" y="112" on="1"/>
        <pt x="79" y="65" on="0"/>
        <pt x="131" y="24" on="0"/>
        <pt x="170" y="24" on="1"/>
        <pt x="244" y="24" on="0"/>
        <pt x="334" y="104" on="1"/>
      </contour>
    </TTGlyph>
    <TTGlyph name="a.supa" xMin="61" yMin="261" xMax="318" yMax="595">
      <contour>
        <pt x="61" y="338" on="1"/>
        <pt x="61" y="372" on="0"/>
        <pt x="94" y="419" on="0"/>
        <pt x="152" y="450" on="0"/>
        <pt x="232" y="466" on="0"/>
        <pt x="279" y="468" on="1"/>
        <pt x="283" y="487" on="0"/>
        <pt x="283" y="501" on="1"/>
        <pt x="283" y="532" on="0"/>
        <pt x="254" y="564" on="0"/>
        <pt x="219" y="564" on="1"/>
        <pt x="197" y="564" on="0"/>
        <pt x="149" y="547" on="0"/>
        <pt x="125" y="535" on="1"/>
        <pt x="113" y="562" on="1"/>
        <pt x="138" y="576" on="0"/>
        <pt x="196" y="595" on="0"/>
        <pt x="224" y="595" on="1"/>
        <pt x="269" y="595" on="0"/>
        <pt x="318" y="553" on="0"/>
        <pt x="318" y="504" on="1"/>
        <pt x="318" y="495" on="0"/>
        <pt x="315" y="471" on="0"/>
        <pt x="313" y="461" on="1"/>
        <pt x="275" y="269" on="1"/>
        <pt x="246" y="269" on="1"/>
        <pt x="253" y="310" on="1"/>
        <pt x="249" y="310" on="1"/>
        <pt x="227" y="290" on="0"/>
        <pt x="168" y="261" on="0"/>
        <pt x="141" y="261" on="1"/>
        <pt x="108" y="261" on="0"/>
        <pt x="61" y="300" on="0"/>
      </contour>
      <contour>
        <pt x="274" y="442" on="1"/>
        <pt x="195" y="439" on="0"/>
        <pt x="95" y="391" on="0"/>
        <pt x="95" y="344" on="1"/>
        <pt x="95" y="315" on="0"/>
        <pt x="125" y="291" on="0"/>
        <pt x="148" y="291" on="1"/>
        <pt x="174" y="291" on="0"/>
        <pt x="227" y="320" on="0"/>
        <pt x="255" y="345" on="1"/>
      </contour>
    </TTGlyph>
    <TTGlyph name="a.sups" xMin="63" yMin="261" xMax="361" yMax="595">
      <contour>
        <pt x="63" y="378" on="1"/>
        <pt x="63" y="423" on="0"/>
        <pt x="93" y="502" on="0"/>
        <pt x="142" y="561" on="0"/>
        <pt x="205" y="595" on="0"/>
        <pt x="239" y="595" on="1"/>
        <pt x="263" y="595" on="0"/>
        <pt x="304" y="571" on="0"/>
        <pt x="317" y="545" on="1"/>
        <pt x="321" y="545" on="1"/>
        <pt x="334" y="587" on="1"/>
        <pt x="361" y="587" on="1"/>
        <pt x="298" y="269" on="1"/>
        <pt x="270" y="269" on="1"/>
        <pt x="279" y="320" on="1"/>
        <pt x="275" y="320" on="1"/>
        <pt x="249" y="293" on="0"/>
        <pt x="190" y="261" on="0"/>
        <pt x="157" y="261" on="1"/>
        <pt x="115" y="261" on="0"/>
        <pt x="63" y="320" on="0"/>
      </contour>
      <contour>
        <pt x="163" y="292" on="1"/>
        <pt x="192" y="292" on="0"/>
        <pt x="256" y="331" on="0"/>
        <pt x="283" y="362" on="1"/>
        <pt x="311" y="509" on="1"/>
        <pt x="294" y="541" on="0"/>
        <pt x="258" y="564" on="0"/>
        <pt x="238" y="564" on="1"/>
        <pt x="212" y="564" on="0"/>
        <pt x="161" y="533" on="0"/>
        <pt x="122" y="482" on="0"/>
        <pt x="98" y="417" on="0"/>
        <pt x="98" y="383" on="1"/>
        <pt x="98" y="335" on="0"/>
        <pt x="135" y="292" on="0"/>
      </contour>
    </TTGlyph>
    <TTGlyph name="aacute" xMin="44" yMin="-12" xMax="485" yMax="706">
      <component glyphName="a" x="0" y="0" flags="0x204"/>
      <component glyphName="uni0301" x="210" y="0" flags="0x4"/>
    </TTGlyph>
    <TTGlyph name="aacute.a" xMin="38" yMin="-12" xMax="420" yMax="706">
      <component glyphName="a.a" x="0" y="0" flags="0x204"/>
      <component glyphName="uni0301" x="189" y="0" flags="0x4"/>
    </TTGlyph>
    <TTGlyph name="abreve" xMin="44" yMin="-12" xMax="485" yMax="693">
      <component glyphName="a" x="0" y="0" flags="0x204"/>
      <component glyphName="uni0306" x="210" y="0" flags="0x4"/>
    </TTGlyph>
    <TTGlyph name="abreve.a" xMin="38" yMin="-12" xMax="438" yMax="693">
      <component glyphName="a.a" x="0" y="0" flags="0x204"/>
      <component glyphName="uni0306" x="189" y="0" flags="0x4"/>
    </TTGlyph>
    <TTGlyph name="acircumflex" xMin="44" yMin="-12" xMax="485" yMax="706">
      <component glyphName="a" x="0" y="0" flags="0x204"/>
      <component glyphName="uni0302" x="210" y="0" flags="0x4"/>
    </TTGlyph>
    <TTGlyph name="acircumflex.a" xMin="38" yMin="-12" xMax="420" yMax="706">
      <component glyphName="a.a" x="0" y="0" flags="0x204"/>
      <component glyphName="uni0302" x="189" y="0" flags="0x4"/>
    </TTGlyph>
    <TTGlyph name="acute" xMin="271" yMin="570" xMax="437" yMax="706">
      <component glyphName="uni0301" x="215" y="0" flags="0x4"/>
    </TTGlyph>
    <TTGlyph name="adieresis" xMin="44" yMin="-12" xMax="485" yMax="671">
      <component glyphName="a" x="0" y="0" flags="0x204"/>
      <component glyphName="uni0308" x="210" y="0" flags="0x4"/>
    </TTGlyph>
    <TTGlyph name="adieresis.a" xMin="38" yMin="-12" xMax="424" yMax="671">
      <component glyphName="a.a" x="0" y="0" flags="0x204"/>
      <component glyphName="uni0308" x="189" y="0" flags="0x4"/>
    </TTGlyph>
    <TTGlyph name="ae" xMin="38" yMin="-12" xMax="729" yMax="492">
      <contour>
        <pt x="38" y="103" on="1"/>
        <pt x="38" y="153" on="0"/>
        <pt x="85" y="224" on="0"/>
        <pt x="170" y="270" on="0"/>
        <pt x="291" y="293" on="0"/>
        <pt x="365" y="296" on="1"/>
        <pt x="369" y="314" on="0"/>
        <pt x="372" y="339" on="0"/>
        <pt x="372" y="353" on="1"/>
        <pt x="372" y="403" on="0"/>
        <pt x="329" y="456" on="0"/>
        <pt x="278" y="456" on="1"/>
        <pt x="244" y="456" on="0"/>
        <pt x="171" y="430" on="0"/>
        <pt x="136" y="410" on="1"/>
        <pt x="121" y="442" on="1"/>
        <pt x="156" y="462" on="0"/>
        <pt x="241" y="492" on="0"/>
        <pt x="283" y="492" on="1"/>
        <pt x="337" y="492" on="0"/>
        <pt x="402" y="437" on="0"/>
        <pt x="407" y="380" on="1"/>
        <pt x="442" y="432" on="0"/>
        <pt x="535" y="492" on="0"/>
        <pt x="585" y="492" on="1"/>
        <pt x="624" y="492" on="0"/>
        <pt x="679" y="467" on="0"/>
        <pt x="713" y="422" on="0"/>
        <pt x="729" y="359" on="0"/>
        <pt x="729" y="322" on="1"/>
        <pt x="729" y="296" on="0"/>
        <pt x="721" y="252" on="0"/>
        <pt x="716" y="238" on="1"/>
        <pt x="395" y="238" on="1"/>
        <pt x="386" y="191" on="0"/>
        <pt x="397" y="112" on="0"/>
        <pt x="431" y="55" on="0"/>
        <pt x="487" y="23" on="0"/>
        <pt x="523" y="23" on="1"/>
        <pt x="556" y="23" on="0"/>
        <pt x="619" y="51" on="0"/>
        <pt x="645" y="70" on="1"/>
        <pt x="663" y="40" on="1"/>
        <pt x="634" y="19" on="0"/>
        <pt x="560" y="-12" on="0"/>
        <pt x="518" y="-12" on="1"/>
        <pt x="465" y="-12" on="0"/>
        <pt x="383" y="48" on="0"/>
        <pt x="367" y="93" on="1"/>
        <pt x="316" y="43" on="0"/>
        <pt x="212" y="-12" on="0"/>
        <pt x="158" y="-12" on="1"/>
        <pt x="134" y="-12" on="0"/>
        <pt x="90" y="3" on="0"/>
        <pt x="57" y="31" on="0"/>
        <pt x="38" y="74" on="0"/>
      </contour>
      <contour>
        <pt x="685" y="271" on="1"/>
        <pt x="691" y="299" on="0"/>
        <pt x="691" y="328" on="1"/>
        <pt x="691" y="352" on="0"/>
        <pt x="680" y="399" on="0"/>
        <pt x="654" y="435" on="0"/>
        <pt x="612" y="457" on="0"/>
        <pt x="581" y="457" on="1"/>
        <pt x="554" y="457" on="0"/>
        <pt x="498" y="430" on="0"/>
        <pt x="449" y="380" on="0"/>
        <pt x="411" y="312" on="0"/>
        <pt x="401" y="271" on="1"/>
      </contour>
      <contour>
        <pt x="359" y="263" on="1"/>
        <pt x="296" y="261" on="0"/>
        <pt x="192" y="242" on="0"/>
        <pt x="119" y="204" on="0"/>
        <pt x="79" y="149" on="0"/>
        <pt x="79" y="112" on="1"/>
        <pt x="79" y="68" on="0"/>
        <pt x="131" y="24" on="0"/>
        <pt x="170" y="24" on="1"/>
        <pt x="207" y="24" on="0"/>
        <pt x="305" y="73" on="0"/>
        <pt x="356" y="126" on="1"/>
        <pt x="350" y="165" on="0"/>
        <pt x="352" y="225" on="0"/>
      </contour>
    </TTGlyph>
    <TTGlyph name="agrave" xMin="44" yMin="-12" xMax="485" yMax="706">
      <component glyphName="a" x="0" y="0" flags="0x204"/>
      <component glyphName="uni0300" x="210" y="0" flags="0x4"/>
    </TTGlyph>
    <TTGlyph name="agrave.a" xMin="38" yMin="-12" xMax="420" yMax="706">
      <component glyphName="a.a" x="0" y="0" flags="0x204"/>
      <component glyphName="uni0300" x="189" y="0" flags="0x4"/>
    </TTGlyph>
    <TTGlyph name="amacron" xMin="44" yMin="-12" xMax="485" yMax="640">
      <component glyphName="a" x="0" y="0" flags="0x204"/>
      <component glyphName="uni0304" x="210" y="0" flags="0x4"/>
    </TTGlyph>
    <TTGlyph name="amacron.a" xMin="38" yMin="-12" xMax="423" yMax="640">
      <component glyphName="a.a" x="0" y="0" flags="0x204"/>
      <component glyphName="uni0304" x="189" y="0" flags="0x4"/>
    </TTGlyph>
    <TTGlyph name="ampersand" xMin="16" yMin="-12" xMax="547" yMax="671">
      <contour>
        <pt x="58" y="143" on="1"/>
        <pt x="58" y="89" on="0"/>
        <pt x="125" y="23" on="0"/>
        <pt x="177" y="23" on="1"/>
        <pt x="218" y="23" on="0"/>
        <pt x="299" y="63" on="0"/>
        <pt x="335" y="95" on="1"/>
        <pt x="293" y="143" on="0"/>
        <pt x="222" y="265" on="0"/>
        <pt x="200" y="330" on="1"/>
        <pt x="171" y="311" on="0"/>
        <pt x="120" y="271" on="0"/>
        <pt x="81" y="226" on="0"/>
        <pt x="58" y="174" on="0"/>
      </contour>
      <contour>
        <pt x="211" y="484" on="1"/>
        <pt x="211" y="461" on="0"/>
        <pt x="218" y="412" on="0"/>
        <pt x="224" y="387" on="1"/>
        <pt x="255" y="406" on="0"/>
        <pt x="313" y="446" on="0"/>
        <pt x="357" y="490" on="0"/>
        <pt x="384" y="541" on="0"/>
        <pt x="384" y="572" on="1"/>
        <pt x="384" y="597" on="0"/>
        <pt x="358" y="637" on="0"/>
        <pt x="327" y="637" on="1"/>
        <pt x="302" y="637" on="0"/>
        <pt x="259" y="614" on="0"/>
        <pt x="228" y="573" on="0"/>
        <pt x="211" y="517" on="0"/>
      </contour>
      <contour>
        <pt x="547" y="344" on="1"/>
        <pt x="515" y="275" on="0"/>
        <pt x="436" y="149" on="0"/>
        <pt x="388" y="98" on="1"/>
        <pt x="415" y="72" on="0"/>
        <pt x="466" y="32" on="0"/>
        <pt x="491" y="22" on="1"/>
        <pt x="472" y="-12" on="1"/>
        <pt x="420" y="9" on="0"/>
        <pt x="358" y="69" on="1"/>
        <pt x="316" y="31" on="0"/>
        <pt x="221" y="-12" on="0"/>
        <pt x="168" y="-12" on="1"/>
        <pt x="135" y="-12" on="0"/>
        <pt x="79" y="9" on="0"/>
        <pt x="39" y="47" on="0"/>
        <pt x="16" y="102" on="0"/>
        <pt x="16" y="136" on="1"/>
        <pt x="16" y="176" on="0"/>
        <pt x="45" y="242" on="0"/>
        <pt x="94" y="297" on="0"/>
        <pt x="156" y="344" on="0"/>
        <pt x="189" y="365" on="1"/>
        <pt x="172" y="425" on="0"/>
        <pt x="172" y="480" on="1"/>
        <pt x="172" y="523" on="0"/>
        <pt x="198" y="593" on="0"/>
        <pt x="242" y="643" on="0"/>
        <pt x="299" y="671" on="0"/>
        <pt x="330" y="671" on="1"/>
        <pt x="354" y="671" on="0"/>
        <pt x="388" y="656" on="0"/>
        <pt x="411" y="630" on="0"/>
        <pt x="422" y="597" on="0"/>
        <pt x="422" y="578" on="1"/>
        <pt x="422" y="539" on="0"/>
        <pt x="389" y="476" on="0"/>
        <pt x="336" y="422" on="0"/>
        <pt x="269" y="375" on="0"/>
        <pt x="234" y="353" on="1"/>
        <pt x="254" y="290" on="0"/>
        <pt x="322" y="170" on="0"/>
        <pt x="364" y="123" on="1"/>
        <pt x="409" y="169" on="0"/>
        <pt x="477" y="280" on="0"/>
        <pt x="507" y="344" on="1"/>
      </contour>
    </TTGlyph>
    <TTGlyph name="aogonek" xMin="44" yMin="-203" xMax="485" yMax="492">
      <contour>
        <pt x="44" y="161" on="1"/>
        <pt x="44" y="230" on="0"/>
        <pt x="88" y="351" on="0"/>
        <pt x="161" y="441" on="0"/>
        <pt x="255" y="492" on="0"/>
        <pt x="305" y="492" on="1"/>
        <pt x="347" y="492" on="0"/>
        <pt x="411" y="447" on="0"/>
        <pt x="430" y="412" on="1"/>
        <pt x="432" y="412" on="1"/>
        <pt x="451" y="480" on="1"/>
        <pt x="485" y="480" on="1"/>
        <pt x="389" y="0" on="1"/>
        <pt x="336" y="-29" on="0"/>
        <pt x="276" y="-95" on="0"/>
        <pt x="276" y="-130" on="1"/>
        <pt x="276" y="-149" on="0"/>
        <pt x="297" y="-170" on="0"/>
        <pt x="313" y="-170" on="1"/>
        <pt x="325" y="-170" on="0"/>
        <pt x="344" y="-164" on="0"/>
        <pt x="354" y="-158" on="1"/>
        <pt x="366" y="-185" on="1"/>
        <pt x="352" y="-193" on="0"/>
        <pt x="320" y="-203" on="0"/>
        <pt x="306" y="-203" on="1"/>
        <pt x="276" y="-203" on="0"/>
        <pt x="237" y="-172" on="0"/>
        <pt x="237" y="-140" on="1"/>
        <pt x="237" y="-119" on="0"/>
        <pt x="257" y="-76" on="0"/>
        <pt x="290" y="-37" on="0"/>
        <pt x="333" y="-3" on="0"/>
        <pt x="356" y="9" on="1"/>
        <pt x="365" y="78" on="1"/>
        <pt x="363" y="78" on="1"/>
        <pt x="326" y="40" on="0"/>
        <pt x="234" y="-12" on="0"/>
        <pt x="184" y="-12" on="1"/>
        <pt x="121" y="-12" on="0"/>
        <pt x="44" y="76" on="0"/>
      </contour>
      <contour>
        <pt x="193" y="24" on="1"/>
        <pt x="233" y="24" on="0"/>
        <pt x="330" y="78" on="0"/>
        <pt x="373" y="128" on="1"/>
        <pt x="423" y="371" on="1"/>
        <pt x="397" y="418" on="0"/>
        <pt x="338" y="456" on="0"/>
        <pt x="304" y="456" on="1"/>
        <pt x="261" y="456" on="0"/>
        <pt x="182" y="407" on="0"/>
        <pt x="122" y="326" on="0"/>
        <pt x="86" y="223" on="0"/>
        <pt x="86" y="169" on="1"/>
        <pt x="86" y="96" on="0"/>
        <pt x="143" y="24" on="0"/>
      </contour>
    </TTGlyph>
    <TTGlyph name="aogonek.a" xMin="38" yMin="-203" xMax="420" yMax="492">
      <contour>
        <pt x="327" y="61" on="1"/>
        <pt x="325" y="61" on="1"/>
        <pt x="290" y="30" on="0"/>
        <pt x="200" y="-12" on="0"/>
        <pt x="157" y="-12" on="1"/>
        <pt x="133" y="-12" on="0"/>
        <pt x="90" y="3" on="0"/>
        <pt x="57" y="31" on="0"/>
        <pt x="38" y="74" on="0"/>
        <pt x="38" y="103" on="1"/>
        <pt x="38" y="153" on="0"/>
        <pt x="85" y="224" on="0"/>
        <pt x="172" y="271" on="0"/>
        <pt x="295" y="294" on="0"/>
        <pt x="372" y="296" on="1"/>
        <pt x="376" y="314" on="0"/>
        <pt x="379" y="339" on="0"/>
        <pt x="379" y="353" on="1"/>
        <pt x="379" y="411" on="0"/>
        <pt x="331" y="456" on="0"/>
        <pt x="278" y="456" on="1"/>
        <pt x="244" y="456" on="0"/>
        <pt x="172" y="430" on="0"/>
        <pt x="137" y="410" on="1"/>
        <pt x="121" y="442" on="1"/>
        <pt x="156" y="462" on="0"/>
        <pt x="241" y="492" on="0"/>
        <pt x="283" y="492" on="1"/>
        <pt x="347" y="492" on="0"/>
        <pt x="420" y="431" on="0"/>
        <pt x="420" y="357" on="1"/>
        <pt x="420" y="343" on="0"/>
        <pt x="415" y="307" on="0"/>
        <pt x="412" y="293" on="1"/>
        <pt x="355" y="0" on="1"/>
        <pt x="302" y="-29" on="0"/>
        <pt x="242" y="-95" on="0"/>
        <pt x="242" y="-130" on="1"/>
        <pt x="242" y="-149" on="0"/>
        <pt x="263" y="-170" on="0"/>
        <pt x="279" y="-170" on="1"/>
        <pt x="291" y="-170" on="0"/>
        <pt x="309" y="-164" on="0"/>
        <pt x="320" y="-158" on="1"/>
        <pt x="332" y="-185" on="1"/>
        <pt x="317" y="-193" on="0"/>
        <pt x="286" y="-203" on="0"/>
        <pt x="272" y="-203" on="1"/>
        <pt x="242" y="-203" on="0"/>
        <pt x="203" y="-172" on="0"/>
        <pt x="203" y="-140" on="1"/>
        <pt x="203" y="-119" on="0"/>
        <pt x="223" y="-76" on="0"/>
        <pt x="256" y="-37" on="0"/>
        <pt x="299" y="-3" on="0"/>
        <pt x="322" y="9" on="1"/>
      </contour>
      <contour>
        <pt x="366" y="263" on="1"/>
        <pt x="300" y="261" on="0"/>
        <pt x="194" y="242" on="0"/>
        <pt x="119" y="204" on="0"/>
        <pt x="79" y="149" on="0"/>
        <pt x="79" y="112" on="1"/>
        <pt x="79" y="65" on="0"/>
        <pt x="131" y="24" on="0"/>
        <pt x="170" y="24" on="1"/>
        <pt x="244" y="24" on="0"/>
        <pt x="334" y="104" on="1"/>
      </contour>
    </TTGlyph>
    <TTGlyph name="approxequal" xMin="49" yMin="168" xMax="431" yMax="493">
      <component glyphName="asciitilde" x="0" y="100" flags="0x204"/>
      <component glyphName="asciitilde" x="0" y="-101" flags="0x4"/>
    </TTGlyph>
    <TTGlyph name="aring" xMin="44" yMin="-12" xMax="485" yMax="709">
      <component glyphName="a" x="0" y="0" flags="0x204"/>
      <component glyphName="uni030A" x="210" y="0" flags="0x4"/>
    </TTGlyph>
    <TTGlyph name="aring.a" xMin="38" yMin="-12" xMax="420" yMax="709">
      <component glyphName="a.a" x="0" y="0" flags="0x204"/>
      <component glyphName="uni030A" x="189" y="0" flags="0x4"/>
    </TTGlyph>
    <TTGlyph name="arrowdown" xMin="31" yMin="-26" xMax="562" yMax="526">
      <contour>
        <pt x="294" y="-26" on="1"/>
        <pt x="31" y="233" on="1"/>
        <pt x="56" y="256" on="1"/>
        <pt x="279" y="35" on="1"/>
        <pt x="279" y="526" on="1"/>
        <pt x="315" y="526" on="1"/>
        <pt x="315" y="35" on="1"/>
        <pt x="538" y="256" on="1"/>
        <pt x="562" y="233" on="1"/>
        <pt x="300" y="-26" on="1"/>
      </contour>
    </TTGlyph>
    <TTGlyph name="arrowup" xMin="31" yMin="-26" xMax="562" yMax="526">
      <contour>
        <pt x="300" y="526" on="1"/>
        <pt x="562" y="267" on="1"/>
        <pt x="538" y="244" on="1"/>
        <pt x="315" y="466" on="1"/>
        <pt x="315" y="-26" on="1"/>
        <pt x="279" y="-26" on="1"/>
        <pt x="279" y="466" on="1"/>
        <pt x="56" y="244" on="1"/>
        <pt x="31" y="267" on="1"/>
        <pt x="294" y="526" on="1"/>
      </contour>
    </TTGlyph>
    <TTGlyph name="asciicircum" xMin="90" yMin="288" xMax="413" yMax="670">
      <contour>
        <pt x="234" y="670" on="1"/>
        <pt x="268" y="670" on="1"/>
        <pt x="413" y="288" on="1"/>
        <pt x="377" y="288" on="1"/>
        <pt x="301" y="491" on="1"/>
        <pt x="253" y="623" on="1"/>
        <pt x="251" y="623" on="1"/>
        <pt x="204" y="491" on="1"/>
        <pt x="128" y="288" on="1"/>
        <pt x="90" y="288" on="1"/>
      </contour>
    </TTGlyph>
    <TTGlyph name="asciitilde" xMin="49" yMin="269" xMax="431" yMax="393">
      <contour>
        <pt x="49" y="312" on="1"/>
        <pt x="70" y="354" on="0"/>
        <pt x="125" y="393" on="0"/>
        <pt x="154" y="393" on="1"/>
        <pt x="181" y="393" on="0"/>
        <pt x="227" y="365" on="0"/>
        <pt x="268" y="331" on="0"/>
        <pt x="307" y="303" on="0"/>
        <pt x="327" y="303" on="1"/>
        <pt x="349" y="303" on="0"/>
        <pt x="386" y="332" on="0"/>
        <pt x="404" y="366" on="1"/>
        <pt x="431" y="350" on="1"/>
        <pt x="410" y="308" on="0"/>
        <pt x="355" y="269" on="0"/>
        <pt x="326" y="269" on="1"/>
        <pt x="299" y="269" on="0"/>
        <pt x="253" y="297" on="0"/>
        <pt x="212" y="331" on="0"/>
        <pt x="173" y="359" on="0"/>
        <pt x="153" y="359" on="1"/>
        <pt x="131" y="359" on="0"/>
        <pt x="94" y="330" on="0"/>
        <pt x="76" y="296" on="1"/>
      </contour>
    </TTGlyph>
    <TTGlyph name="asterisk" xMin="139" yMin="461" xMax="386" yMax="712">
      <contour>
        <pt x="157" y="491" on="1"/>
        <pt x="222" y="574" on="1"/>
        <pt x="139" y="619" on="1"/>
        <pt x="150" y="644" on="1"/>
        <pt x="243" y="612" on="1"/>
        <pt x="265" y="712" on="1"/>
        <pt x="293" y="710" on="1"/>
        <pt x="285" y="609" on="1"/>
        <pt x="381" y="623" on="1"/>
        <pt x="386" y="596" on="1"/>
        <pt x="288" y="568" on="1"/>
        <pt x="326" y="476" on="1"/>
        <pt x="301" y="461" on="1"/>
        <pt x="253" y="546" on="1"/>
        <pt x="177" y="473" on="1"/>
      </contour>
    </TTGlyph>
    <TTGlyph name="at" xMin="46" yMin="-145" xMax="746" yMax="631">
      <contour>
        <pt x="560" y="85" on="1"/>
        <pt x="587" y="85" on="0"/>
        <pt x="640" y="119" on="0"/>
        <pt x="683" y="183" on="0"/>
        <pt x="710" y="276" on="0"/>
        <pt x="710" y="335" on="1"/>
        <pt x="710" y="393" on="0"/>
        <pt x="679" y="490" on="0"/>
        <pt x="617" y="560" on="0"/>
        <pt x="525" y="598" on="0"/>
        <pt x="464" y="598" on="1"/>
        <pt x="392" y="598" on="0"/>
        <pt x="255" y="533" on="0"/>
        <pt x="148" y="418" on="0"/>
        <pt x="82" y="262" on="0"/>
        <pt x="82" y="171" on="1"/>
        <pt x="82" y="104" on="0"/>
        <pt x="120" y="-1" on="0"/>
        <pt x="189" y="-74" on="0"/>
        <pt x="283" y="-112" on="0"/>
        <pt x="339" y="-112" on="1"/>
        <pt x="381" y="-112" on="0"/>
        <pt x="452" y="-94" on="0"/>
        <pt x="484" y="-75" on="1"/>
        <pt x="499" y="-103" on="1"/>
        <pt x="459" y="-126" on="0"/>
        <pt x="377" y="-145" on="0"/>
        <pt x="336" y="-145" on="1"/>
        <pt x="273" y="-145" on="0"/>
        <pt x="167" y="-102" on="0"/>
        <pt x="89" y="-23" on="0"/>
        <pt x="46" y="92" on="0"/>
        <pt x="46" y="164" on="1"/>
        <pt x="46" y="264" on="0"/>
        <pt x="117" y="436" on="0"/>
        <pt x="235" y="560" on="0"/>
        <pt x="387" y="631" on="0"/>
        <pt x="467" y="631" on="1"/>
        <pt x="534" y="631" on="0"/>
        <pt x="638" y="588" on="0"/>
        <pt x="709" y="512" on="0"/>
        <pt x="746" y="406" on="0"/>
        <pt x="746" y="342" on="1"/>
        <pt x="746" y="273" on="0"/>
        <pt x="713" y="165" on="0"/>
        <pt x="659" y="91" on="0"/>
        <pt x="589" y="52" on="0"/>
        <pt x="553" y="52" on="1"/>
        <pt x="517" y="52" on="0"/>
        <pt x="474" y="94" on="0"/>
        <pt x="467" y="128" on="1"/>
        <pt x="465" y="128" on="1"/>
        <pt x="440" y="99" on="0"/>
        <pt x="384" y="60" on="0"/>
        <pt x="350" y="60" on="1"/>
        <pt x="329" y="60" on="0"/>
        <pt x="289" y="76" on="0"/>
        <pt x="259" y="109" on="0"/>
        <pt x="240" y="158" on="0"/>
        <pt x="240" y="190" on="1"/>
        <pt x="240" y="233" on="0"/>
        <pt x="270" y="316" on="0"/>
        <pt x="322" y="382" on="0"/>
        <pt x="391" y="422" on="0"/>
        <pt x="431" y="422" on="1"/>
        <pt x="455" y="422" on="0"/>
        <pt x="493" y="395" on="0"/>
        <pt x="506" y="371" on="1"/>
        <pt x="508" y="371" on="1"/>
        <pt x="521" y="414" on="1"/>
        <pt x="552" y="414" on="1"/>
        <pt x="504" y="201" on="1"/>
        <pt x="498" y="176" on="0"/>
        <pt x="498" y="134" on="0"/>
        <pt x="511" y="103" on="0"/>
        <pt x="538" y="85" on="0"/>
      </contour>
      <contour>
        <pt x="277" y="197" on="1"/>
        <pt x="277" y="143" on="0"/>
        <pt x="323" y="94" on="0"/>
        <pt x="355" y="94" on="1"/>
        <pt x="381" y="94" on="0"/>
        <pt x="433" y="128" on="0"/>
        <pt x="459" y="163" on="1"/>
        <pt x="498" y="336" on="1"/>
        <pt x="481" y="367" on="0"/>
        <pt x="447" y="389" on="0"/>
        <pt x="430" y="389" on="1"/>
        <pt x="396" y="389" on="0"/>
        <pt x="340" y="353" on="0"/>
        <pt x="299" y="297" on="0"/>
        <pt x="277" y="229" on="0"/>
      </contour>
    </TTGlyph>
    <TTGlyph name="at.case" xMin="105" yMin="-14" xMax="753" yMax="679">
      <contour>
        <pt x="593" y="187" on="1"/>
        <pt x="616" y="187" on="0"/>
        <pt x="661" y="217" on="0"/>
        <pt x="696" y="276" on="0"/>
        <pt x="718" y="361" on="0"/>
        <pt x="718" y="415" on="1"/>
        <pt x="718" y="467" on="0"/>
        <pt x="688" y="552" on="0"/>
        <pt x="631" y="613" on="0"/>
        <pt x="546" y="647" on="0"/>
        <pt x="491" y="647" on="1"/>
        <pt x="423" y="647" on="0"/>
        <pt x="297" y="588" on="0"/>
        <pt x="200" y="483" on="0"/>
        <pt x="141" y="340" on="0"/>
        <pt x="141" y="256" on="1"/>
        <pt x="141" y="200" on="0"/>
        <pt x="174" y="112" on="0"/>
        <pt x="235" y="51" on="0"/>
        <pt x="320" y="18" on="0"/>
        <pt x="372" y="18" on="1"/>
        <pt x="453" y="18" on="0"/>
        <pt x="517" y="55" on="1"/>
        <pt x="529" y="27" on="1"/>
        <pt x="490" y="4" on="0"/>
        <pt x="408" y="-14" on="0"/>
        <pt x="368" y="-14" on="1"/>
        <pt x="310" y="-14" on="0"/>
        <pt x="213" y="23" on="0"/>
        <pt x="144" y="91" on="0"/>
        <pt x="105" y="189" on="0"/>
        <pt x="105" y="249" on="1"/>
        <pt x="105" y="343" on="0"/>
        <pt x="170" y="501" on="0"/>
        <pt x="278" y="615" on="0"/>
        <pt x="418" y="679" on="0"/>
        <pt x="494" y="679" on="1"/>
        <pt x="556" y="679" on="0"/>
        <pt x="653" y="641" on="0"/>
        <pt x="719" y="573" on="0"/>
        <pt x="753" y="478" on="0"/>
        <pt x="753" y="421" on="1"/>
        <pt x="753" y="356" on="0"/>
        <pt x="725" y="257" on="0"/>
        <pt x="678" y="189" on="0"/>
        <pt x="618" y="154" on="0"/>
        <pt x="585" y="154" on="1"/>
        <pt x="550" y="154" on="0"/>
        <pt x="507" y="194" on="0"/>
        <pt x="501" y="228" on="1"/>
        <pt x="498" y="228" on="1"/>
        <pt x="474" y="199" on="0"/>
        <pt x="417" y="162" on="0"/>
        <pt x="384" y="162" on="1"/>
        <pt x="365" y="162" on="0"/>
        <pt x="329" y="178" on="0"/>
        <pt x="301" y="210" on="0"/>
        <pt x="284" y="258" on="0"/>
        <pt x="284" y="290" on="1"/>
        <pt x="284" y="329" on="0"/>
        <pt x="311" y="404" on="0"/>
        <pt x="359" y="463" on="0"/>
        <pt x="423" y="499" on="0"/>
        <pt x="461" y="499" on="1"/>
        <pt x="509" y="499" on="0"/>
        <pt x="536" y="449" on="1"/>
        <pt x="538" y="449" on="1"/>
        <pt x="550" y="493" on="1"/>
        <pt x="582" y="493" on="1"/>
        <pt x="537" y="301" on="1"/>
        <pt x="526" y="251" on="0"/>
        <pt x="549" y="187" on="0"/>
      </contour>
      <contour>
        <pt x="321" y="296" on="1"/>
        <pt x="321" y="243" on="0"/>
        <pt x="362" y="195" on="0"/>
        <pt x="389" y="195" on="1"/>
        <pt x="415" y="195" on="0"/>
        <pt x="467" y="228" on="0"/>
        <pt x="493" y="263" on="1"/>
        <pt x="527" y="415" on="1"/>
        <pt x="510" y="446" on="0"/>
        <pt x="477" y="466" on="0"/>
        <pt x="460" y="466" on="1"/>
        <pt x="428" y="466" on="0"/>
        <pt x="377" y="435" on="0"/>
        <pt x="341" y="385" on="0"/>
        <pt x="321" y="325" on="0"/>
      </contour>
    </TTGlyph>
    <TTGlyph name="atilde" xMin="44" yMin="-12" xMax="485" yMax="669">
      <component glyphName="a" x="0" y="0" flags="0x204"/>
      <component glyphName="uni0303" x="210" y="0" flags="0x4"/>
    </TTGlyph>
    <TTGlyph name="atilde.a" xMin="38" yMin="-12" xMax="442" yMax="669">
      <component glyphName="a.a" x="0" y="0" flags="0x204"/>
      <component glyphName="uni0303" x="189" y="0" flags="0x4"/>
    </TTGlyph>
    <TTGlyph name="b" xMin="40" yMin="-12" xMax="481" yMax="719">
      <contour>
        <pt x="40" y="0" on="1"/>
        <pt x="184" y="719" on="1"/>
        <pt x="225" y="719" on="1"/>
        <pt x="183" y="510" on="1"/>
        <pt x="162" y="413" on="1"/>
        <pt x="164" y="413" on="1"/>
        <pt x="202" y="444" on="0"/>
        <pt x="292" y="492" on="0"/>
        <pt x="341" y="492" on="1"/>
        <pt x="405" y="492" on="0"/>
        <pt x="481" y="404" on="0"/>
        <pt x="481" y="319" on="1"/>
        <pt x="481" y="250" on="0"/>
        <pt x="437" y="129" on="0"/>
        <pt x="364" y="39" on="0"/>
        <pt x="270" y="-12" on="0"/>
        <pt x="221" y="-12" on="1"/>
        <pt x="178" y="-12" on="0"/>
        <pt x="117" y="31" on="0"/>
        <pt x="97" y="66" on="1"/>
        <pt x="94" y="66" on="1"/>
        <pt x="75" y="0" on="1"/>
      </contour>
      <contour>
        <pt x="332" y="456" on="1"/>
        <pt x="292" y="456" on="0"/>
        <pt x="196" y="406" on="0"/>
        <pt x="155" y="367" on="1"/>
        <pt x="103" y="111" on="1"/>
        <pt x="129" y="64" on="0"/>
        <pt x="187" y="24" on="0"/>
        <pt x="221" y="24" on="1"/>
        <pt x="264" y="24" on="0"/>
        <pt x="343" y="73" on="0"/>
        <pt x="404" y="154" on="0"/>
        <pt x="440" y="258" on="0"/>
        <pt x="440" y="312" on="1"/>
        <pt x="440" y="384" on="0"/>
        <pt x="382" y="456" on="0"/>
      </contour>
    </TTGlyph>
    <TTGlyph name="b.sups" xMin="63" yMin="261" xMax="361" yMax="742">
      <contour>
        <pt x="63" y="269" on="1"/>
        <pt x="157" y="742" on="1"/>
        <pt x="192" y="742" on="1"/>
        <pt x="166" y="613" on="1"/>
        <pt x="152" y="547" on="1"/>
        <pt x="154" y="547" on="1"/>
        <pt x="179" y="568" on="0"/>
        <pt x="234" y="595" on="0"/>
        <pt x="267" y="595" on="1"/>
        <pt x="309" y="595" on="0"/>
        <pt x="361" y="535" on="0"/>
        <pt x="361" y="478" on="1"/>
        <pt x="361" y="433" on="0"/>
        <pt x="331" y="353" on="0"/>
        <pt x="282" y="295" on="0"/>
        <pt x="219" y="261" on="0"/>
        <pt x="185" y="261" on="1"/>
        <pt x="161" y="261" on="0"/>
        <pt x="120" y="284" on="0"/>
        <pt x="107" y="310" on="1"/>
        <pt x="103" y="310" on="1"/>
        <pt x="90" y="269" on="1"/>
      </contour>
      <contour>
        <pt x="261" y="564" on="1"/>
        <pt x="232" y="564" on="0"/>
        <pt x="172" y="534" on="0"/>
        <pt x="145" y="508" on="1"/>
        <pt x="113" y="346" on="1"/>
        <pt x="130" y="315" on="0"/>
        <pt x="166" y="292" on="0"/>
        <pt x="186" y="292" on="1"/>
        <pt x="212" y="292" on="0"/>
        <pt x="263" y="323" on="0"/>
        <pt x="302" y="373" on="0"/>
        <pt x="326" y="438" on="0"/>
        <pt x="326" y="473" on="1"/>
        <pt x="326" y="521" on="0"/>
        <pt x="289" y="564" on="0"/>
      </contour>
    </TTGlyph>
    <TTGlyph name="backslash" xMin="89" yMin="-160" xMax="261" yMax="710">
      <contour>
        <pt x="89" y="710" on="1"/>
        <pt x="121" y="710" on="1"/>
        <pt x="261" y="-160" on="1"/>
        <pt x="229" y="-160" on="1"/>
      </contour>
    </TTGlyph>
    <TTGlyph name="bar" xMin="99" yMin="-250" xMax="132" yMax="750">
      <contour>
        <pt x="99" y="750" on="1"/>
        <pt x="132" y="750" on="1"/>
        <pt x="132" y="-250" on="1"/>
        <pt x="99" y="-250" on="1"/>
      </contour>
    </TTGlyph>
    <TTGlyph name="braceleft" xMin="35" yMin="-152" xMax="337" yMax="708">
      <contour>
        <pt x="48" y="-76" on="1"/>
        <pt x="48" y="-49" on="0"/>
        <pt x="66" y="28" on="0"/>
        <pt x="87" y="109" on="0"/>
        <pt x="105" y="184" on="0"/>
        <pt x="105" y="208" on="1"/>
        <pt x="105" y="218" on="0"/>
        <pt x="100" y="237" on="0"/>
        <pt x="85" y="253" on="0"/>
        <pt x="57" y="263" on="0"/>
        <pt x="35" y="263" on="1"/>
        <pt x="42" y="293" on="1"/>
        <pt x="68" y="293" on="0"/>
        <pt x="103" y="308" on="0"/>
        <pt x="125" y="331" on="0"/>
        <pt x="137" y="360" on="0"/>
        <pt x="140" y="375" on="1"/>
        <pt x="149" y="423" on="0"/>
        <pt x="164" y="527" on="0"/>
        <pt x="175" y="578" on="1"/>
        <pt x="182" y="616" on="0"/>
        <pt x="203" y="666" on="0"/>
        <pt x="233" y="696" on="0"/>
        <pt x="274" y="708" on="0"/>
        <pt x="302" y="708" on="1"/>
        <pt x="337" y="708" on="1"/>
        <pt x="332" y="680" on="1"/>
        <pt x="302" y="680" on="1"/>
        <pt x="257" y="680" on="0"/>
        <pt x="218" y="627" on="0"/>
        <pt x="207" y="574" on="1"/>
        <pt x="199" y="529" on="0"/>
        <pt x="185" y="432" on="0"/>
        <pt x="176" y="384" on="1"/>
        <pt x="166" y="339" on="0"/>
        <pt x="133" y="287" on="0"/>
        <pt x="101" y="278" on="1"/>
        <pt x="101" y="274" on="1"/>
        <pt x="123" y="265" on="0"/>
        <pt x="137" y="235" on="0"/>
        <pt x="137" y="218" on="1"/>
        <pt x="137" y="191" on="0"/>
        <pt x="120" y="113" on="0"/>
        <pt x="99" y="32" on="0"/>
        <pt x="82" y="-43" on="0"/>
        <pt x="82" y="-68" on="1"/>
        <pt x="82" y="-96" on="0"/>
        <pt x="108" y="-124" on="0"/>
        <pt x="144" y="-124" on="1"/>
        <pt x="172" y="-124" on="1"/>
        <pt x="165" y="-152" on="1"/>
        <pt x="131" y="-152" on="1"/>
        <pt x="88" y="-152" on="0"/>
        <pt x="48" y="-118" on="0"/>
      </contour>
    </TTGlyph>
    <TTGlyph name="braceright" xMin="-61" yMin="-152" xMax="242" yMax="708">
      <contour>
        <pt x="229" y="632" on="1"/>
        <pt x="229" y="605" on="0"/>
        <pt x="211" y="527" on="0"/>
        <pt x="190" y="445" on="0"/>
        <pt x="172" y="370" on="0"/>
        <pt x="172" y="346" on="1"/>
        <pt x="172" y="337" on="0"/>
        <pt x="177" y="318" on="0"/>
        <pt x="192" y="303" on="0"/>
        <pt x="219" y="293" on="0"/>
        <pt x="242" y="293" on="1"/>
        <pt x="234" y="263" on="1"/>
        <pt x="208" y="263" on="0"/>
        <pt x="173" y="248" on="0"/>
        <pt x="151" y="225" on="0"/>
        <pt x="139" y="196" on="0"/>
        <pt x="136" y="181" on="1"/>
        <pt x="127" y="133" on="0"/>
        <pt x="113" y="27" on="0"/>
        <pt x="102" y="-24" on="1"/>
        <pt x="94" y="-62" on="0"/>
        <pt x="73" y="-111" on="0"/>
        <pt x="43" y="-140" on="0"/>
        <pt x="2" y="-152" on="0"/>
        <pt x="-25" y="-152" on="1"/>
        <pt x="-61" y="-152" on="1"/>
        <pt x="-55" y="-124" on="1"/>
        <pt x="-25" y="-124" on="1"/>
        <pt x="20" y="-124" on="0"/>
        <pt x="59" y="-73" on="0"/>
        <pt x="69" y="-20" on="1"/>
        <pt x="78" y="25" on="0"/>
        <pt x="92" y="122" on="0"/>
        <pt x="101" y="170" on="1"/>
        <pt x="110" y="216" on="0"/>
        <pt x="144" y="269" on="0"/>
        <pt x="176" y="278" on="1"/>
        <pt x="176" y="282" on="1"/>
        <pt x="153" y="291" on="0"/>
        <pt x="139" y="321" on="0"/>
        <pt x="139" y="338" on="1"/>
        <pt x="139" y="364" on="0"/>
        <pt x="156" y="441" on="0"/>
        <pt x="177" y="522" on="0"/>
        <pt x="194" y="597" on="0"/>
        <pt x="194" y="622" on="1"/>
        <pt x="194" y="651" on="0"/>
        <pt x="169" y="680" on="0"/>
        <pt x="133" y="680" on="1"/>
        <pt x="104" y="680" on="1"/>
        <pt x="111" y="708" on="1"/>
        <pt x="145" y="708" on="1"/>
        <pt x="189" y="708" on="0"/>
        <pt x="229" y="672" on="0"/>
      </contour>
    </TTGlyph>
    <TTGlyph name="bracketleft" xMin="15" yMin="-152" xMax="338" yMax="708">
      <contour>
        <pt x="173" y="-124" on="1"/>
        <pt x="166" y="-152" on="1"/>
        <pt x="15" y="-152" on="1"/>
        <pt x="187" y="708" on="1"/>
        <pt x="338" y="708" on="1"/>
        <pt x="335" y="680" on="1"/>
        <pt x="214" y="680" on="1"/>
        <pt x="54" y="-124" on="1"/>
      </contour>
    </TTGlyph>
    <TTGlyph name="bracketright" xMin="-60" yMin="-152" xMax="265" yMax="708">
      <contour>
        <pt x="65" y="-124" on="1"/>
        <pt x="228" y="680" on="1"/>
        <pt x="107" y="680" on="1"/>
        <pt x="112" y="708" on="1"/>
        <pt x="265" y="708" on="1"/>
        <pt x="93" y="-152" on="1"/>
        <pt x="-60" y="-152" on="1"/>
        <pt x="-54" y="-124" on="1"/>
      </contour>
    </TTGlyph>
    <TTGlyph name="breve" xMin="239" yMin="576" xMax="464" yMax="693">
      <component glyphName="uni0306" x="215" y="0" flags="0x4"/>
    </TTGlyph>
    <TTGlyph name="brokenbar" xMin="99" yMin="-250" xMax="132" yMax="750">
      <contour>
        <pt x="99" y="750" on="1"/>
        <pt x="132" y="750" on="1"/>
        <pt x="132" y="278" on="1"/>
        <pt x="99" y="278" on="1"/>
      </contour>
      <contour>
        <pt x="132" y="218" on="1"/>
        <pt x="132" y="-250" on="1"/>
        <pt x="99" y="-250" on="1"/>
        <pt x="99" y="218" on="1"/>
      </contour>
    </TTGlyph>
    <TTGlyph name="bullet" xMin="42" yMin="156" xMax="238" yMax="373">
      <contour>
        <pt x="129" y="156" on="1"/>
        <pt x="91" y="156" on="0"/>
        <pt x="42" y="209" on="0"/>
        <pt x="42" y="251" on="1"/>
        <pt x="42" y="273" on="0"/>
        <pt x="57" y="317" on="0"/>
        <pt x="85" y="352" on="0"/>
        <pt x="126" y="373" on="0"/>
        <pt x="152" y="373" on="1"/>
        <pt x="188" y="373" on="0"/>
        <pt x="238" y="320" on="0"/>
        <pt x="238" y="278" on="1"/>
        <pt x="238" y="255" on="0"/>
        <pt x="223" y="211" on="0"/>
        <pt x="194" y="177" on="0"/>
        <pt x="154" y="156" on="0"/>
      </contour>
    </TTGlyph>
    <TTGlyph name="c" xMin="42" yMin="-12" xMax="422" yMax="492">
      <contour>
        <pt x="42" y="178" on="1"/>
        <pt x="42" y="248" on="0"/>
        <pt x="87" y="363" on="0"/>
        <pt x="160" y="446" on="0"/>
        <pt x="253" y="492" on="0"/>
        <pt x="301" y="492" on="1"/>
        <pt x="343" y="492" on="0"/>
        <pt x="399" y="460" on="0"/>
        <pt x="422" y="434" on="1"/>
        <pt x="396" y="406" on="1"/>
        <pt x="374" y="432" on="0"/>
        <pt x="331" y="456" on="0"/>
        <pt x="298" y="456" on="1"/>
        <pt x="257" y="456" on="0"/>
        <pt x="180" y="412" on="0"/>
        <pt x="120" y="338" on="0"/>
        <pt x="84" y="239" on="0"/>
        <pt x="84" y="184" on="1"/>
        <pt x="84" y="106" on="0"/>
        <pt x="150" y="24" on="0"/>
        <pt x="217" y="24" on="1"/>
        <pt x="253" y="24" on="0"/>
        <pt x="315" y="54" on="0"/>
        <pt x="341" y="74" on="1"/>
        <pt x="362" y="44" on="1"/>
        <pt x="336" y="24" on="0"/>
        <pt x="262" y="-12" on="0"/>
        <pt x="212" y="-12" on="1"/>
        <pt x="134" y="-12" on="0"/>
        <pt x="42" y="87" on="0"/>
      </contour>
    </TTGlyph>
    <TTGlyph name="c.sups" xMin="63" yMin="261" xMax="322" yMax="595">
      <contour>
        <pt x="63" y="388" on="1"/>
        <pt x="63" y="425" on="0"/>
        <pt x="88" y="499" on="0"/>
        <pt x="134" y="558" on="0"/>
        <pt x="198" y="595" on="0"/>
        <pt x="237" y="595" on="1"/>
        <pt x="265" y="595" on="0"/>
        <pt x="306" y="574" on="0"/>
        <pt x="322" y="556" on="1"/>
        <pt x="300" y="533" on="1"/>
        <pt x="286" y="550" on="0"/>
        <pt x="255" y="564" on="0"/>
        <pt x="233" y="564" on="1"/>
        <pt x="204" y="564" on="0"/>
        <pt x="154" y="531" on="0"/>
        <pt x="118" y="481" on="0"/>
        <pt x="97" y="421" on="0"/>
        <pt x="97" y="393" on="1"/>
        <pt x="97" y="342" on="0"/>
        <pt x="149" y="291" on="0"/>
        <pt x="187" y="291" on="1"/>
        <pt x="209" y="291" on="0"/>
        <pt x="247" y="308" on="0"/>
        <pt x="263" y="318" on="1"/>
        <pt x="277" y="293" on="1"/>
        <pt x="261" y="281" on="0"/>
        <pt x="213" y="261" on="0"/>
        <pt x="182" y="261" on="1"/>
        <pt x="129" y="261" on="0"/>
        <pt x="63" y="328" on="0"/>
      </contour>
    </TTGlyph>
    <TTGlyph name="cacute" xMin="42" yMin="-12" xMax="422" yMax="706">
      <component glyphName="c" x="0" y="0" flags="0x204"/>
      <component glyphName="uni0301" x="199" y="0" flags="0x4"/>
    </TTGlyph>
    <TTGlyph name="caron" xMin="246" yMin="570" xMax="465" yMax="706">
      <component glyphName="uni030C" x="215" y="0" flags="0x4"/>
    </TTGlyph>
    <TTGlyph name="ccaron" xMin="42" yMin="-12" xMax="449" yMax="706">
      <component glyphName="c" x="0" y="0" flags="0x204"/>
      <component glyphName="uni030C" x="199" y="0" flags="0x4"/>
    </TTGlyph>
    <TTGlyph name="ccedilla" xMin="42" yMin="-209" xMax="422" yMax="492">
      <component glyphName="c" x="0" y="0" flags="0x204"/>
      <component glyphName="uni0327" x="205" y="0" flags="0x4"/>
    </TTGlyph>
    <TTGlyph name="ccircumflex" xMin="42" yMin="-12" xMax="422" yMax="706">
      <component glyphName="c" x="0" y="0" flags="0x204"/>
      <component glyphName="uni0302" x="199" y="0" flags="0x4"/>
    </TTGlyph>
    <TTGlyph name="cdotaccent" xMin="42" yMin="-12" xMax="422" yMax="674">
      <component glyphName="c" x="0" y="0" flags="0x204"/>
      <component glyphName="uni0307" x="199" y="0" flags="0x4"/>
    </TTGlyph>
    <TTGlyph name="cedilla" xMin="105" yMin="-209" xMax="238" yMax="2">
      <component glyphName="uni0327" x="215" y="0" flags="0x4"/>
    </TTGlyph>
    <TTGlyph name="cent" xMin="81" yMin="-11" xMax="455" yMax="667">
      <contour>
        <pt x="304" y="524" on="1"/>
        <pt x="272" y="521" on="0"/>
        <pt x="207" y="485" on="0"/>
        <pt x="155" y="426" on="0"/>
        <pt x="123" y="345" on="0"/>
        <pt x="123" y="296" on="1"/>
        <pt x="123" y="229" on="0"/>
        <pt x="175" y="145" on="0"/>
        <pt x="227" y="137" on="1"/>
      </contour>
      <contour>
        <pt x="345" y="560" on="1"/>
        <pt x="383" y="555" on="0"/>
        <pt x="436" y="519" on="0"/>
        <pt x="455" y="496" on="1"/>
        <pt x="427" y="469" on="1"/>
        <pt x="407" y="493" on="0"/>
        <pt x="368" y="521" on="0"/>
        <pt x="338" y="524" on="1"/>
        <pt x="261" y="135" on="1"/>
        <pt x="299" y="137" on="0"/>
        <pt x="362" y="166" on="0"/>
        <pt x="387" y="185" on="1"/>
        <pt x="404" y="153" on="1"/>
        <pt x="375" y="135" on="0"/>
        <pt x="305" y="101" on="0"/>
        <pt x="254" y="99" on="1"/>
        <pt x="232" y="-11" on="1"/>
        <pt x="198" y="-11" on="1"/>
        <pt x="220" y="101" on="1"/>
        <pt x="155" y="109" on="0"/>
        <pt x="81" y="204" on="0"/>
        <pt x="81" y="288" on="1"/>
        <pt x="81" y="349" on="0"/>
        <pt x="122" y="448" on="0"/>
        <pt x="188" y="519" on="0"/>
        <pt x="270" y="558" on="0"/>
        <pt x="311" y="561" on="1"/>
        <pt x="332" y="667" on="1"/>
        <pt x="366" y="667" on="1"/>
      </contour>
    </TTGlyph>
    <TTGlyph name="circumflex" xMin="218" yMin="570" xMax="436" yMax="706">
      <component glyphName="uni0302" x="215" y="0" flags="0x4"/>
    </TTGlyph>
    <TTGlyph name="colon" xMin="22" yMin="-12" xMax="170" yMax="466">
      <component glyphName="period" x="68" y="390" flags="0x204"/>
      <component glyphName="period" x="0" y="0" flags="0x4"/>
    </TTGlyph>
    <TTGlyph name="colonmonetary" xMin="65" yMin="-110" xMax="489" yMax="750">
      <contour>
        <pt x="398" y="603" on="1"/>
        <pt x="376" y="616" on="0"/>
        <pt x="345" y="616" on="1"/>
        <pt x="335" y="616" on="1"/>
        <pt x="161" y="58" on="1"/>
        <pt x="184" y="35" on="0"/>
        <pt x="218" y="27" on="1"/>
      </contour>
      <contour>
        <pt x="305" y="611" on="1"/>
        <pt x="264" y="600" on="0"/>
        <pt x="192" y="535" on="0"/>
        <pt x="137" y="435" on="0"/>
        <pt x="105" y="306" on="0"/>
        <pt x="105" y="230" on="1"/>
        <pt x="105" y="138" on="0"/>
        <pt x="140" y="83" on="1"/>
      </contour>
      <contour>
        <pt x="433" y="625" on="1"/>
        <pt x="452" y="611" on="0"/>
        <pt x="479" y="574" on="0"/>
        <pt x="489" y="554" on="1"/>
        <pt x="457" y="534" on="1"/>
        <pt x="441" y="567" on="0"/>
        <pt x="421" y="586" on="1"/>
        <pt x="246" y="24" on="1"/>
        <pt x="247" y="24" on="1"/>
        <pt x="289" y="24" on="0"/>
        <pt x="355" y="62" on="0"/>
        <pt x="382" y="88" on="1"/>
        <pt x="405" y="61" on="1"/>
        <pt x="374" y="30" on="0"/>
        <pt x="295" y="-12" on="0"/>
        <pt x="241" y="-12" on="1"/>
        <pt x="235" y="-12" on="1"/>
        <pt x="204" y="-110" on="1"/>
        <pt x="175" y="-110" on="1"/>
        <pt x="207" y="-9" on="1"/>
        <pt x="172" y="-1" on="0"/>
        <pt x="148" y="16" on="1"/>
        <pt x="109" y="-110" on="1"/>
        <pt x="80" y="-110" on="1"/>
        <pt x="126" y="36" on="1"/>
        <pt x="97" y="67" on="0"/>
        <pt x="65" y="163" on="0"/>
        <pt x="65" y="224" on="1"/>
        <pt x="65" y="312" on="0"/>
        <pt x="106" y="461" on="0"/>
        <pt x="175" y="572" on="0"/>
        <pt x="267" y="641" on="0"/>
        <pt x="318" y="650" on="1"/>
        <pt x="349" y="750" on="1"/>
        <pt x="377" y="750" on="1"/>
        <pt x="346" y="652" on="1"/>
        <pt x="348" y="652" on="1"/>
        <pt x="366" y="652" on="0"/>
        <pt x="396" y="645" on="0"/>
        <pt x="409" y="639" on="1"/>
        <pt x="444" y="750" on="1"/>
        <pt x="472" y="750" on="1"/>
      </contour>
    </TTGlyph>
    <TTGlyph name="comma" xMin="-33" yMin="-151" xMax="111" yMax="76">
      <contour>
        <pt x="-33" y="-121" on="1"/>
        <pt x="8" y="-103" on="0"/>
        <pt x="61" y="-44" on="0"/>
        <pt x="67" y="-7" on="1"/>
        <pt x="62" y="-7" on="1"/>
        <pt x="46" y="-7" on="0"/>
        <pt x="26" y="12" on="0"/>
        <pt x="26" y="28" on="1"/>
        <pt x="26" y="45" on="0"/>
        <pt x="51" y="76" on="0"/>
        <pt x="72" y="76" on="1"/>
        <pt x="91" y="76" on="0"/>
        <pt x="111" y="49" on="0"/>
        <pt x="111" y="27" on="1"/>
        <pt x="111" y="-3" on="0"/>
        <pt x="90" y="-58" on="0"/>
        <pt x="54" y="-105" on="0"/>
        <pt x="5" y="-141" on="0"/>
        <pt x="-24" y="-151" on="1"/>
      </contour>
    </TTGlyph>
    <TTGlyph name="comma.dnom" xMin="-34" yMin="-107" xMax="71" yMax="67">
      <contour>
        <pt x="-34" y="-81" on="1"/>
        <pt x="-8" y="-67" on="0"/>
        <pt x="29" y="-30" on="0"/>
        <pt x="34" y="-2" on="1"/>
        <pt x="29" y="-2" on="1"/>
        <pt x="17" y="-2" on="0"/>
        <pt x="0" y="14" on="0"/>
        <pt x="0" y="28" on="1"/>
        <pt x="0" y="48" on="0"/>
        <pt x="23" y="67" on="0"/>
        <pt x="38" y="67" on="1"/>
        <pt x="53" y="67" on="0"/>
        <pt x="71" y="42" on="0"/>
        <pt x="71" y="21" on="1"/>
        <pt x="71" y="-22" on="0"/>
        <pt x="18" y="-87" on="0"/>
        <pt x="-24" y="-107" on="1"/>
      </contour>
    </TTGlyph>
    <TTGlyph name="comma.numr" xMin="16" yMin="163" xMax="121" yMax="337">
      <component glyphName="comma.dnom" x="50" y="270" flags="0x204"/>
    </TTGlyph>
    <TTGlyph name="comma.subs" xMin="-64" yMin="-276" xMax="41" yMax="-102">
      <component glyphName="comma.dnom" x="-30" y="-169" flags="0x204"/>
    </TTGlyph>
    <TTGlyph name="comma.sups" xMin="55" yMin="333" xMax="160" yMax="507">
      <component glyphName="comma.dnom" x="89" y="440" flags="0x204"/>
    </TTGlyph>
    <TTGlyph name="copyright" xMin="39" yMin="-12" xMax="654" yMax="652">
      <contour>
        <pt x="183" y="273" on="1"/>
        <pt x="183" y="328" on="0"/>
        <pt x="220" y="417" on="0"/>
        <pt x="278" y="478" on="0"/>
        <pt x="349" y="511" on="0"/>
        <pt x="384" y="511" on="1"/>
        <pt x="419" y="511" on="0"/>
        <pt x="462" y="483" on="0"/>
        <pt x="479" y="460" on="1"/>
        <pt x="454" y="438" on="1"/>
        <pt x="439" y="457" on="0"/>
        <pt x="406" y="478" on="0"/>
        <pt x="380" y="478" on="1"/>
        <pt x="353" y="478" on="0"/>
        <pt x="295" y="448" on="0"/>
        <pt x="249" y="396" on="0"/>
        <pt x="219" y="323" on="0"/>
        <pt x="219" y="280" on="1"/>
        <pt x="219" y="218" on="0"/>
        <pt x="278" y="157" on="0"/>
        <pt x="327" y="157" on="1"/>
        <pt x="360" y="157" on="0"/>
        <pt x="414" y="185" on="0"/>
        <pt x="440" y="203" on="1"/>
        <pt x="457" y="176" on="1"/>
        <pt x="427" y="154" on="0"/>
        <pt x="366" y="124" on="0"/>
        <pt x="323" y="124" on="1"/>
        <pt x="261" y="124" on="0"/>
        <pt x="183" y="198" on="0"/>
      </contour>
      <contour>
        <pt x="298" y="-12" on="1"/>
        <pt x="240" y="-12" on="0"/>
        <pt x="145" y="28" on="0"/>
        <pt x="77" y="102" on="0"/>
        <pt x="39" y="203" on="0"/>
        <pt x="39" y="265" on="1"/>
        <pt x="39" y="336" on="0"/>
        <pt x="89" y="475" on="0"/>
        <pt x="182" y="584" on="0"/>
        <pt x="314" y="652" on="0"/>
        <pt x="395" y="652" on="1"/>
        <pt x="453" y="652" on="0"/>
        <pt x="548" y="612" on="0"/>
        <pt x="616" y="539" on="0"/>
        <pt x="654" y="437" on="0"/>
        <pt x="654" y="376" on="1"/>
        <pt x="654" y="305" on="0"/>
        <pt x="603" y="166" on="0"/>
        <pt x="510" y="56" on="0"/>
        <pt x="379" y="-12" on="0"/>
      </contour>
      <contour>
        <pt x="393" y="624" on="1"/>
        <pt x="320" y="624" on="0"/>
        <pt x="200" y="560" on="0"/>
        <pt x="115" y="458" on="0"/>
        <pt x="69" y="332" on="0"/>
        <pt x="69" y="269" on="1"/>
        <pt x="69" y="212" on="0"/>
        <pt x="102" y="119" on="0"/>
        <pt x="162" y="53" on="0"/>
        <pt x="247" y="17" on="0"/>
        <pt x="300" y="17" on="1"/>
        <pt x="373" y="17" on="0"/>
        <pt x="493" y="81" on="0"/>
        <pt x="578" y="183" on="0"/>
        <pt x="624" y="309" on="0"/>
        <pt x="624" y="372" on="1"/>
        <pt x="624" y="429" on="0"/>
        <pt x="591" y="522" on="0"/>
        <pt x="531" y="588" on="0"/>
        <pt x="446" y="624" on="0"/>
      </contour>
    </TTGlyph>
    <TTGlyph name="currency" xMin="13" yMin="124" xMax="474" yMax="540">
      <contour>
        <pt x="332" y="194" on="1"/>
        <pt x="306" y="171" on="0"/>
        <pt x="242" y="144" on="0"/>
        <pt x="208" y="144" on="1"/>
        <pt x="141" y="144" on="0"/>
        <pt x="106" y="190" on="1"/>
        <pt x="34" y="127" on="1"/>
        <pt x="13" y="153" on="1"/>
        <pt x="87" y="218" on="1"/>
        <pt x="81" y="234" on="0"/>
        <pt x="74" y="271" on="0"/>
        <pt x="74" y="294" on="1"/>
        <pt x="74" y="340" on="0"/>
        <pt x="106" y="421" on="0"/>
        <pt x="135" y="452" on="1"/>
        <pt x="87" y="516" on="1"/>
        <pt x="114" y="538" on="1"/>
        <pt x="161" y="475" on="1"/>
        <pt x="187" y="495" on="0"/>
        <pt x="247" y="519" on="0"/>
        <pt x="279" y="519" on="1"/>
        <pt x="311" y="519" on="0"/>
        <pt x="361" y="496" on="0"/>
        <pt x="379" y="475" on="1"/>
        <pt x="453" y="540" on="1"/>
        <pt x="474" y="514" on="1"/>
        <pt x="398" y="447" on="1"/>
        <pt x="413" y="415" on="0"/>
        <pt x="413" y="369" on="1"/>
        <pt x="413" y="325" on="0"/>
        <pt x="383" y="247" on="0"/>
        <pt x="357" y="218" on="1"/>
        <pt x="412" y="145" on="1"/>
        <pt x="386" y="124" on="1"/>
      </contour>
      <contour>
        <pt x="275" y="485" on="1"/>
        <pt x="245" y="485" on="0"/>
        <pt x="187" y="457" on="0"/>
        <pt x="141" y="407" on="0"/>
        <pt x="113" y="340" on="0"/>
        <pt x="113" y="301" on="1"/>
        <pt x="113" y="241" on="0"/>
        <pt x="163" y="179" on="0"/>
        <pt x="211" y="179" on="1"/>
        <pt x="241" y="179" on="0"/>
        <pt x="299" y="207" on="0"/>
        <pt x="345" y="257" on="0"/>
        <pt x="373" y="324" on="0"/>
        <pt x="373" y="363" on="1"/>
        <pt x="373" y="423" on="0"/>
        <pt x="323" y="485" on="0"/>
      </contour>
    </TTGlyph>
    <TTGlyph name="d" xMin="44" yMin="-12" xMax="534" yMax="719">
      <contour>
        <pt x="451" y="510" on="1"/>
        <pt x="493" y="719" on="1"/>
        <pt x="534" y="719" on="1"/>
        <pt x="389" y="0" on="1"/>
        <pt x="354" y="0" on="1"/>
        <pt x="365" y="76" on="1"/>
        <pt x="361" y="76" on="1"/>
        <pt x="324" y="38" on="0"/>
        <pt x="234" y="-12" on="0"/>
        <pt x="184" y="-12" on="1"/>
        <pt x="121" y="-12" on="0"/>
        <pt x="44" y="76" on="0"/>
        <pt x="44" y="161" on="1"/>
        <pt x="44" y="230" on="0"/>
        <pt x="88" y="351" on="0"/>
        <pt x="161" y="441" on="0"/>
        <pt x="255" y="492" on="0"/>
        <pt x="305" y="492" on="1"/>
        <pt x="347" y="492" on="0"/>
        <pt x="409" y="450" on="0"/>
        <pt x="428" y="415" on="1"/>
        <pt x="432" y="415" on="1"/>
      </contour>
      <contour>
        <pt x="193" y="24" on="1"/>
        <pt x="240" y="24" on="0"/>
        <pt x="330" y="78" on="0"/>
        <pt x="373" y="128" on="1"/>
        <pt x="423" y="369" on="1"/>
        <pt x="397" y="416" on="0"/>
        <pt x="338" y="456" on="0"/>
        <pt x="304" y="456" on="1"/>
        <pt x="261" y="456" on="0"/>
        <pt x="182" y="407" on="0"/>
        <pt x="122" y="326" on="0"/>
        <pt x="86" y="223" on="0"/>
        <pt x="86" y="169" on="1"/>
        <pt x="86" y="96" on="0"/>
        <pt x="143" y="24" on="0"/>
      </contour>
    </TTGlyph>
    <TTGlyph name="d.sups" xMin="63" yMin="261" xMax="390" yMax="736">
      <contour>
        <pt x="331" y="610" on="1"/>
        <pt x="356" y="736" on="1"/>
        <pt x="390" y="736" on="1"/>
        <pt x="298" y="269" on="1"/>
        <pt x="270" y="269" on="1"/>
        <pt x="279" y="320" on="1"/>
        <pt x="275" y="320" on="1"/>
        <pt x="249" y="293" on="0"/>
        <pt x="190" y="261" on="0"/>
        <pt x="157" y="261" on="1"/>
        <pt x="115" y="261" on="0"/>
        <pt x="63" y="320" on="0"/>
        <pt x="63" y="378" on="1"/>
        <pt x="63" y="423" on="0"/>
        <pt x="93" y="502" on="0"/>
        <pt x="142" y="561" on="0"/>
        <pt x="205" y="595" on="0"/>
        <pt x="239" y="595" on="1"/>
        <pt x="263" y="595" on="0"/>
        <pt x="304" y="572" on="0"/>
        <pt x="317" y="546" on="1"/>
        <pt x="321" y="546" on="1"/>
      </contour>
      <contour>
        <pt x="163" y="292" on="1"/>
        <pt x="192" y="292" on="0"/>
        <pt x="256" y="331" on="0"/>
        <pt x="283" y="362" on="1"/>
        <pt x="311" y="509" on="1"/>
        <pt x="294" y="541" on="0"/>
        <pt x="258" y="564" on="0"/>
        <pt x="238" y="564" on="1"/>
        <pt x="212" y="564" on="0"/>
        <pt x="161" y="533" on="0"/>
        <pt x="122" y="482" on="0"/>
        <pt x="98" y="417" on="0"/>
        <pt x="98" y="383" on="1"/>
        <pt x="98" y="335" on="0"/>
        <pt x="135" y="292" on="0"/>
      </contour>
    </TTGlyph>
    <TTGlyph name="dagger" xMin="112" yMin="-80" xMax="407" yMax="712">
      <contour>
        <pt x="240" y="525" on="1"/>
        <pt x="112" y="522" on="1"/>
        <pt x="120" y="562" on="1"/>
        <pt x="245" y="559" on="1"/>
        <pt x="273" y="712" on="1"/>
        <pt x="313" y="712" on="1"/>
        <pt x="281" y="559" on="1"/>
        <pt x="407" y="562" on="1"/>
        <pt x="399" y="522" on="1"/>
        <pt x="274" y="525" on="1"/>
        <pt x="155" y="-80" on="1"/>
        <pt x="115" y="-80" on="1"/>
      </contour>
    </TTGlyph>
    <TTGlyph name="daggerdbl" xMin="22" yMin="-80" xMax="407" yMax="712">
      <contour>
        <pt x="30" y="109" on="1"/>
        <pt x="156" y="106" on="1"/>
        <pt x="195" y="316" on="1"/>
        <pt x="240" y="526" on="1"/>
        <pt x="112" y="522" on="1"/>
        <pt x="120" y="562" on="1"/>
        <pt x="245" y="559" on="1"/>
        <pt x="273" y="712" on="1"/>
        <pt x="313" y="712" on="1"/>
        <pt x="281" y="559" on="1"/>
        <pt x="407" y="562" on="1"/>
        <pt x="399" y="522" on="1"/>
        <pt x="274" y="526" on="1"/>
        <pt x="235" y="316" on="1"/>
        <pt x="190" y="106" on="1"/>
        <pt x="318" y="109" on="1"/>
        <pt x="310" y="70" on="1"/>
        <pt x="184" y="72" on="1"/>
        <pt x="157" y="-80" on="1"/>
        <pt x="117" y="-80" on="1"/>
        <pt x="148" y="72" on="1"/>
        <pt x="22" y="70" on="1"/>
      </contour>
    </TTGlyph>
    <TTGlyph name="dcaron" xMin="44" yMin="-12" xMax="628" yMax="754">
      <component glyphName="d" x="0" y="0" flags="0x4"/>
      <component glyphName="uni030C.a" x="526" y="0" flags="0x4"/>
    </TTGlyph>
    <TTGlyph name="dcroat" xMin="44" yMin="-12" xMax="586" yMax="719">
      <contour>
        <pt x="419" y="349" on="1"/>
        <pt x="394" y="396" on="0"/>
        <pt x="336" y="436" on="0"/>
        <pt x="302" y="436" on="1"/>
        <pt x="260" y="436" on="0"/>
        <pt x="182" y="388" on="0"/>
        <pt x="122" y="311" on="0"/>
        <pt x="86" y="216" on="0"/>
        <pt x="86" y="169" on="1"/>
        <pt x="86" y="96" on="0"/>
        <pt x="143" y="24" on="0"/>
        <pt x="193" y="24" on="1"/>
        <pt x="240" y="24" on="0"/>
        <pt x="330" y="78" on="0"/>
        <pt x="373" y="128" on="1"/>
      </contour>
      <contour>
        <pt x="579" y="585" on="1"/>
        <pt x="506" y="581" on="1"/>
        <pt x="389" y="0" on="1"/>
        <pt x="354" y="0" on="1"/>
        <pt x="365" y="76" on="1"/>
        <pt x="361" y="76" on="1"/>
        <pt x="324" y="38" on="0"/>
        <pt x="234" y="-12" on="0"/>
        <pt x="184" y="-12" on="1"/>
        <pt x="121" y="-12" on="0"/>
        <pt x="44" y="76" on="0"/>
        <pt x="44" y="161" on="1"/>
        <pt x="44" y="223" on="0"/>
        <pt x="88" y="336" on="0"/>
        <pt x="160" y="421" on="0"/>
        <pt x="253" y="472" on="0"/>
        <pt x="303" y="472" on="1"/>
        <pt x="345" y="472" on="0"/>
        <pt x="407" y="430" on="0"/>
        <pt x="424" y="395" on="1"/>
        <pt x="428" y="395" on="1"/>
        <pt x="447" y="490" on="1"/>
        <pt x="465" y="581" on="1"/>
        <pt x="302" y="581" on="1"/>
        <pt x="309" y="612" on="1"/>
        <pt x="472" y="612" on="1"/>
        <pt x="493" y="719" on="1"/>
        <pt x="534" y="719" on="1"/>
        <pt x="512" y="612" on="1"/>
        <pt x="586" y="612" on="1"/>
      </contour>
    </TTGlyph>
    <TTGlyph name="degree" xMin="105" yMin="450" xMax="319" yMax="684">
      <contour>
        <pt x="201" y="450" on="1"/>
        <pt x="159" y="450" on="0"/>
        <pt x="105" y="506" on="0"/>
        <pt x="105" y="551" on="1"/>
        <pt x="105" y="578" on="0"/>
        <pt x="123" y="626" on="0"/>
        <pt x="155" y="663" on="0"/>
        <pt x="198" y="684" on="0"/>
        <pt x="223" y="684" on="1"/>
        <pt x="265" y="684" on="0"/>
        <pt x="319" y="628" on="0"/>
        <pt x="319" y="583" on="1"/>
        <pt x="319" y="556" on="0"/>
        <pt x="301" y="508" on="0"/>
        <pt x="269" y="471" on="0"/>
        <pt x="226" y="450" on="0"/>
      </contour>
      <contour>
        <pt x="221" y="655" on="1"/>
        <pt x="202" y="655" on="0"/>
        <pt x="171" y="638" on="0"/>
        <pt x="148" y="609" on="0"/>
        <pt x="136" y="573" on="0"/>
        <pt x="136" y="555" on="1"/>
        <pt x="136" y="523" on="0"/>
        <pt x="172" y="479" on="0"/>
        <pt x="203" y="479" on="1"/>
        <pt x="222" y="479" on="0"/>
        <pt x="253" y="496" on="0"/>
        <pt x="275" y="525" on="0"/>
        <pt x="287" y="561" on="0"/>
        <pt x="287" y="579" on="1"/>
        <pt x="287" y="611" on="0"/>
        <pt x="252" y="655" on="0"/>
      </contour>
    </TTGlyph>
    <TTGlyph name="dieresis" xMin="232" yMin="598" xMax="450" yMax="671">
      <component glyphName="uni0308" x="215" y="0" flags="0x4"/>
    </TTGlyph>
    <TTGlyph name="divide" xMin="48" yMin="109" xMax="442" yMax="549">
      <contour>
        <pt x="245" y="473" on="1"/>
        <pt x="229" y="473" on="0"/>
        <pt x="209" y="496" on="0"/>
        <pt x="209" y="512" on="1"/>
        <pt x="209" y="528" on="0"/>
        <pt x="229" y="549" on="0"/>
        <pt x="245" y="549" on="1"/>
        <pt x="261" y="549" on="0"/>
        <pt x="281" y="528" on="0"/>
        <pt x="281" y="512" on="1"/>
        <pt x="281" y="496" on="0"/>
        <pt x="261" y="473" on="0"/>
      </contour>
      <contour>
        <pt x="245" y="109" on="1"/>
        <pt x="229" y="109" on="0"/>
        <pt x="209" y="132" on="0"/>
        <pt x="209" y="148" on="1"/>
        <pt x="209" y="164" on="0"/>
        <pt x="229" y="185" on="0"/>
        <pt x="245" y="185" on="1"/>
        <pt x="261" y="185" on="0"/>
        <pt x="281" y="164" on="0"/>
        <pt x="281" y="148" on="1"/>
        <pt x="281" y="132" on="0"/>
        <pt x="261" y="109" on="0"/>
      </contour>
      <contour>
        <pt x="48" y="314" on="1"/>
        <pt x="48" y="348" on="1"/>
        <pt x="442" y="348" on="1"/>
        <pt x="442" y="314" on="1"/>
      </contour>
    </TTGlyph>
    <TTGlyph name="dollar" xMin="23" yMin="-110" xMax="445" yMax="750">
      <contour>
        <pt x="329" y="649" on="1"/>
        <pt x="365" y="641" on="0"/>
        <pt x="426" y="596" on="0"/>
        <pt x="445" y="567" on="1"/>
        <pt x="415" y="542" on="1"/>
        <pt x="395" y="573" on="0"/>
        <pt x="334" y="616" on="0"/>
        <pt x="296" y="616" on="1"/>
        <pt x="268" y="616" on="0"/>
        <pt x="221" y="598" on="0"/>
        <pt x="186" y="567" on="0"/>
        <pt x="166" y="522" on="0"/>
        <pt x="166" y="495" on="1"/>
        <pt x="166" y="460" on="0"/>
        <pt x="198" y="411" on="0"/>
        <pt x="247" y="369" on="0"/>
        <pt x="304" y="330" on="0"/>
        <pt x="353" y="281" on="0"/>
        <pt x="385" y="218" on="0"/>
        <pt x="385" y="173" on="1"/>
        <pt x="385" y="135" on="0"/>
        <pt x="358" y="68" on="0"/>
        <pt x="310" y="18" on="0"/>
        <pt x="242" y="-11" on="0"/>
        <pt x="201" y="-12" on="1"/>
        <pt x="182" y="-110" on="1"/>
        <pt x="146" y="-110" on="1"/>
        <pt x="166" y="-10" on="1"/>
        <pt x="120" y="-2" on="0"/>
        <pt x="46" y="50" on="0"/>
        <pt x="23" y="79" on="1"/>
        <pt x="51" y="107" on="1"/>
        <pt x="74" y="75" on="0"/>
        <pt x="148" y="24" on="0"/>
        <pt x="197" y="24" on="1"/>
        <pt x="228" y="24" on="0"/>
        <pt x="282" y="45" on="0"/>
        <pt x="322" y="82" on="0"/>
        <pt x="344" y="134" on="0"/>
        <pt x="344" y="165" on="1"/>
        <pt x="344" y="206" on="0"/>
        <pt x="312" y="265" on="0"/>
        <pt x="263" y="311" on="0"/>
        <pt x="206" y="351" on="0"/>
        <pt x="157" y="395" on="0"/>
        <pt x="125" y="450" on="0"/>
        <pt x="125" y="488" on="1"/>
        <pt x="125" y="523" on="0"/>
        <pt x="150" y="583" on="0"/>
        <pt x="195" y="626" on="0"/>
        <pt x="257" y="651" on="0"/>
        <pt x="293" y="652" on="1"/>
        <pt x="314" y="750" on="1"/>
        <pt x="350" y="750" on="1"/>
      </contour>
    </TTGlyph>
    <TTGlyph name="dong" xMin="35" yMin="0" xMax="526" yMax="676">
      <contour>
        <pt x="42" y="31" on="1"/>
        <pt x="364" y="31" on="1"/>
        <pt x="357" y="0" on="1"/>
        <pt x="35" y="0" on="1"/>
      </contour>
      <contour>
        <pt x="366" y="383" on="1"/>
        <pt x="351" y="412" on="0"/>
        <pt x="308" y="441" on="0"/>
        <pt x="283" y="441" on="1"/>
        <pt x="253" y="441" on="0"/>
        <pt x="193" y="410" on="0"/>
        <pt x="146" y="357" on="0"/>
        <pt x="116" y="285" on="0"/>
        <pt x="116" y="244" on="1"/>
        <pt x="116" y="197" on="0"/>
        <pt x="155" y="141" on="0"/>
        <pt x="197" y="141" on="1"/>
        <pt x="230" y="141" on="0"/>
        <pt x="294" y="173" on="0"/>
        <pt x="331" y="205" on="1"/>
      </contour>
      <contour>
        <pt x="519" y="568" on="1"/>
        <pt x="441" y="564" on="1"/>
        <pt x="351" y="117" on="1"/>
        <pt x="318" y="117" on="1"/>
        <pt x="325" y="166" on="1"/>
        <pt x="323" y="166" on="1"/>
        <pt x="295" y="142" on="0"/>
        <pt x="225" y="107" on="0"/>
        <pt x="190" y="107" on="1"/>
        <pt x="136" y="107" on="0"/>
        <pt x="77" y="179" on="0"/>
        <pt x="77" y="236" on="1"/>
        <pt x="77" y="287" on="0"/>
        <pt x="113" y="374" on="0"/>
        <pt x="171" y="437" on="0"/>
        <pt x="246" y="473" on="0"/>
        <pt x="284" y="473" on="1"/>
        <pt x="319" y="473" on="0"/>
        <pt x="360" y="442" on="0"/>
        <pt x="375" y="419" on="1"/>
        <pt x="392" y="514" on="1"/>
        <pt x="402" y="564" on="1"/>
        <pt x="271" y="564" on="1"/>
        <pt x="278" y="595" on="1"/>
        <pt x="409" y="595" on="1"/>
        <pt x="426" y="676" on="1"/>
        <pt x="464" y="676" on="1"/>
        <pt x="448" y="595" on="1"/>
        <pt x="526" y="595" on="1"/>
      </contour>
    </TTGlyph>
    <TTGlyph name="dotaccent" xMin="301" yMin="596" xMax="377" yMax="674">
      <component glyphName="uni0307" x="215" y="0" flags="0x4"/>
    </TTGlyph>
    <TTGlyph name="dotlessi" xMin="40" yMin="0" xMax="178" yMax="480">
      <contour>
        <pt x="137" y="480" on="1"/>
        <pt x="178" y="480" on="1"/>
        <pt x="82" y="0" on="1"/>
        <pt x="40" y="0" on="1"/>
      </contour>
    </TTGlyph>
    <TTGlyph name="e" xMin="42" yMin="-12" xMax="436" yMax="492">
      <contour>
        <pt x="42" y="186" on="1"/>
        <pt x="42" y="254" on="0"/>
        <pt x="86" y="367" on="0"/>
        <pt x="156" y="448" on="0"/>
        <pt x="246" y="492" on="0"/>
        <pt x="292" y="492" on="1"/>
        <pt x="331" y="492" on="0"/>
        <pt x="386" y="467" on="0"/>
        <pt x="420" y="422" on="0"/>
        <pt x="436" y="359" on="0"/>
        <pt x="436" y="322" on="1"/>
        <pt x="436" y="296" on="0"/>
        <pt x="428" y="252" on="0"/>
        <pt x="423" y="238" on="1"/>
        <pt x="88" y="238" on="1"/>
        <pt x="78" y="181" on="0"/>
        <pt x="94" y="100" on="0"/>
        <pt x="134" y="48" on="0"/>
        <pt x="195" y="23" on="0"/>
        <pt x="231" y="23" on="1"/>
        <pt x="263" y="23" on="0"/>
        <pt x="325" y="51" on="0"/>
        <pt x="351" y="70" on="1"/>
        <pt x="370" y="40" on="1"/>
        <pt x="341" y="19" on="0"/>
        <pt x="267" y="-12" on="0"/>
        <pt x="225" y="-12" on="1"/>
        <pt x="141" y="-12" on="0"/>
        <pt x="42" y="89" on="0"/>
      </contour>
      <contour>
        <pt x="392" y="271" on="1"/>
        <pt x="398" y="299" on="0"/>
        <pt x="398" y="328" on="1"/>
        <pt x="398" y="352" on="0"/>
        <pt x="387" y="399" on="0"/>
        <pt x="361" y="435" on="0"/>
        <pt x="319" y="457" on="0"/>
        <pt x="288" y="457" on="1"/>
        <pt x="256" y="457" on="0"/>
        <pt x="195" y="430" on="0"/>
        <pt x="143" y="380" on="0"/>
        <pt x="104" y="312" on="0"/>
        <pt x="94" y="271" on="1"/>
      </contour>
    </TTGlyph>
    <TTGlyph name="e.sups" xMin="63" yMin="261" xMax="332" yMax="595">
      <contour>
        <pt x="63" y="394" on="1"/>
        <pt x="63" y="439" on="0"/>
        <pt x="92" y="513" on="0"/>
        <pt x="140" y="566" on="0"/>
        <pt x="200" y="595" on="0"/>
        <pt x="231" y="595" on="1"/>
        <pt x="260" y="595" on="0"/>
        <pt x="299" y="575" on="0"/>
        <pt x="322" y="543" on="0"/>
        <pt x="332" y="502" on="0"/>
        <pt x="332" y="481" on="1"/>
        <pt x="332" y="464" on="0"/>
        <pt x="326" y="434" on="0"/>
        <pt x="321" y="423" on="1"/>
        <pt x="100" y="423" on="1"/>
        <pt x="91" y="363" on="0"/>
        <pt x="138" y="291" on="0"/>
        <pt x="190" y="291" on="1"/>
        <pt x="216" y="291" on="0"/>
        <pt x="256" y="309" on="0"/>
        <pt x="273" y="320" on="1"/>
        <pt x="287" y="293" on="1"/>
        <pt x="267" y="282" on="0"/>
        <pt x="216" y="261" on="0"/>
        <pt x="185" y="261" on="1"/>
        <pt x="128" y="261" on="0"/>
        <pt x="63" y="329" on="0"/>
      </contour>
      <contour>
        <pt x="296" y="451" on="1"/>
        <pt x="299" y="461" on="0"/>
        <pt x="300" y="476" on="0"/>
        <pt x="300" y="483" on="1"/>
        <pt x="300" y="515" on="0"/>
        <pt x="266" y="565" on="0"/>
        <pt x="228" y="565" on="1"/>
        <pt x="210" y="565" on="0"/>
        <pt x="171" y="548" on="0"/>
        <pt x="138" y="518" on="0"/>
        <pt x="112" y="476" on="0"/>
        <pt x="106" y="451" on="1"/>
      </contour>
    </TTGlyph>
    <TTGlyph name="eacute" xMin="42" yMin="-12" xMax="436" yMax="706">
      <component glyphName="e" x="0" y="0" flags="0x204"/>
      <component glyphName="uni0301" x="191" y="0" flags="0x4"/>
    </TTGlyph>
    <TTGlyph name="eacute.sups" xMin="64" yMin="270" xMax="334" yMax="736">
      <contour>
        <pt x="277" y="736" on="1"/>
        <pt x="318" y="736" on="1"/>
        <pt x="231" y="645" on="1"/>
        <pt x="199" y="645" on="1"/>
      </contour>
      <contour>
        <pt x="64" y="403" on="1"/>
        <pt x="64" y="447" on="0"/>
        <pt x="93" y="521" on="0"/>
        <pt x="141" y="574" on="0"/>
        <pt x="202" y="604" on="0"/>
        <pt x="233" y="604" on="1"/>
        <pt x="262" y="604" on="0"/>
        <pt x="301" y="584" on="0"/>
        <pt x="324" y="552" on="0"/>
        <pt x="334" y="511" on="0"/>
        <pt x="334" y="490" on="1"/>
        <pt x="334" y="473" on="0"/>
        <pt x="328" y="443" on="0"/>
        <pt x="323" y="432" on="1"/>
        <pt x="102" y="432" on="1"/>
        <pt x="92" y="372" on="0"/>
        <pt x="140" y="300" on="0"/>
        <pt x="192" y="300" on="1"/>
        <pt x="218" y="300" on="0"/>
        <pt x="257" y="318" on="0"/>
        <pt x="274" y="329" on="1"/>
        <pt x="288" y="302" on="1"/>
        <pt x="269" y="291" on="0"/>
        <pt x="218" y="270" on="0"/>
        <pt x="187" y="270" on="1"/>
        <pt x="130" y="270" on="0"/>
        <pt x="64" y="338" on="0"/>
      </contour>
      <contour>
        <pt x="298" y="460" on="1"/>
        <pt x="300" y="470" on="0"/>
        <pt x="301" y="485" on="0"/>
        <pt x="301" y="492" on="1"/>
        <pt x="301" y="524" on="0"/>
        <pt x="268" y="574" on="0"/>
        <pt x="230" y="574" on="1"/>
        <pt x="211" y="574" on="0"/>
        <pt x="173" y="557" on="0"/>
        <pt x="140" y="527" on="0"/>
        <pt x="114" y="485" on="0"/>
        <pt x="108" y="460" on="1"/>
      </contour>
    </TTGlyph>
    <TTGlyph name="ebreve" xMin="42" yMin="-12" xMax="440" yMax="693">
      <component glyphName="e" x="0" y="0" flags="0x204"/>
      <component glyphName="uni0306" x="191" y="0" flags="0x4"/>
    </TTGlyph>
    <TTGlyph name="ecaron" xMin="42" yMin="-12" xMax="441" yMax="706">
      <component glyphName="e" x="0" y="0" flags="0x204"/>
      <component glyphName="uni030C" x="191" y="0" flags="0x4"/>
    </TTGlyph>
    <TTGlyph name="ecircumflex" xMin="42" yMin="-12" xMax="436" yMax="706">
      <component glyphName="e" x="0" y="0" flags="0x204"/>
      <component glyphName="uni0302" x="191" y="0" flags="0x4"/>
    </TTGlyph>
    <TTGlyph name="edieresis" xMin="42" yMin="-12" xMax="436" yMax="671">
      <component glyphName="e" x="0" y="0" flags="0x204"/>
      <component glyphName="uni0308" x="191" y="0" flags="0x4"/>
    </TTGlyph>
    <TTGlyph name="edotaccent" xMin="42" yMin="-12" xMax="436" yMax="674">
      <component glyphName="e" x="0" y="0" flags="0x204"/>
      <component glyphName="uni0307" x="191" y="0" flags="0x4"/>
    </TTGlyph>
    <TTGlyph name="egrave" xMin="42" yMin="-12" xMax="436" yMax="706">
      <component glyphName="e" x="0" y="0" flags="0x204"/>
      <component glyphName="uni0300" x="191" y="0" flags="0x4"/>
    </TTGlyph>
    <TTGlyph name="egrave.sups" xMin="64" yMin="270" xMax="334" yMax="736">
      <contour>
        <pt x="195" y="736" on="1"/>
        <pt x="232" y="736" on="1"/>
        <pt x="272" y="645" on="1"/>
        <pt x="244" y="645" on="1"/>
      </contour>
      <contour>
        <pt x="64" y="403" on="1"/>
        <pt x="64" y="447" on="0"/>
        <pt x="93" y="521" on="0"/>
        <pt x="141" y="574" on="0"/>
        <pt x="202" y="604" on="0"/>
        <pt x="233" y="604" on="1"/>
        <pt x="262" y="604" on="0"/>
        <pt x="301" y="584" on="0"/>
        <pt x="324" y="552" on="0"/>
        <pt x="334" y="511" on="0"/>
        <pt x="334" y="490" on="1"/>
        <pt x="334" y="473" on="0"/>
        <pt x="328" y="443" on="0"/>
        <pt x="323" y="432" on="1"/>
        <pt x="102" y="432" on="1"/>
        <pt x="92" y="372" on="0"/>
        <pt x="140" y="300" on="0"/>
        <pt x="192" y="300" on="1"/>
        <pt x="218" y="300" on="0"/>
        <pt x="257" y="318" on="0"/>
        <pt x="274" y="329" on="1"/>
        <pt x="288" y="302" on="1"/>
        <pt x="269" y="291" on="0"/>
        <pt x="218" y="270" on="0"/>
        <pt x="187" y="270" on="1"/>
        <pt x="130" y="270" on="0"/>
        <pt x="64" y="338" on="0"/>
      </contour>
      <contour>
        <pt x="298" y="460" on="1"/>
        <pt x="300" y="470" on="0"/>
        <pt x="301" y="485" on="0"/>
        <pt x="301" y="492" on="1"/>
        <pt x="301" y="524" on="0"/>
        <pt x="268" y="574" on="0"/>
        <pt x="230" y="574" on="1"/>
        <pt x="211" y="574" on="0"/>
        <pt x="173" y="557" on="0"/>
        <pt x="140" y="527" on="0"/>
        <pt x="114" y="485" on="0"/>
        <pt x="108" y="460" on="1"/>
      </contour>
    </TTGlyph>
    <TTGlyph name="eight" xMin="34" yMin="-12" xMax="456" yMax="651">
      <contour>
        <pt x="214" y="338" on="1"/>
        <pt x="183" y="321" on="0"/>
        <pt x="132" y="285" on="0"/>
        <pt x="95" y="242" on="0"/>
        <pt x="74" y="190" on="0"/>
        <pt x="74" y="158" on="1"/>
        <pt x="74" y="125" on="0"/>
        <pt x="98" y="74" on="0"/>
        <pt x="137" y="39" on="0"/>
        <pt x="189" y="22" on="0"/>
        <pt x="216" y="22" on="1"/>
        <pt x="246" y="22" on="0"/>
        <pt x="305" y="41" on="0"/>
        <pt x="350" y="79" on="0"/>
        <pt x="378" y="132" on="0"/>
        <pt x="378" y="167" on="1"/>
        <pt x="378" y="200" on="0"/>
        <pt x="350" y="249" on="0"/>
        <pt x="304" y="288" on="0"/>
        <pt x="245" y="321" on="0"/>
      </contour>
      <contour>
        <pt x="299" y="334" on="1"/>
        <pt x="321" y="347" on="0"/>
        <pt x="364" y="381" on="0"/>
        <pt x="397" y="423" on="0"/>
        <pt x="417" y="472" on="0"/>
        <pt x="417" y="501" on="1"/>
        <pt x="417" y="529" on="0"/>
        <pt x="398" y="572" on="0"/>
        <pt x="367" y="602" on="0"/>
        <pt x="326" y="617" on="0"/>
        <pt x="304" y="617" on="1"/>
        <pt x="278" y="617" on="0"/>
        <pt x="230" y="599" on="0"/>
        <pt x="193" y="565" on="0"/>
        <pt x="171" y="517" on="0"/>
        <pt x="171" y="486" on="1"/>
        <pt x="171" y="457" on="0"/>
        <pt x="189" y="412" on="0"/>
        <pt x="222" y="377" on="0"/>
        <pt x="270" y="348" on="0"/>
      </contour>
      <contour>
        <pt x="34" y="154" on="1"/>
        <pt x="34" y="192" on="0"/>
        <pt x="60" y="254" on="0"/>
        <pt x="104" y="304" on="0"/>
        <pt x="160" y="341" on="0"/>
        <pt x="190" y="355" on="1"/>
        <pt x="190" y="359" on="1"/>
        <pt x="161" y="386" on="0"/>
        <pt x="132" y="443" on="0"/>
        <pt x="132" y="483" on="1"/>
        <pt x="132" y="523" on="0"/>
        <pt x="161" y="585" on="0"/>
        <pt x="209" y="628" on="0"/>
        <pt x="272" y="651" on="0"/>
        <pt x="307" y="651" on="1"/>
        <pt x="336" y="651" on="0"/>
        <pt x="390" y="633" on="0"/>
        <pt x="431" y="596" on="0"/>
        <pt x="456" y="541" on="0"/>
        <pt x="456" y="505" on="1"/>
        <pt x="456" y="472" on="0"/>
        <pt x="437" y="417" on="0"/>
        <pt x="402" y="372" on="0"/>
        <pt x="355" y="335" on="0"/>
        <pt x="328" y="319" on="1"/>
        <pt x="328" y="315" on="1"/>
        <pt x="340" y="306" on="0"/>
        <pt x="372" y="279" on="0"/>
        <pt x="399" y="243" on="0"/>
        <pt x="418" y="199" on="0"/>
        <pt x="418" y="173" on="1"/>
        <pt x="418" y="130" on="0"/>
        <pt x="385" y="61" on="0"/>
        <pt x="330" y="13" on="0"/>
        <pt x="256" y="-12" on="0"/>
        <pt x="215" y="-12" on="1"/>
        <pt x="180" y="-12" on="0"/>
        <pt x="115" y="9" on="0"/>
        <pt x="65" y="50" on="0"/>
        <pt x="34" y="112" on="0"/>
      </contour>
    </TTGlyph>
    <TTGlyph name="eight.dnom" xMin="17" yMin="-12" xMax="297" yMax="402">
      <contour>
        <pt x="53" y="97" on="1"/>
        <pt x="53" y="59" on="0"/>
        <pt x="101" y="17" on="0"/>
        <pt x="134" y="17" on="1"/>
        <pt x="153" y="17" on="0"/>
        <pt x="188" y="29" on="0"/>
        <pt x="215" y="51" on="0"/>
        <pt x="232" y="82" on="0"/>
        <pt x="232" y="101" on="1"/>
        <pt x="232" y="122" on="0"/>
        <pt x="217" y="150" on="0"/>
        <pt x="191" y="171" on="0"/>
        <pt x="158" y="187" on="0"/>
        <pt x="139" y="196" on="1"/>
        <pt x="97" y="177" on="0"/>
        <pt x="53" y="124" on="0"/>
      </contour>
      <contour>
        <pt x="189" y="211" on="1"/>
        <pt x="224" y="229" on="0"/>
        <pt x="262" y="276" on="0"/>
        <pt x="262" y="300" on="1"/>
        <pt x="262" y="334" on="0"/>
        <pt x="223" y="372" on="0"/>
        <pt x="192" y="372" on="1"/>
        <pt x="157" y="372" on="0"/>
        <pt x="109" y="331" on="0"/>
        <pt x="109" y="299" on="1"/>
        <pt x="109" y="266" on="0"/>
        <pt x="154" y="223" on="0"/>
      </contour>
      <contour>
        <pt x="17" y="90" on="1"/>
        <pt x="17" y="112" on="0"/>
        <pt x="34" y="149" on="0"/>
        <pt x="61" y="181" on="0"/>
        <pt x="97" y="205" on="0"/>
        <pt x="115" y="213" on="1"/>
        <pt x="116" y="217" on="1"/>
        <pt x="99" y="232" on="0"/>
        <pt x="74" y="270" on="0"/>
        <pt x="74" y="293" on="1"/>
        <pt x="74" y="317" on="0"/>
        <pt x="93" y="358" on="0"/>
        <pt x="126" y="386" on="0"/>
        <pt x="170" y="402" on="0"/>
        <pt x="195" y="402" on="1"/>
        <pt x="239" y="402" on="0"/>
        <pt x="297" y="350" on="0"/>
        <pt x="297" y="306" on="1"/>
        <pt x="297" y="286" on="0"/>
        <pt x="282" y="252" on="0"/>
        <pt x="259" y="225" on="0"/>
        <pt x="231" y="203" on="0"/>
        <pt x="218" y="196" on="1"/>
        <pt x="218" y="192" on="1"/>
        <pt x="239" y="177" on="0"/>
        <pt x="268" y="138" on="0"/>
        <pt x="268" y="106" on="1"/>
        <pt x="268" y="80" on="0"/>
        <pt x="247" y="36" on="0"/>
        <pt x="209" y="5" on="0"/>
        <pt x="159" y="-12" on="0"/>
        <pt x="131" y="-12" on="1"/>
        <pt x="83" y="-12" on="0"/>
        <pt x="17" y="44" on="0"/>
      </contour>
    </TTGlyph>
    <TTGlyph name="eight.numr" xMin="67" yMin="258" xMax="347" yMax="672">
      <component glyphName="eight.dnom" x="50" y="270" flags="0x204"/>
    </TTGlyph>
    <TTGlyph name="eight.onum" xMin="34" yMin="-12" xMax="456" yMax="651">
      <component glyphName="eight" x="0" y="0" flags="0x204"/>
    </TTGlyph>
    <TTGlyph name="eight.pnum" xMin="34" yMin="-12" xMax="456" yMax="651">
      <component glyphName="eight" x="0" y="0" flags="0x204"/>
    </TTGlyph>
    <TTGlyph name="eight.subs" xMin="-13" yMin="-181" xMax="267" yMax="233">
      <component glyphName="eight.dnom" x="-30" y="-169" flags="0x204"/>
    </TTGlyph>
    <TTGlyph name="eight.sups" xMin="106" yMin="428" xMax="386" yMax="842">
      <component glyphName="eight.dnom" x="89" y="440" flags="0x204"/>
    </TTGlyph>
    <TTGlyph name="eight.tnum" xMin="34" yMin="-12" xMax="456" yMax="651">
      <component glyphName="eight" x="0" y="0" flags="0x204"/>
    </TTGlyph>
    <TTGlyph name="ellipsis" xMin="91" yMin="-12" xMax="839" yMax="76">
      <component glyphName="period" x="69" y="0" flags="0x4"/>
      <component glyphName="period" x="403" y="0" flags="0x4"/>
      <component glyphName="period" x="737" y="0" flags="0x4"/>
    </TTGlyph>
    <TTGlyph name="emacron" xMin="42" yMin="-12" xMax="436" yMax="640">
      <component glyphName="e" x="0" y="0" flags="0x204"/>
      <component glyphName="uni0304" x="191" y="0" flags="0x4"/>
    </TTGlyph>
    <TTGlyph name="emdash" xMin="36" yMin="234" xMax="733" yMax="268">
      <contour>
        <pt x="43" y="268" on="1"/>
        <pt x="733" y="268" on="1"/>
        <pt x="725" y="234" on="1"/>
        <pt x="36" y="234" on="1"/>
      </contour>
    </TTGlyph>
    <TTGlyph name="endash" xMin="36" yMin="234" xMax="426" yMax="268">
      <contour>
        <pt x="43" y="268" on="1"/>
        <pt x="426" y="268" on="1"/>
        <pt x="417" y="234" on="1"/>
        <pt x="36" y="234" on="1"/>
      </contour>
    </TTGlyph>
    <TTGlyph name="eogonek" xMin="42" yMin="-203" xMax="436" yMax="492">
      <contour>
        <pt x="184" y="-140" on="1"/>
        <pt x="184" y="-120" on="0"/>
        <pt x="200" y="-81" on="0"/>
        <pt x="225" y="-47" on="0"/>
        <pt x="254" y="-18" on="0"/>
        <pt x="267" y="-7" on="1"/>
        <pt x="242" y="-12" on="0"/>
        <pt x="225" y="-12" on="1"/>
        <pt x="141" y="-12" on="0"/>
        <pt x="42" y="89" on="0"/>
        <pt x="42" y="186" on="1"/>
        <pt x="42" y="254" on="0"/>
        <pt x="86" y="367" on="0"/>
        <pt x="156" y="448" on="0"/>
        <pt x="246" y="492" on="0"/>
        <pt x="292" y="492" on="1"/>
        <pt x="331" y="492" on="0"/>
        <pt x="386" y="467" on="0"/>
        <pt x="420" y="422" on="0"/>
        <pt x="436" y="359" on="0"/>
        <pt x="436" y="322" on="1"/>
        <pt x="436" y="296" on="0"/>
        <pt x="428" y="252" on="0"/>
        <pt x="423" y="238" on="1"/>
        <pt x="88" y="238" on="1"/>
        <pt x="78" y="181" on="0"/>
        <pt x="94" y="100" on="0"/>
        <pt x="134" y="48" on="0"/>
        <pt x="195" y="23" on="0"/>
        <pt x="231" y="23" on="1"/>
        <pt x="263" y="23" on="0"/>
        <pt x="325" y="51" on="0"/>
        <pt x="351" y="70" on="1"/>
        <pt x="370" y="40" on="1"/>
        <pt x="289" y="-13" on="0"/>
        <pt x="222" y="-96" on="0"/>
        <pt x="222" y="-130" on="1"/>
        <pt x="222" y="-149" on="0"/>
        <pt x="243" y="-170" on="0"/>
        <pt x="260" y="-170" on="1"/>
        <pt x="280" y="-170" on="0"/>
        <pt x="301" y="-158" on="1"/>
        <pt x="312" y="-185" on="1"/>
        <pt x="298" y="-193" on="0"/>
        <pt x="266" y="-203" on="0"/>
        <pt x="252" y="-203" on="1"/>
        <pt x="223" y="-203" on="0"/>
        <pt x="184" y="-172" on="0"/>
      </contour>
      <contour>
        <pt x="392" y="271" on="1"/>
        <pt x="398" y="299" on="0"/>
        <pt x="398" y="328" on="1"/>
        <pt x="398" y="352" on="0"/>
        <pt x="387" y="399" on="0"/>
        <pt x="361" y="435" on="0"/>
        <pt x="319" y="457" on="0"/>
        <pt x="288" y="457" on="1"/>
        <pt x="256" y="457" on="0"/>
        <pt x="195" y="430" on="0"/>
        <pt x="143" y="380" on="0"/>
        <pt x="104" y="312" on="0"/>
        <pt x="94" y="271" on="1"/>
      </contour>
    </TTGlyph>
    <TTGlyph name="equal" xMin="48" yMin="213" xMax="442" yMax="448">
      <component glyphName="minus" x="0" y="100" flags="0x204"/>
      <component glyphName="minus" x="0" y="-101" flags="0x4"/>
    </TTGlyph>
    <TTGlyph name="estimated" xMin="66" yMin="-12" xMax="774" yMax="660">
      <contour>
        <pt x="204" y="108" on="1"/>
        <pt x="245" y="61" on="0"/>
        <pt x="357" y="8" on="0"/>
        <pt x="422" y="8" on="1"/>
        <pt x="490" y="8" on="0"/>
        <pt x="608" y="69" on="0"/>
        <pt x="650" y="120" on="1"/>
        <pt x="702" y="120" on="1"/>
        <pt x="652" y="60" on="0"/>
        <pt x="506" y="-12" on="0"/>
        <pt x="420" y="-12" on="1"/>
        <pt x="346" y="-12" on="0"/>
        <pt x="217" y="41" on="0"/>
        <pt x="121" y="132" on="0"/>
        <pt x="66" y="254" on="0"/>
        <pt x="66" y="324" on="1"/>
        <pt x="66" y="394" on="0"/>
        <pt x="121" y="516" on="0"/>
        <pt x="217" y="607" on="0"/>
        <pt x="346" y="660" on="0"/>
        <pt x="420" y="660" on="1"/>
        <pt x="493" y="660" on="0"/>
        <pt x="622" y="607" on="0"/>
        <pt x="718" y="516" on="0"/>
        <pt x="774" y="394" on="0"/>
        <pt x="774" y="324" on="1"/>
        <pt x="774" y="316" on="1"/>
        <pt x="200" y="316" on="1"/>
        <pt x="196" y="316" on="0"/>
        <pt x="196" y="312" on="1"/>
        <pt x="196" y="128" on="1"/>
        <pt x="196" y="122" on="0"/>
        <pt x="201" y="113" on="0"/>
      </contour>
      <contour>
        <pt x="640" y="334" on="1"/>
        <pt x="646" y="334" on="0"/>
        <pt x="646" y="340" on="1"/>
        <pt x="646" y="524" on="1"/>
        <pt x="646" y="536" on="0"/>
        <pt x="636" y="546" on="1"/>
        <pt x="594" y="590" on="0"/>
        <pt x="484" y="640" on="0"/>
        <pt x="422" y="640" on="1"/>
        <pt x="357" y="640" on="0"/>
        <pt x="246" y="587" on="0"/>
        <pt x="204" y="542" on="1"/>
        <pt x="201" y="537" on="0"/>
        <pt x="196" y="526" on="0"/>
        <pt x="196" y="520" on="1"/>
        <pt x="196" y="340" on="1"/>
        <pt x="196" y="334" on="0"/>
        <pt x="200" y="334" on="1"/>
      </contour>
    </TTGlyph>
    <TTGlyph name="eth" xMin="48" yMin="-12" xMax="517" yMax="724">
      <contour>
        <pt x="218" y="24" on="1"/>
        <pt x="260" y="24" on="0"/>
        <pt x="330" y="71" on="0"/>
        <pt x="381" y="151" on="0"/>
        <pt x="411" y="256" on="0"/>
        <pt x="414" y="314" on="1"/>
        <pt x="403" y="332" on="0"/>
        <pt x="376" y="365" on="0"/>
        <pt x="343" y="390" on="0"/>
        <pt x="305" y="406" on="0"/>
        <pt x="282" y="406" on="1"/>
        <pt x="238" y="406" on="0"/>
        <pt x="167" y="366" on="0"/>
        <pt x="116" y="300" on="0"/>
        <pt x="88" y="215" on="0"/>
        <pt x="88" y="171" on="1"/>
        <pt x="88" y="142" on="0"/>
        <pt x="105" y="88" on="0"/>
        <pt x="138" y="48" on="0"/>
        <pt x="187" y="24" on="0"/>
      </contour>
      <contour>
        <pt x="379" y="599" on="1"/>
        <pt x="414" y="549" on="0"/>
        <pt x="454" y="423" on="0"/>
        <pt x="454" y="342" on="1"/>
        <pt x="454" y="269" on="0"/>
        <pt x="420" y="140" on="0"/>
        <pt x="357" y="44" on="0"/>
        <pt x="267" y="-12" on="0"/>
        <pt x="212" y="-12" on="1"/>
        <pt x="176" y="-12" on="0"/>
        <pt x="116" y="16" on="0"/>
        <pt x="72" y="64" on="0"/>
        <pt x="48" y="129" on="0"/>
        <pt x="48" y="166" on="1"/>
        <pt x="48" y="219" on="0"/>
        <pt x="81" y="318" on="0"/>
        <pt x="142" y="395" on="0"/>
        <pt x="228" y="442" on="0"/>
        <pt x="281" y="442" on="1"/>
        <pt x="321" y="442" on="0"/>
        <pt x="388" y="398" on="0"/>
        <pt x="413" y="363" on="1"/>
        <pt x="411" y="432" on="0"/>
        <pt x="375" y="541" on="0"/>
        <pt x="344" y="584" on="1"/>
        <pt x="195" y="521" on="1"/>
        <pt x="185" y="548" on="1"/>
        <pt x="326" y="608" on="1"/>
        <pt x="304" y="634" on="0"/>
        <pt x="252" y="677" on="0"/>
        <pt x="222" y="697" on="1"/>
        <pt x="243" y="724" on="1"/>
        <pt x="277" y="703" on="0"/>
        <pt x="336" y="653" on="0"/>
        <pt x="361" y="622" on="1"/>
        <pt x="507" y="684" on="1"/>
        <pt x="517" y="657" on="1"/>
      </contour>
    </TTGlyph>
    <TTGlyph name="exclam" xMin="42" yMin="-12" xMax="228" yMax="672">
      <contour>
        <pt x="174" y="600" on="1"/>
        <pt x="187" y="672" on="1"/>
        <pt x="228" y="672" on="1"/>
        <pt x="214" y="600" on="1"/>
        <pt x="127" y="179" on="1"/>
        <pt x="95" y="179" on="1"/>
      </contour>
      <contour>
        <pt x="76" y="-12" on="1"/>
        <pt x="60" y="-12" on="0"/>
        <pt x="42" y="9" on="0"/>
        <pt x="42" y="23" on="1"/>
        <pt x="42" y="43" on="0"/>
        <pt x="71" y="76" on="0"/>
        <pt x="91" y="76" on="1"/>
        <pt x="107" y="76" on="0"/>
        <pt x="123" y="55" on="0"/>
        <pt x="123" y="39" on="1"/>
        <pt x="123" y="19" on="0"/>
        <pt x="96" y="-12" on="0"/>
      </contour>
    </TTGlyph>
    <TTGlyph name="exclamdown" xMin="23" yMin="-192" xMax="209" yMax="492">
      <contour>
        <pt x="77" y="-120" on="1"/>
        <pt x="64" y="-192" on="1"/>
        <pt x="23" y="-192" on="1"/>
        <pt x="37" y="-120" on="1"/>
        <pt x="125" y="302" on="1"/>
        <pt x="157" y="302" on="1"/>
      </contour>
      <contour>
        <pt x="176" y="492" on="1"/>
        <pt x="192" y="492" on="0"/>
        <pt x="209" y="471" on="0"/>
        <pt x="209" y="457" on="1"/>
        <pt x="209" y="438" on="0"/>
        <pt x="180" y="404" on="0"/>
        <pt x="160" y="404" on="1"/>
        <pt x="144" y="404" on="0"/>
        <pt x="129" y="425" on="0"/>
        <pt x="129" y="441" on="1"/>
        <pt x="129" y="461" on="0"/>
        <pt x="156" y="492" on="0"/>
      </contour>
    </TTGlyph>
    <TTGlyph name="f" xMin="47" yMin="0" xMax="372" yMax="731">
      <contour>
        <pt x="79" y="476" on="1"/>
        <pt x="143" y="480" on="1"/>
        <pt x="165" y="590" on="1"/>
        <pt x="180" y="662" on="0"/>
        <pt x="249" y="731" on="0"/>
        <pt x="297" y="731" on="1"/>
        <pt x="322" y="731" on="0"/>
        <pt x="357" y="718" on="0"/>
        <pt x="372" y="709" on="1"/>
        <pt x="354" y="678" on="1"/>
        <pt x="343" y="685" on="0"/>
        <pt x="316" y="695" on="0"/>
        <pt x="297" y="695" on="1"/>
        <pt x="261" y="695" on="0"/>
        <pt x="215" y="634" on="0"/>
        <pt x="206" y="590" on="1"/>
        <pt x="184" y="480" on="1"/>
        <pt x="290" y="480" on="1"/>
        <pt x="282" y="444" on="1"/>
        <pt x="176" y="444" on="1"/>
        <pt x="88" y="0" on="1"/>
        <pt x="47" y="0" on="1"/>
        <pt x="135" y="444" on="1"/>
        <pt x="73" y="444" on="1"/>
      </contour>
    </TTGlyph>
    <TTGlyph name="f.sups" xMin="65" yMin="269" xMax="290" yMax="750">
      <contour>
        <pt x="142" y="653" on="1"/>
        <pt x="151" y="701" on="0"/>
        <pt x="202" y="750" on="0"/>
        <pt x="237" y="750" on="1"/>
        <pt x="263" y="750" on="0"/>
        <pt x="290" y="736" on="1"/>
        <pt x="276" y="708" on="1"/>
        <pt x="268" y="713" on="0"/>
        <pt x="250" y="720" on="0"/>
        <pt x="237" y="720" on="1"/>
        <pt x="214" y="720" on="0"/>
        <pt x="183" y="685" on="0"/>
        <pt x="177" y="656" on="1"/>
        <pt x="163" y="587" on="1"/>
        <pt x="236" y="587" on="1"/>
        <pt x="231" y="556" on="1"/>
        <pt x="157" y="556" on="1"/>
        <pt x="100" y="269" on="1"/>
        <pt x="65" y="269" on="1"/>
        <pt x="123" y="556" on="1"/>
        <pt x="80" y="556" on="1"/>
        <pt x="85" y="584" on="1"/>
        <pt x="129" y="587" on="1"/>
      </contour>
    </TTGlyph>
    <TTGlyph name="f_f" xMin="47" yMin="0" xMax="624" yMax="731">
      <contour>
        <pt x="418" y="590" on="1"/>
        <pt x="433" y="662" on="0"/>
        <pt x="502" y="731" on="0"/>
        <pt x="550" y="731" on="1"/>
        <pt x="575" y="731" on="0"/>
        <pt x="608" y="719" on="0"/>
        <pt x="624" y="711" on="1"/>
        <pt x="607" y="678" on="1"/>
        <pt x="595" y="685" on="0"/>
        <pt x="569" y="695" on="0"/>
        <pt x="550" y="695" on="1"/>
        <pt x="513" y="695" on="0"/>
        <pt x="468" y="634" on="0"/>
        <pt x="459" y="590" on="1"/>
        <pt x="437" y="480" on="1"/>
        <pt x="542" y="480" on="1"/>
        <pt x="534" y="444" on="1"/>
        <pt x="430" y="444" on="1"/>
        <pt x="340" y="0" on="1"/>
        <pt x="299" y="0" on="1"/>
        <pt x="389" y="444" on="1"/>
        <pt x="177" y="444" on="1"/>
        <pt x="88" y="0" on="1"/>
        <pt x="47" y="0" on="1"/>
        <pt x="136" y="444" on="1"/>
        <pt x="73" y="444" on="1"/>
        <pt x="79" y="476" on="1"/>
        <pt x="143" y="480" on="1"/>
        <pt x="163" y="580" on="1"/>
        <pt x="180" y="652" on="0"/>
        <pt x="253" y="721" on="0"/>
        <pt x="304" y="721" on="1"/>
        <pt x="333" y="721" on="0"/>
        <pt x="370" y="709" on="0"/>
        <pt x="388" y="701" on="1"/>
        <pt x="370" y="668" on="1"/>
        <pt x="356" y="675" on="0"/>
        <pt x="327" y="685" on="0"/>
        <pt x="304" y="685" on="1"/>
        <pt x="264" y="685" on="0"/>
        <pt x="214" y="624" on="0"/>
        <pt x="204" y="580" on="1"/>
        <pt x="184" y="480" on="1"/>
        <pt x="396" y="480" on="1"/>
      </contour>
    </TTGlyph>
    <TTGlyph name="f_t" xMin="47" yMin="-12" xMax="531" yMax="731">
      <contour>
        <pt x="328" y="129" on="1"/>
        <pt x="326" y="120" on="0"/>
        <pt x="324" y="102" on="0"/>
        <pt x="324" y="91" on="1"/>
        <pt x="324" y="58" on="0"/>
        <pt x="353" y="24" on="0"/>
        <pt x="392" y="24" on="1"/>
        <pt x="409" y="24" on="0"/>
        <pt x="438" y="35" on="0"/>
        <pt x="450" y="41" on="1"/>
        <pt x="461" y="10" on="1"/>
        <pt x="447" y="2" on="0"/>
        <pt x="407" y="-12" on="0"/>
        <pt x="384" y="-12" on="1"/>
        <pt x="356" y="-12" on="0"/>
        <pt x="317" y="3" on="0"/>
        <pt x="293" y="29" on="0"/>
        <pt x="283" y="64" on="0"/>
        <pt x="283" y="83" on="1"/>
        <pt x="283" y="108" on="0"/>
        <pt x="287" y="131" on="1"/>
        <pt x="352" y="444" on="1"/>
        <pt x="177" y="444" on="1"/>
        <pt x="88" y="0" on="1"/>
        <pt x="47" y="0" on="1"/>
        <pt x="136" y="444" on="1"/>
        <pt x="73" y="444" on="1"/>
        <pt x="79" y="476" on="1"/>
        <pt x="143" y="480" on="1"/>
        <pt x="165" y="590" on="1"/>
        <pt x="180" y="662" on="0"/>
        <pt x="249" y="731" on="0"/>
        <pt x="297" y="731" on="1"/>
        <pt x="322" y="731" on="0"/>
        <pt x="355" y="719" on="0"/>
        <pt x="372" y="711" on="1"/>
        <pt x="354" y="678" on="1"/>
        <pt x="343" y="685" on="0"/>
        <pt x="316" y="695" on="0"/>
        <pt x="297" y="695" on="1"/>
        <pt x="261" y="695" on="0"/>
        <pt x="215" y="634" on="0"/>
        <pt x="206" y="590" on="1"/>
        <pt x="184" y="480" on="1"/>
        <pt x="361" y="480" on="1"/>
        <pt x="394" y="617" on="1"/>
        <pt x="429" y="617" on="1"/>
        <pt x="401" y="480" on="1"/>
        <pt x="531" y="480" on="1"/>
        <pt x="523" y="444" on="1"/>
        <pt x="393" y="444" on="1"/>
      </contour>
    </TTGlyph>
    <TTGlyph name="fi" xMin="47" yMin="0" xMax="481" yMax="731">
      <component glyphName="f" x="0" y="0" flags="0x4"/>
      <component glyphName="i" x="256" y="0" flags="0x4"/>
    </TTGlyph>
    <TTGlyph name="figuredash" xMin="36" yMin="234" xMax="427" yMax="268">
      <contour>
        <pt x="43" y="268" on="1"/>
        <pt x="427" y="268" on="1"/>
        <pt x="417" y="234" on="1"/>
        <pt x="36" y="234" on="1"/>
      </contour>
    </TTGlyph>
    <TTGlyph name="five" xMin="-3" yMin="-12" xMax="450" yMax="639">
      <contour>
        <pt x="27" y="116" on="1"/>
        <pt x="37" y="100" on="0"/>
        <pt x="63" y="67" on="0"/>
        <pt x="98" y="41" on="0"/>
        <pt x="146" y="24" on="0"/>
        <pt x="179" y="24" on="1"/>
        <pt x="215" y="24" on="0"/>
        <pt x="282" y="53" on="0"/>
        <pt x="333" y="106" on="0"/>
        <pt x="364" y="180" on="0"/>
        <pt x="364" y="225" on="1"/>
        <pt x="364" y="297" on="0"/>
        <pt x="292" y="366" on="0"/>
        <pt x="232" y="366" on="1"/>
        <pt x="197" y="366" on="0"/>
        <pt x="147" y="348" on="0"/>
        <pt x="117" y="331" on="1"/>
        <pt x="95" y="348" on="1"/>
        <pt x="175" y="639" on="1"/>
        <pt x="450" y="639" on="1"/>
        <pt x="442" y="603" on="1"/>
        <pt x="204" y="603" on="1"/>
        <pt x="142" y="377" on="1"/>
        <pt x="161" y="387" on="0"/>
        <pt x="209" y="401" on="0"/>
        <pt x="239" y="401" on="1"/>
        <pt x="311" y="401" on="0"/>
        <pt x="405" y="317" on="0"/>
        <pt x="405" y="233" on="1"/>
        <pt x="405" y="177" on="0"/>
        <pt x="367" y="87" on="0"/>
        <pt x="304" y="23" on="0"/>
        <pt x="220" y="-12" on="0"/>
        <pt x="174" y="-12" on="1"/>
        <pt x="139" y="-12" on="0"/>
        <pt x="84" y="7" on="0"/>
        <pt x="40" y="37" on="0"/>
        <pt x="8" y="74" on="0"/>
        <pt x="-3" y="93" on="1"/>
      </contour>
    </TTGlyph>
    <TTGlyph name="five.dnom" xMin="1" yMin="-12" xMax="308" yMax="390">
      <contour>
        <pt x="29" y="86" on="1"/>
        <pt x="43" y="58" on="0"/>
        <pt x="93" y="19" on="0"/>
        <pt x="138" y="19" on="1"/>
        <pt x="156" y="19" on="0"/>
        <pt x="193" y="35" on="0"/>
        <pt x="222" y="65" on="0"/>
        <pt x="241" y="108" on="0"/>
        <pt x="241" y="134" on="1"/>
        <pt x="241" y="176" on="0"/>
        <pt x="196" y="224" on="0"/>
        <pt x="159" y="224" on="1"/>
        <pt x="131" y="224" on="0"/>
        <pt x="96" y="206" on="0"/>
        <pt x="76" y="190" on="1"/>
        <pt x="60" y="207" on="1"/>
        <pt x="112" y="390" on="1"/>
        <pt x="308" y="390" on="1"/>
        <pt x="301" y="359" on="1"/>
        <pt x="137" y="359" on="1"/>
        <pt x="101" y="235" on="1"/>
        <pt x="116" y="245" on="0"/>
        <pt x="150" y="254" on="0"/>
        <pt x="166" y="254" on="1"/>
        <pt x="215" y="254" on="0"/>
        <pt x="277" y="193" on="0"/>
        <pt x="277" y="140" on="1"/>
        <pt x="277" y="105" on="0"/>
        <pt x="253" y="49" on="0"/>
        <pt x="212" y="9" on="0"/>
        <pt x="159" y="-12" on="0"/>
        <pt x="131" y="-12" on="1"/>
        <pt x="83" y="-12" on="0"/>
        <pt x="17" y="37" on="0"/>
        <pt x="1" y="68" on="1"/>
      </contour>
    </TTGlyph>
    <TTGlyph name="five.numr" xMin="51" yMin="258" xMax="358" yMax="660">
      <component glyphName="five.dnom" x="50" y="270" flags="0x204"/>
    </TTGlyph>
    <TTGlyph name="five.onum" xMin="-17" yMin="-85" xMax="436" yMax="571">
      <component glyphName="five.tnum" x="0" y="0" flags="0x204"/>
    </TTGlyph>
    <TTGlyph name="five.pnum" xMin="-7" yMin="-12" xMax="446" yMax="639">
      <component glyphName="five" x="-4" y="0" flags="0x4"/>
    </TTGlyph>
    <TTGlyph name="five.subs" xMin="-29" yMin="-181" xMax="278" yMax="221">
      <component glyphName="five.dnom" x="-30" y="-169" flags="0x204"/>
    </TTGlyph>
    <TTGlyph name="five.sups" xMin="90" yMin="428" xMax="397" yMax="830">
      <component glyphName="five.dnom" x="89" y="440" flags="0x204"/>
    </TTGlyph>
    <TTGlyph name="five.tnum" xMin="-17" yMin="-85" xMax="436" yMax="571">
      <contour>
        <pt x="13" y="43" on="1"/>
        <pt x="23" y="27" on="0"/>
        <pt x="48" y="-5" on="0"/>
        <pt x="84" y="-31" on="0"/>
        <pt x="132" y="-48" on="0"/>
        <pt x="165" y="-48" on="1"/>
        <pt x="201" y="-48" on="0"/>
        <pt x="268" y="-20" on="0"/>
        <pt x="319" y="33" on="0"/>
        <pt x="349" y="106" on="0"/>
        <pt x="349" y="151" on="1"/>
        <pt x="349" y="223" on="0"/>
        <pt x="277" y="296" on="0"/>
        <pt x="217" y="296" on="1"/>
        <pt x="182" y="296" on="0"/>
        <pt x="133" y="278" on="0"/>
        <pt x="102" y="261" on="1"/>
        <pt x="80" y="278" on="1"/>
        <pt x="161" y="571" on="1"/>
        <pt x="436" y="571" on="1"/>
        <pt x="428" y="534" on="1"/>
        <pt x="190" y="534" on="1"/>
        <pt x="127" y="307" on="1"/>
        <pt x="146" y="317" on="0"/>
        <pt x="195" y="331" on="0"/>
        <pt x="224" y="331" on="1"/>
        <pt x="260" y="331" on="0"/>
        <pt x="321" y="309" on="0"/>
        <pt x="366" y="265" on="0"/>
        <pt x="391" y="201" on="0"/>
        <pt x="391" y="159" on="1"/>
        <pt x="391" y="103" on="0"/>
        <pt x="353" y="13" on="0"/>
        <pt x="289" y="-51" on="0"/>
        <pt x="205" y="-85" on="0"/>
        <pt x="159" y="-85" on="1"/>
        <pt x="124" y="-85" on="0"/>
        <pt x="69" y="-66" on="0"/>
        <pt x="26" y="-36" on="0"/>
        <pt x="-6" y="2" on="0"/>
        <pt x="-17" y="21" on="1"/>
      </contour>
    </TTGlyph>
    <TTGlyph name="fiveeighths" xMin="50" yMin="-12" xMax="717" yMax="672">
      <component glyphName="five.dnom" x="49" y="270" flags="0x4"/>
      <component glyphName="fraction" x="349" y="0" flags="0x4"/>
      <component glyphName="eight.dnom" x="420" y="0" flags="0x4"/>
    </TTGlyph>
    <TTGlyph name="fl" xMin="47" yMin="-12" xMax="481" yMax="731">
      <component glyphName="f" x="0" y="0" flags="0x4"/>
      <component glyphName="l" x="256" y="0" flags="0x4"/>
    </TTGlyph>
    <TTGlyph name="fl.a" xMin="47" yMin="0" xMax="481" yMax="731">
      <component glyphName="f" x="0" y="0" flags="0x4"/>
      <component glyphName="l.a" x="256" y="0" flags="0x4"/>
    </TTGlyph>
    <TTGlyph name="four" xMin="8" yMin="0" xMax="421" yMax="639">
      <contour>
        <pt x="247" y="0" on="1"/>
        <pt x="285" y="189" on="1"/>
        <pt x="8" y="189" on="1"/>
        <pt x="12" y="215" on="1"/>
        <pt x="377" y="639" on="1"/>
        <pt x="415" y="639" on="1"/>
        <pt x="332" y="225" on="1"/>
        <pt x="421" y="225" on="1"/>
        <pt x="414" y="189" on="1"/>
        <pt x="325" y="189" on="1"/>
        <pt x="287" y="0" on="1"/>
      </contour>
      <contour>
        <pt x="292" y="225" on="1"/>
        <pt x="339" y="458" on="1"/>
        <pt x="344" y="483" on="0"/>
        <pt x="359" y="545" on="0"/>
        <pt x="367" y="577" on="1"/>
        <pt x="363" y="577" on="1"/>
        <pt x="343" y="550" on="0"/>
        <pt x="302" y="501" on="0"/>
        <pt x="284" y="479" on="1"/>
        <pt x="67" y="225" on="1"/>
      </contour>
    </TTGlyph>
    <TTGlyph name="four.dnom" xMin="19" yMin="0" xMax="287" yMax="390">
      <contour>
        <pt x="196" y="145" on="1"/>
        <pt x="214" y="237" on="1"/>
        <pt x="239" y="338" on="1"/>
        <pt x="235" y="338" on="1"/>
        <pt x="164" y="256" on="1"/>
        <pt x="66" y="145" on="1"/>
      </contour>
      <contour>
        <pt x="280" y="116" on="1"/>
        <pt x="223" y="116" on="1"/>
        <pt x="200" y="0" on="1"/>
        <pt x="167" y="0" on="1"/>
        <pt x="190" y="116" on="1"/>
        <pt x="19" y="116" on="1"/>
        <pt x="23" y="138" on="1"/>
        <pt x="247" y="390" on="1"/>
        <pt x="278" y="390" on="1"/>
        <pt x="229" y="145" on="1"/>
        <pt x="287" y="145" on="1"/>
      </contour>
    </TTGlyph>
    <TTGlyph name="four.numr" xMin="69" yMin="270" xMax="337" yMax="660">
      <component glyphName="four.dnom" x="50" y="270" flags="0x204"/>
    </TTGlyph>
    <TTGlyph name="four.onum" xMin="-13" yMin="-71" xMax="412" yMax="571">
      <component glyphName="four.tnum" x="0" y="0" flags="0x204"/>
    </TTGlyph>
    <TTGlyph name="four.pnum" xMin="20" yMin="0" xMax="433" yMax="639">
      <component glyphName="four" x="12" y="0" flags="0x204"/>
    </TTGlyph>
    <TTGlyph name="four.subs" xMin="-11" yMin="-169" xMax="257" yMax="221">
      <component glyphName="four.dnom" x="-30" y="-169" flags="0x204"/>
    </TTGlyph>
    <TTGlyph name="four.sups" xMin="108" yMin="440" xMax="376" yMax="830">
      <component glyphName="four.dnom" x="89" y="440" flags="0x204"/>
    </TTGlyph>
    <TTGlyph name="four.tnum" xMin="-13" yMin="-71" xMax="412" yMax="571">
      <contour>
        <pt x="284" y="137" on="1"/>
        <pt x="334" y="390" on="1"/>
        <pt x="339" y="415" on="0"/>
        <pt x="355" y="477" on="0"/>
        <pt x="363" y="509" on="1"/>
        <pt x="359" y="509" on="1"/>
        <pt x="338" y="482" on="0"/>
        <pt x="298" y="432" on="0"/>
        <pt x="280" y="411" on="1"/>
        <pt x="46" y="137" on="1"/>
      </contour>
      <contour>
        <pt x="404" y="102" on="1"/>
        <pt x="316" y="102" on="1"/>
        <pt x="282" y="-71" on="1"/>
        <pt x="242" y="-71" on="1"/>
        <pt x="277" y="102" on="1"/>
        <pt x="-13" y="102" on="1"/>
        <pt x="-9" y="127" on="1"/>
        <pt x="373" y="571" on="1"/>
        <pt x="410" y="571" on="1"/>
        <pt x="323" y="137" on="1"/>
        <pt x="412" y="137" on="1"/>
      </contour>
    </TTGlyph>
    <TTGlyph name="fraction" xMin="-209" yMin="-12" xMax="317" yMax="672">
      <contour>
        <pt x="-209" y="-12" on="1"/>
        <pt x="281" y="672" on="1"/>
        <pt x="317" y="672" on="1"/>
        <pt x="-173" y="-12" on="1"/>
      </contour>
    </TTGlyph>
    <TTGlyph name="g" xMin="4" yMin="-231" xMax="479" yMax="492">
      <contour>
        <pt x="479" y="480" on="1"/>
        <pt x="374" y="-41" on="1"/>
        <pt x="356" y="-130" on="0"/>
        <pt x="251" y="-231" on="0"/>
        <pt x="167" y="-231" on="1"/>
        <pt x="115" y="-231" on="0"/>
        <pt x="36" y="-191" on="0"/>
        <pt x="4" y="-165" on="1"/>
        <pt x="27" y="-135" on="1"/>
        <pt x="54" y="-160" on="0"/>
        <pt x="124" y="-195" on="0"/>
        <pt x="169" y="-195" on="1"/>
        <pt x="240" y="-195" on="0"/>
        <pt x="320" y="-103" on="0"/>
        <pt x="337" y="-26" on="1"/>
        <pt x="361" y="82" on="1"/>
        <pt x="357" y="82" on="1"/>
        <pt x="320" y="47" on="0"/>
        <pt x="233" y="-2" on="0"/>
        <pt x="183" y="-2" on="1"/>
        <pt x="121" y="-2" on="0"/>
        <pt x="44" y="85" on="0"/>
        <pt x="44" y="169" on="1"/>
        <pt x="44" y="236" on="0"/>
        <pt x="88" y="353" on="0"/>
        <pt x="160" y="441" on="0"/>
        <pt x="251" y="492" on="0"/>
        <pt x="299" y="492" on="1"/>
        <pt x="341" y="492" on="0"/>
        <pt x="403" y="449" on="0"/>
        <pt x="422" y="414" on="1"/>
        <pt x="426" y="414" on="1"/>
        <pt x="445" y="480" on="1"/>
      </contour>
      <contour>
        <pt x="191" y="35" on="1"/>
        <pt x="231" y="35" on="0"/>
        <pt x="326" y="87" on="0"/>
        <pt x="367" y="132" on="1"/>
        <pt x="417" y="369" on="1"/>
        <pt x="389" y="416" on="0"/>
        <pt x="332" y="456" on="0"/>
        <pt x="298" y="456" on="1"/>
        <pt x="257" y="456" on="0"/>
        <pt x="181" y="407" on="0"/>
        <pt x="122" y="328" on="0"/>
        <pt x="86" y="228" on="0"/>
        <pt x="86" y="176" on="1"/>
        <pt x="86" y="105" on="0"/>
        <pt x="142" y="35" on="0"/>
      </contour>
    </TTGlyph>
    <TTGlyph name="g.a" xMin="-8" yMin="-231" xMax="491" yMax="492">
      <contour>
        <pt x="87" y="284" on="1"/>
        <pt x="87" y="328" on="0"/>
        <pt x="116" y="404" on="0"/>
        <pt x="168" y="460" on="0"/>
        <pt x="240" y="492" on="0"/>
        <pt x="282" y="492" on="1"/>
        <pt x="299" y="492" on="0"/>
        <pt x="323" y="486" on="0"/>
        <pt x="336" y="480" on="1"/>
        <pt x="491" y="480" on="1"/>
        <pt x="484" y="445" on="1"/>
        <pt x="375" y="445" on="1"/>
        <pt x="390" y="428" on="0"/>
        <pt x="407" y="381" on="0"/>
        <pt x="407" y="360" on="1"/>
        <pt x="407" y="316" on="0"/>
        <pt x="378" y="240" on="0"/>
        <pt x="327" y="185" on="0"/>
        <pt x="255" y="153" on="0"/>
        <pt x="213" y="153" on="1"/>
        <pt x="183" y="153" on="0"/>
        <pt x="161" y="164" on="1"/>
        <pt x="147" y="153" on="0"/>
        <pt x="122" y="118" on="0"/>
        <pt x="122" y="98" on="1"/>
        <pt x="122" y="69" on="0"/>
        <pt x="166" y="41" on="0"/>
        <pt x="223" y="35" on="1"/>
        <pt x="309" y="25" on="0"/>
        <pt x="381" y="-25" on="0"/>
        <pt x="381" y="-73" on="1"/>
        <pt x="381" y="-112" on="0"/>
        <pt x="344" y="-171" on="0"/>
        <pt x="283" y="-211" on="0"/>
        <pt x="202" y="-231" on="0"/>
        <pt x="158" y="-231" on="1"/>
        <pt x="127" y="-231" on="0"/>
        <pt x="68" y="-218" on="0"/>
        <pt x="21" y="-189" on="0"/>
        <pt x="-8" y="-145" on="0"/>
        <pt x="-8" y="-115" on="1"/>
        <pt x="-8" y="-90" on="0"/>
        <pt x="16" y="-47" on="0"/>
        <pt x="53" y="-13" on="0"/>
        <pt x="97" y="14" on="0"/>
        <pt x="117" y="24" on="1"/>
        <pt x="117" y="26" on="1"/>
        <pt x="100" y="36" on="0"/>
        <pt x="83" y="71" on="0"/>
        <pt x="83" y="89" on="1"/>
        <pt x="83" y="134" on="0"/>
        <pt x="134" y="176" on="1"/>
        <pt x="134" y="180" on="1"/>
        <pt x="114" y="197" on="0"/>
        <pt x="87" y="252" on="0"/>
      </contour>
      <contour>
        <pt x="144" y="8" on="1"/>
        <pt x="126" y="0" on="0"/>
        <pt x="85" y="-24" on="0"/>
        <pt x="52" y="-54" on="0"/>
        <pt x="30" y="-89" on="0"/>
        <pt x="30" y="-107" on="1"/>
        <pt x="30" y="-131" on="0"/>
        <pt x="52" y="-165" on="0"/>
        <pt x="88" y="-188" on="0"/>
        <pt x="135" y="-198" on="0"/>
        <pt x="161" y="-198" on="1"/>
        <pt x="199" y="-198" on="0"/>
        <pt x="264" y="-180" on="0"/>
        <pt x="312" y="-148" on="0"/>
        <pt x="340" y="-106" on="0"/>
        <pt x="340" y="-82" on="1"/>
        <pt x="340" y="-46" on="0"/>
        <pt x="276" y="-10" on="0"/>
        <pt x="204" y="-2" on="1"/>
        <pt x="190" y="0" on="0"/>
        <pt x="159" y="5" on="0"/>
      </contour>
      <contour>
        <pt x="278" y="458" on="1"/>
        <pt x="246" y="458" on="0"/>
        <pt x="190" y="430" on="0"/>
        <pt x="150" y="384" on="0"/>
        <pt x="127" y="324" on="0"/>
        <pt x="127" y="292" on="1"/>
        <pt x="127" y="244" on="0"/>
        <pt x="175" y="186" on="0"/>
        <pt x="218" y="186" on="1"/>
        <pt x="250" y="186" on="0"/>
        <pt x="305" y="214" on="0"/>
        <pt x="346" y="260" on="0"/>
        <pt x="369" y="319" on="0"/>
        <pt x="369" y="351" on="1"/>
        <pt x="369" y="399" on="0"/>
        <pt x="320" y="458" on="0"/>
      </contour>
    </TTGlyph>
    <TTGlyph name="g.supa" xMin="25" yMin="119" xMax="363" yMax="595">
      <contour>
        <pt x="89" y="454" on="1"/>
        <pt x="89" y="483" on="0"/>
        <pt x="109" y="535" on="0"/>
        <pt x="144" y="573" on="0"/>
        <pt x="192" y="595" on="0"/>
        <pt x="220" y="595" on="1"/>
        <pt x="242" y="595" on="0"/>
        <pt x="260" y="587" on="1"/>
        <pt x="363" y="587" on="1"/>
        <pt x="357" y="557" on="1"/>
        <pt x="292" y="557" on="1"/>
        <pt x="300" y="546" on="0"/>
        <pt x="307" y="519" on="0"/>
        <pt x="307" y="506" on="1"/>
        <pt x="307" y="477" on="0"/>
        <pt x="287" y="426" on="0"/>
        <pt x="253" y="388" on="0"/>
        <pt x="204" y="366" on="0"/>
        <pt x="176" y="366" on="1"/>
        <pt x="157" y="366" on="0"/>
        <pt x="142" y="372" on="1"/>
        <pt x="133" y="365" on="0"/>
        <pt x="118" y="346" on="0"/>
        <pt x="118" y="335" on="1"/>
        <pt x="118" y="315" on="0"/>
        <pt x="142" y="299" on="0"/>
        <pt x="182" y="293" on="1"/>
        <pt x="244" y="284" on="0"/>
        <pt x="291" y="253" on="0"/>
        <pt x="291" y="221" on="1"/>
        <pt x="291" y="195" on="0"/>
        <pt x="264" y="157" on="0"/>
        <pt x="219" y="132" on="0"/>
        <pt x="162" y="119" on="0"/>
        <pt x="132" y="119" on="1"/>
        <pt x="114" y="119" on="0"/>
        <pt x="77" y="125" on="0"/>
        <pt x="45" y="142" on="0"/>
        <pt x="25" y="170" on="0"/>
        <pt x="25" y="193" on="1"/>
        <pt x="25" y="210" on="0"/>
        <pt x="40" y="237" on="0"/>
        <pt x="63" y="259" on="0"/>
        <pt x="90" y="275" on="0"/>
        <pt x="103" y="281" on="1"/>
        <pt x="103" y="285" on="1"/>
        <pt x="95" y="290" on="0"/>
        <pt x="85" y="312" on="0"/>
        <pt x="85" y="326" on="1"/>
        <pt x="85" y="343" on="0"/>
        <pt x="102" y="368" on="0"/>
        <pt x="119" y="381" on="1"/>
        <pt x="119" y="385" on="1"/>
        <pt x="105" y="397" on="0"/>
        <pt x="89" y="431" on="0"/>
      </contour>
      <contour>
        <pt x="130" y="270" on="1"/>
        <pt x="102" y="259" on="0"/>
        <pt x="58" y="222" on="0"/>
        <pt x="58" y="199" on="1"/>
        <pt x="58" y="170" on="0"/>
        <pt x="103" y="147" on="0"/>
        <pt x="135" y="147" on="1"/>
        <pt x="160" y="147" on="0"/>
        <pt x="204" y="158" on="0"/>
        <pt x="237" y="176" on="0"/>
        <pt x="256" y="200" on="0"/>
        <pt x="256" y="214" on="1"/>
        <pt x="256" y="237" on="0"/>
        <pt x="219" y="258" on="0"/>
        <pt x="171" y="263" on="1"/>
        <pt x="161" y="264" on="0"/>
        <pt x="144" y="267" on="0"/>
      </contour>
      <contour>
        <pt x="218" y="565" on="1"/>
        <pt x="198" y="565" on="0"/>
        <pt x="163" y="547" on="0"/>
        <pt x="137" y="518" on="0"/>
        <pt x="122" y="480" on="0"/>
        <pt x="122" y="460" on="1"/>
        <pt x="122" y="429" on="0"/>
        <pt x="151" y="394" on="0"/>
        <pt x="179" y="394" on="1"/>
        <pt x="200" y="394" on="0"/>
        <pt x="235" y="412" on="0"/>
        <pt x="261" y="442" on="0"/>
        <pt x="276" y="481" on="0"/>
        <pt x="276" y="501" on="1"/>
        <pt x="276" y="531" on="0"/>
        <pt x="247" y="565" on="0"/>
      </contour>
    </TTGlyph>
    <TTGlyph name="g.sups" xMin="38" yMin="117" xMax="361" yMax="595">
      <contour>
        <pt x="361" y="587" on="1"/>
        <pt x="296" y="257" on="1"/>
        <pt x="283" y="194" on="0"/>
        <pt x="208" y="117" on="0"/>
        <pt x="151" y="117" on="1"/>
        <pt x="122" y="117" on="0"/>
        <pt x="63" y="140" on="0"/>
        <pt x="38" y="162" on="1"/>
        <pt x="57" y="187" on="1"/>
        <pt x="76" y="171" on="0"/>
        <pt x="126" y="148" on="0"/>
        <pt x="153" y="148" on="1"/>
        <pt x="196" y="148" on="0"/>
        <pt x="251" y="210" on="0"/>
        <pt x="263" y="261" on="1"/>
        <pt x="275" y="320" on="1"/>
        <pt x="271" y="320" on="1"/>
        <pt x="245" y="299" on="0"/>
        <pt x="189" y="273" on="0"/>
        <pt x="157" y="273" on="1"/>
        <pt x="115" y="273" on="0"/>
        <pt x="63" y="330" on="0"/>
        <pt x="63" y="384" on="1"/>
        <pt x="63" y="427" on="0"/>
        <pt x="93" y="503" on="0"/>
        <pt x="142" y="561" on="0"/>
        <pt x="205" y="595" on="0"/>
        <pt x="239" y="595" on="1"/>
        <pt x="263" y="595" on="0"/>
        <pt x="304" y="571" on="0"/>
        <pt x="317" y="545" on="1"/>
        <pt x="321" y="545" on="1"/>
        <pt x="334" y="587" on="1"/>
      </contour>
      <contour>
        <pt x="164" y="304" on="1"/>
        <pt x="192" y="304" on="0"/>
        <pt x="256" y="336" on="0"/>
        <pt x="282" y="362" on="1"/>
        <pt x="311" y="509" on="1"/>
        <pt x="294" y="541" on="0"/>
        <pt x="258" y="564" on="0"/>
        <pt x="238" y="564" on="1"/>
        <pt x="212" y="564" on="0"/>
        <pt x="161" y="533" on="0"/>
        <pt x="122" y="484" on="0"/>
        <pt x="98" y="421" on="0"/>
        <pt x="98" y="389" on="1"/>
        <pt x="98" y="346" on="0"/>
        <pt x="135" y="304" on="0"/>
      </contour>
    </TTGlyph>
    <TTGlyph name="gbreve" xMin="4" yMin="-231" xMax="479" yMax="693">
      <component glyphName="g" x="0" y="0" flags="0x204"/>
      <component glyphName="uni0306" x="207" y="0" flags="0x4"/>
    </TTGlyph>
    <TTGlyph name="gbreve.a" xMin="-8" yMin="-231" xMax="491" yMax="693">
      <component glyphName="g.a" x="0" y="0" flags="0x204"/>
      <component glyphName="uni0306" x="173" y="0" flags="0x4"/>
    </TTGlyph>
    <TTGlyph name="gcaron" xMin="4" yMin="-231" xMax="479" yMax="706">
      <component glyphName="g" x="0" y="0" flags="0x204"/>
      <component glyphName="uni030C" x="207" y="0" flags="0x4"/>
    </TTGlyph>
    <TTGlyph name="gcaron.a" xMin="-8" yMin="-231" xMax="491" yMax="706">
      <component glyphName="g.a" x="0" y="0" flags="0x204"/>
      <component glyphName="uni030C" x="173" y="0" flags="0x4"/>
    </TTGlyph>
    <TTGlyph name="gcircumflex" xMin="4" yMin="-231" xMax="479" yMax="706">
      <component glyphName="g" x="0" y="0" flags="0x204"/>
      <component glyphName="uni0302" x="207" y="0" flags="0x4"/>
    </TTGlyph>
    <TTGlyph name="gcircumflex.a" xMin="-8" yMin="-231" xMax="491" yMax="706">
      <component glyphName="g.a" x="0" y="0" flags="0x204"/>
      <component glyphName="uni0302" x="173" y="0" flags="0x4"/>
    </TTGlyph>
    <TTGlyph name="gdotaccent" xMin="4" yMin="-231" xMax="479" yMax="674">
      <component glyphName="g" x="0" y="0" flags="0x204"/>
      <component glyphName="uni0307" x="207" y="0" flags="0x4"/>
    </TTGlyph>
    <TTGlyph name="gdotaccent.a" xMin="-8" yMin="-231" xMax="491" yMax="674">
      <component glyphName="g.a" x="0" y="0" flags="0x204"/>
      <component glyphName="uni0307" x="173" y="0" flags="0x4"/>
    </TTGlyph>
    <TTGlyph name="germandbls" xMin="40" yMin="-12" xMax="472" yMax="731">
      <contour>
        <pt x="148" y="536" on="1"/>
        <pt x="156" y="575" on="0"/>
        <pt x="190" y="646" on="0"/>
        <pt x="238" y="700" on="0"/>
        <pt x="301" y="731" on="0"/>
        <pt x="339" y="731" on="1"/>
        <pt x="393" y="731" on="0"/>
        <pt x="458" y="670" on="0"/>
        <pt x="458" y="610" on="1"/>
        <pt x="458" y="577" on="0"/>
        <pt x="437" y="527" on="0"/>
        <pt x="405" y="487" on="0"/>
        <pt x="367" y="454" on="0"/>
        <pt x="335" y="420" on="0"/>
        <pt x="314" y="384" on="0"/>
        <pt x="314" y="362" on="1"/>
        <pt x="314" y="339" on="0"/>
        <pt x="337" y="305" on="0"/>
        <pt x="373" y="276" on="0"/>
        <pt x="413" y="247" on="0"/>
        <pt x="449" y="212" on="0"/>
        <pt x="472" y="166" on="0"/>
        <pt x="472" y="134" on="1"/>
        <pt x="472" y="104" on="0"/>
        <pt x="449" y="51" on="0"/>
        <pt x="408" y="11" on="0"/>
        <pt x="352" y="-12" on="0"/>
        <pt x="318" y="-12" on="1"/>
        <pt x="283" y="-12" on="0"/>
        <pt x="211" y="15" on="0"/>
        <pt x="182" y="41" on="1"/>
        <pt x="205" y="69" on="1"/>
        <pt x="231" y="48" on="0"/>
        <pt x="286" y="23" on="0"/>
        <pt x="319" y="23" on="1"/>
        <pt x="342" y="23" on="0"/>
        <pt x="383" y="39" on="0"/>
        <pt x="414" y="66" on="0"/>
        <pt x="432" y="104" on="0"/>
        <pt x="432" y="127" on="1"/>
        <pt x="432" y="155" on="0"/>
        <pt x="408" y="196" on="0"/>
        <pt x="373" y="230" on="0"/>
        <pt x="332" y="259" on="0"/>
        <pt x="297" y="291" on="0"/>
        <pt x="273" y="328" on="0"/>
        <pt x="273" y="354" on="1"/>
        <pt x="273" y="382" on="0"/>
        <pt x="294" y="426" on="0"/>
        <pt x="326" y="462" on="0"/>
        <pt x="364" y="496" on="0"/>
        <pt x="396" y="534" on="0"/>
        <pt x="417" y="578" on="0"/>
        <pt x="417" y="607" on="1"/>
        <pt x="417" y="645" on="0"/>
        <pt x="380" y="695" on="0"/>
        <pt x="336" y="695" on="1"/>
        <pt x="308" y="695" on="0"/>
        <pt x="260" y="668" on="0"/>
        <pt x="221" y="621" on="0"/>
        <pt x="193" y="559" on="0"/>
        <pt x="186" y="524" on="1"/>
        <pt x="82" y="0" on="1"/>
        <pt x="40" y="0" on="1"/>
      </contour>
    </TTGlyph>
    <TTGlyph name="grave" xMin="273" yMin="570" xMax="378" yMax="706">
      <component glyphName="uni0300" x="215" y="0" flags="0x4"/>
    </TTGlyph>
    <TTGlyph name="greater" xMin="48" yMin="150" xMax="444" yMax="510">
      <contour>
        <pt x="48" y="189" on="1"/>
        <pt x="271" y="279" on="1"/>
        <pt x="394" y="328" on="1"/>
        <pt x="394" y="332" on="1"/>
        <pt x="271" y="382" on="1"/>
        <pt x="48" y="472" on="1"/>
        <pt x="48" y="510" on="1"/>
        <pt x="444" y="348" on="1"/>
        <pt x="444" y="312" on="1"/>
        <pt x="48" y="150" on="1"/>
      </contour>
    </TTGlyph>
    <TTGlyph name="greaterequal" xMin="48" yMin="0" xMax="444" yMax="510">
      <contour>
        <pt x="48" y="0" on="1"/>
        <pt x="48" y="35" on="1"/>
        <pt x="442" y="35" on="1"/>
        <pt x="442" y="0" on="1"/>
      </contour>
      <contour>
        <pt x="48" y="194" on="1"/>
        <pt x="271" y="283" on="1"/>
        <pt x="394" y="331" on="1"/>
        <pt x="394" y="335" on="1"/>
        <pt x="271" y="383" on="1"/>
        <pt x="48" y="472" on="1"/>
        <pt x="48" y="510" on="1"/>
        <pt x="444" y="352" on="1"/>
        <pt x="444" y="314" on="1"/>
        <pt x="48" y="156" on="1"/>
      </contour>
    </TTGlyph>
    <TTGlyph name="guillemotleft" xMin="40" yMin="72" xMax="366" yMax="430">
      <component glyphName="guilsinglleft" x="0" y="0" flags="0x4"/>
      <component glyphName="guilsinglleft" x="142" y="0" flags="0x4"/>
    </TTGlyph>
    <TTGlyph name="guillemotright" xMin="21" yMin="72" xMax="347" yMax="430">
      <component glyphName="guilsinglright" x="0" y="0" flags="0x4"/>
      <component glyphName="guilsinglright" x="142" y="0" flags="0x4"/>
    </TTGlyph>
    <TTGlyph name="guilsinglleft" xMin="40" yMin="72" xMax="224" yMax="430">
      <contour>
        <pt x="40" y="236" on="1"/>
        <pt x="47" y="276" on="1"/>
        <pt x="205" y="430" on="1"/>
        <pt x="224" y="410" on="1"/>
        <pt x="78" y="251" on="1"/>
        <pt x="166" y="87" on="1"/>
        <pt x="142" y="72" on="1"/>
      </contour>
    </TTGlyph>
    <TTGlyph name="guilsinglright" xMin="21" yMin="72" xMax="205" yMax="430">
      <contour>
        <pt x="205" y="266" on="1"/>
        <pt x="197" y="226" on="1"/>
        <pt x="40" y="72" on="1"/>
        <pt x="21" y="92" on="1"/>
        <pt x="167" y="251" on="1"/>
        <pt x="78" y="415" on="1"/>
        <pt x="103" y="430" on="1"/>
      </contour>
    </TTGlyph>
    <TTGlyph name="h" xMin="40" yMin="0" xMax="450" yMax="719">
      <contour>
        <pt x="184" y="719" on="1"/>
        <pt x="225" y="719" on="1"/>
        <pt x="171" y="453" on="1"/>
        <pt x="158" y="403" on="1"/>
        <pt x="162" y="403" on="1"/>
        <pt x="209" y="442" on="0"/>
        <pt x="292" y="492" on="0"/>
        <pt x="336" y="492" on="1"/>
        <pt x="398" y="492" on="0"/>
        <pt x="450" y="428" on="0"/>
        <pt x="450" y="375" on="1"/>
        <pt x="450" y="357" on="0"/>
        <pt x="447" y="331" on="0"/>
        <pt x="442" y="310" on="1"/>
        <pt x="380" y="0" on="1"/>
        <pt x="339" y="0" on="1"/>
        <pt x="401" y="304" on="1"/>
        <pt x="405" y="326" on="0"/>
        <pt x="409" y="352" on="0"/>
        <pt x="409" y="366" on="1"/>
        <pt x="409" y="411" on="0"/>
        <pt x="369" y="455" on="0"/>
        <pt x="323" y="455" on="1"/>
        <pt x="291" y="455" on="0"/>
        <pt x="207" y="408" on="0"/>
        <pt x="153" y="354" on="1"/>
        <pt x="82" y="0" on="1"/>
        <pt x="40" y="0" on="1"/>
      </contour>
    </TTGlyph>
    <TTGlyph name="h.sups" xMin="63" yMin="269" xMax="341" yMax="742">
      <contour>
        <pt x="157" y="742" on="1"/>
        <pt x="192" y="742" on="1"/>
        <pt x="166" y="613" on="1"/>
        <pt x="150" y="540" on="1"/>
        <pt x="154" y="540" on="1"/>
        <pt x="182" y="563" on="0"/>
        <pt x="237" y="595" on="0"/>
        <pt x="267" y="595" on="1"/>
        <pt x="309" y="595" on="0"/>
        <pt x="341" y="552" on="0"/>
        <pt x="341" y="515" on="1"/>
        <pt x="341" y="504" on="0"/>
        <pt x="337" y="483" on="0"/>
        <pt x="335" y="473" on="1"/>
        <pt x="295" y="269" on="1"/>
        <pt x="261" y="269" on="1"/>
        <pt x="300" y="468" on="1"/>
        <pt x="303" y="482" on="0"/>
        <pt x="306" y="498" on="0"/>
        <pt x="306" y="507" on="1"/>
        <pt x="306" y="564" on="0"/>
        <pt x="259" y="564" on="1"/>
        <pt x="233" y="564" on="0"/>
        <pt x="178" y="532" on="0"/>
        <pt x="143" y="497" on="1"/>
        <pt x="98" y="269" on="1"/>
        <pt x="63" y="269" on="1"/>
      </contour>
    </TTGlyph>
    <TTGlyph name="hbar" xMin="40" yMin="0" xMax="446" yMax="719">
      <contour>
        <pt x="158" y="383" on="1"/>
        <pt x="205" y="422" on="0"/>
        <pt x="288" y="472" on="0"/>
        <pt x="332" y="472" on="1"/>
        <pt x="394" y="472" on="0"/>
        <pt x="446" y="408" on="0"/>
        <pt x="446" y="355" on="1"/>
        <pt x="446" y="337" on="0"/>
        <pt x="443" y="311" on="0"/>
        <pt x="438" y="290" on="1"/>
        <pt x="380" y="0" on="1"/>
        <pt x="339" y="0" on="1"/>
        <pt x="397" y="284" on="1"/>
        <pt x="401" y="306" on="0"/>
        <pt x="405" y="332" on="0"/>
        <pt x="405" y="346" on="1"/>
        <pt x="405" y="391" on="0"/>
        <pt x="365" y="435" on="0"/>
        <pt x="319" y="435" on="1"/>
        <pt x="287" y="435" on="0"/>
        <pt x="203" y="388" on="0"/>
        <pt x="149" y="334" on="1"/>
        <pt x="82" y="0" on="1"/>
        <pt x="40" y="0" on="1"/>
        <pt x="156" y="581" on="1"/>
        <pt x="84" y="581" on="1"/>
        <pt x="89" y="608" on="1"/>
        <pt x="163" y="612" on="1"/>
        <pt x="184" y="719" on="1"/>
        <pt x="225" y="719" on="1"/>
        <pt x="203" y="612" on="1"/>
        <pt x="387" y="612" on="1"/>
        <pt x="380" y="581" on="1"/>
        <pt x="197" y="581" on="1"/>
        <pt x="167" y="433" on="1"/>
        <pt x="154" y="383" on="1"/>
      </contour>
    </TTGlyph>
    <TTGlyph name="hcircumflex" xMin="40" yMin="0" xMax="450" yMax="856">
      <component glyphName="h" x="0" y="0" flags="0x204"/>
      <component glyphName="uni0302.cap" x="82" y="43" flags="0x4"/>
    </TTGlyph>
    <TTGlyph name="hungarumlaut" xMin="242" yMin="570" xMax="521" yMax="708">
      <component glyphName="uni030B" x="215" y="0" flags="0x4"/>
    </TTGlyph>
    <TTGlyph name="hyphen" xMin="36" yMin="232" xMax="253" yMax="269">
      <contour>
        <pt x="43" y="269" on="1"/>
        <pt x="253" y="269" on="1"/>
        <pt x="245" y="232" on="1"/>
        <pt x="36" y="232" on="1"/>
      </contour>
    </TTGlyph>
    <TTGlyph name="i" xMin="40" yMin="0" xMax="225" yMax="674">
      <contour>
        <pt x="137" y="480" on="1"/>
        <pt x="178" y="480" on="1"/>
        <pt x="82" y="0" on="1"/>
        <pt x="40" y="0" on="1"/>
      </contour>
      <contour>
        <pt x="183" y="596" on="1"/>
        <pt x="169" y="596" on="0"/>
        <pt x="150" y="615" on="0"/>
        <pt x="150" y="629" on="1"/>
        <pt x="150" y="649" on="0"/>
        <pt x="175" y="674" on="0"/>
        <pt x="192" y="674" on="1"/>
        <pt x="206" y="674" on="0"/>
        <pt x="225" y="656" on="0"/>
        <pt x="225" y="640" on="1"/>
        <pt x="225" y="621" on="0"/>
        <pt x="200" y="596" on="0"/>
      </contour>
    </TTGlyph>
    <TTGlyph name="i.sups" xMin="63" yMin="269" xMax="192" yMax="719">
      <contour>
        <pt x="126" y="587" on="1"/>
        <pt x="160" y="587" on="1"/>
        <pt x="98" y="269" on="1"/>
        <pt x="63" y="269" on="1"/>
      </contour>
      <contour>
        <pt x="160" y="659" on="1"/>
        <pt x="149" y="659" on="0"/>
        <pt x="134" y="674" on="0"/>
        <pt x="134" y="686" on="1"/>
        <pt x="134" y="699" on="0"/>
        <pt x="152" y="719" on="0"/>
        <pt x="166" y="719" on="1"/>
        <pt x="177" y="719" on="0"/>
        <pt x="192" y="704" on="0"/>
        <pt x="192" y="692" on="1"/>
        <pt x="192" y="678" on="0"/>
        <pt x="174" y="659" on="0"/>
      </contour>
    </TTGlyph>
    <TTGlyph name="iacute" xMin="40" yMin="0" xMax="286" yMax="706">
      <component glyphName="dotlessi" x="0" y="0" flags="0x204"/>
      <component glyphName="uni0301" x="64" y="0" flags="0x4"/>
    </TTGlyph>
</ttFont>
